<svg width="100" height="35" viewBox="0 0 100 35" fill="none" xmlns="http://www.w3.org/2000/svg">
<path d="M2.61666 0.422913L97.0781 0.59071C98.3979 0.59071 99.5771 0.395015 99.5771 3.22448L99.4614 34.3321H0.23291V3.10884C0.23291 1.71352 0.367971 0.422913 2.61666 0.422913Z" fill="#AAB2AB"/>
<path d="M98.127 0H1.87262C0.840277 0 0 0.839783 0 1.87202V34.5775C0 34.8108 0.189634 35 0.422956 35H99.577C99.8104 35 100 34.8108 100 34.5775V1.87202C100 0.839783 99.1597 0 98.127 0ZM1.87261 0.845845H98.127C98.6935 0.845845 99.1541 1.30596 99.1541 1.87202C99.1541 1.87202 99.1541 15.0781 99.1541 24.602H30.133C27.6114 29.1611 22.7533 32.2567 17.1779 32.2567C11.6001 32.2567 6.74321 29.164 4.2228 24.602H0.845924C0.845924 15.0781 0.845924 1.87202 0.845924 1.87202C0.845932 1.30597 1.3065 0.845845 1.87261 0.845845Z" fill="black"/>
<path d="M61.5075 27.2896C61.7703 27.2896 62.0105 27.313 62.2281 27.3591C62.4448 27.4052 62.63 27.4812 62.7853 27.5871C62.9398 27.6923 63.0603 27.833 63.1452 28.0076C63.2301 28.1831 63.273 28.399 63.273 28.657C63.273 28.9352 63.2099 29.1664 63.0829 29.3516C62.9568 29.5376 62.7691 29.6888 62.5217 29.8077C62.8629 29.9055 63.1177 30.077 63.2859 30.322C63.4541 30.567 63.5382 30.8622 63.5382 31.2075C63.5382 31.4856 63.484 31.7266 63.3757 31.9304C63.2673 32.1334 63.1209 32.3 62.9382 32.4285C62.7546 32.5579 62.5451 32.6533 62.3106 32.7148C62.0752 32.7771 61.8342 32.8078 61.5859 32.8078H58.9058V27.2896H61.5075V27.2896ZM61.3522 29.5214C61.569 29.5214 61.7469 29.4697 61.8868 29.367C62.0259 29.2643 62.0954 29.0977 62.0954 28.8664C62.0954 28.7379 62.072 28.6319 62.0259 28.5503C61.979 28.4678 61.9175 28.4039 61.8399 28.357C61.7622 28.3109 61.6733 28.2785 61.573 28.2608C61.4727 28.243 61.3676 28.2341 61.26 28.2341H60.1221V29.5214H61.3522ZM61.4234 31.8633C61.5423 31.8633 61.6555 31.852 61.7639 31.8285C61.8722 31.8051 61.9677 31.7662 62.051 31.7129C62.1334 31.6587 62.199 31.5851 62.2483 31.4921C62.2976 31.3999 62.3219 31.2811 62.3219 31.1371C62.3219 30.8541 62.2418 30.6519 62.0817 30.5306C61.9216 30.4101 61.7097 30.3495 61.4468 30.3495H60.1221V31.8633H61.4234Z" fill="white"/>
<path d="M63.7525 27.2896H65.1136L66.406 29.4689L67.6903 27.2896H69.0433L66.9947 30.6899V32.8078H65.7784V30.6592L63.7525 27.2896Z" fill="white"/>
<path d="M28.5451 16.3384C28.5491 22.6131 23.4646 27.7023 17.1896 27.7064C10.9147 27.7104 5.8241 22.6268 5.82045 16.3521C5.82045 16.3477 5.82045 16.3432 5.82045 16.3384C5.81681 10.0637 10.9009 4.97442 17.1759 4.97077C23.4517 4.96675 28.5414 10.0503 28.5451 16.3251C28.5451 16.3291 28.5451 16.3339 28.5451 16.3384Z" fill="white"/>
<path d="M26.4193 7.0846C28.9389 9.60395 30.1989 12.6894 30.1989 16.3384C30.1989 19.9882 28.9608 23.0405 26.4844 25.4951C23.8564 28.0804 20.7505 29.3726 17.1665 29.3726C13.6259 29.3726 10.5738 28.0909 8.01087 25.5275C5.44759 22.9645 4.16614 19.9017 4.16614 16.3384C4.16614 12.7759 5.44759 9.69127 8.01087 7.0846C10.5086 4.56444 13.5608 3.30457 17.1665 3.30457C20.816 3.30456 23.8997 4.56444 26.4193 7.0846ZM9.70721 8.77952C7.57701 10.9309 6.51231 13.4511 6.51231 16.342C6.51231 19.2321 7.56651 21.7309 9.67447 23.8382C11.7828 25.9464 14.2927 27 17.205 27C20.1173 27 22.6486 25.9359 24.8002 23.8063C26.8431 21.8283 27.8649 19.3413 27.8649 16.342C27.8649 13.3654 26.8265 10.8388 24.7509 8.76337C22.6757 6.68837 20.1605 5.65045 17.205 5.65045C14.2495 5.65046 11.7497 6.69362 9.70721 8.77952ZM15.313 15.0704C14.9874 14.3608 14.5002 14.0058 13.8504 14.0058C12.7015 14.0058 12.1274 14.7793 12.1274 16.3255C12.1274 17.872 12.7015 18.6447 13.8504 18.6447C14.609 18.6447 15.1508 18.2683 15.4759 17.5138L17.0683 18.3616C16.3093 19.7101 15.1706 20.3844 13.6522 20.3844C12.4812 20.3844 11.5431 20.0254 10.8386 19.3082C10.133 18.5901 9.78122 17.6003 9.78122 16.3384C9.78122 15.0987 10.1443 14.1146 10.871 13.3856C11.5976 12.6566 12.5026 12.2923 13.5875 12.2923C15.1925 12.2923 16.3417 12.9247 17.0364 14.1882L15.313 15.0704ZM22.8047 15.0704C22.4788 14.3608 22.0012 14.0058 21.3716 14.0058C20.1997 14.0058 19.6134 14.7793 19.6134 16.3255C19.6134 17.872 20.1997 18.6447 21.3716 18.6447C22.1314 18.6447 22.6635 18.2683 22.9672 17.5138L24.5952 18.3616C23.8374 19.7101 22.7003 20.3844 21.1848 20.3844C20.0153 20.3844 19.0792 20.0254 18.3752 19.3082C17.6724 18.5901 17.3202 17.6003 17.3202 16.3384C17.3202 15.0987 17.6777 14.1146 18.3922 13.3856C19.1063 12.6566 20.0153 12.2923 21.1201 12.2923C22.7222 12.2923 23.8698 12.9247 24.562 14.1882L22.8047 15.0704Z" fill="black"/>
<path d="M63.556 21.629C68.4986 21.629 72.5054 17.6226 72.5054 12.6805C72.5054 7.73833 68.4986 3.73193 63.556 3.73193C58.6133 3.73193 54.6065 7.73833 54.6065 12.6805C54.6065 17.6226 58.6133 21.629 63.556 21.629Z" fill="white"/>
<path d="M66.1456 10.0916C66.1456 9.74668 65.8658 9.46729 65.522 9.46729H61.5689C61.2252 9.46729 60.9454 9.74667 60.9454 10.0916V14.0438H62.0477V18.7239H65.0433V14.0438H66.1456V10.0916Z" fill="black"/>
<path d="M63.5455 8.94735C64.2923 8.94735 64.8977 8.34201 64.8977 7.59529C64.8977 6.84856 64.2923 6.24323 63.5455 6.24323C62.7987 6.24323 62.1933 6.84856 62.1933 7.59529C62.1933 8.34201 62.7987 8.94735 63.5455 8.94735Z" fill="black"/>
<path fill-rule="evenodd" clip-rule="evenodd" d="M63.5334 2.82141C60.8565 2.82141 58.5904 3.7554 56.7359 5.62339C54.833 7.55566 53.8819 9.84292 53.8819 12.4836C53.8819 15.1242 54.833 17.3953 56.7359 19.2956C58.6389 21.1956 60.905 22.1457 63.5334 22.1457C66.1941 22.1457 68.5006 21.1883 70.4513 19.2714C72.2895 17.4519 73.209 15.1893 73.209 12.4836C73.209 9.77782 72.2733 7.49136 70.4036 5.62338C68.5321 3.7554 66.2426 2.82141 63.5334 2.82141ZM63.5576 4.56001C65.7509 4.56001 67.6134 5.33348 69.1452 6.87962C70.6931 8.40919 71.467 10.2772 71.467 12.4836C71.467 14.7057 70.7093 16.5499 69.1937 18.0151C67.5964 19.5936 65.7186 20.3825 63.5576 20.3825C61.3959 20.3825 59.5334 19.6017 57.9701 18.0394C56.4052 16.4771 55.6239 14.6253 55.6239 12.4836C55.6239 10.3415 56.4141 8.47388 57.9943 6.87963C59.5099 5.33348 61.3643 4.56001 63.5576 4.56001Z" fill="black"/>
</svg>
