<svg width="173" height="60" viewBox="0 0 173 60" fill="none" xmlns="http://www.w3.org/2000/svg">
<path fill-rule="evenodd" clip-rule="evenodd" d="M44.6487 14.3898V37.8679L34.8109 46.1988V59.0738H7.56757V49.2281L0 41.6544V29.5369H22.7027L17.5389 39.2264C17.244 39.78 17.4531 40.4683 18.0064 40.7637C18.1709 40.8513 18.3544 40.8971 18.5407 40.8971H19.5244C20.0833 40.8971 20.5967 40.589 20.8598 40.0953L26.4867 29.5369H33.6758C34.7207 29.5369 35.5677 28.6893 35.5677 27.6435C35.5677 26.5978 34.7207 25.7501 33.6758 25.7501H23.4595V19.6913L44.6487 14.3898Z" fill="#CE3245"/>
<path d="M8.32434 25.75V6.05884H0V25.75H8.32434Z" fill="#082765"/>
<path d="M20.4325 25.75V3.02942H11.3513V25.75H20.4325Z" fill="#082765"/>
<path d="M32.5405 13.6324V0H23.4594V15.9045L32.5405 13.6324Z" fill="#082765"/>
<path d="M44.6487 10.603V0H35.5677V12.875L44.6487 10.603Z" fill="#082765"/>
<path d="M55.6152 25.5767H59.0214V35.6276H59.1595L60.6555 33.3966L63.072 30.5217H66.8465L62.8189 35.1446L67.3068 42.5965H63.2561L60.5404 37.4906L59.0214 39.1926V42.5965H55.6152V25.5767ZM70.6013 29.2337C69.9108 29.2337 69.4045 29.0802 69.0823 28.7737C68.7754 28.4517 68.622 28.0452 68.622 27.5547V27.0487C68.622 26.5583 68.7754 26.1592 69.0823 25.8528C69.4045 25.5308 69.9108 25.3698 70.6013 25.3698C71.2917 25.3698 71.7904 25.5308 72.0972 25.8528C72.4194 26.1592 72.5805 26.5583 72.5805 27.0487V27.5547C72.5805 28.0452 72.4194 28.4517 72.0972 28.7737C71.7904 29.0802 71.2917 29.2337 70.6013 29.2337ZM68.8982 30.5217H72.3044V42.5965H68.8982V30.5217ZM79.7182 42.5965C78.5368 42.5965 77.6392 42.2975 77.0254 41.6995C76.4271 41.1015 76.1279 40.2275 76.1279 39.0776V33.1666H74.4248V30.5217H75.2763C75.7366 30.5217 76.0512 30.4142 76.2199 30.1997C76.3887 29.9697 76.4731 29.6477 76.4731 29.2337V27.2557H79.5341V30.5217H81.9276V33.1666H79.5341V39.9515H81.7435V42.5965H79.7182ZM93.2235 42.5965C92.6099 42.5965 92.0958 42.405 91.6816 42.0215C91.2827 41.638 91.0295 41.1245 90.9221 40.4805H90.784C90.5999 41.2625 90.1933 41.8605 89.5642 42.2745C88.9351 42.673 88.1603 42.8725 87.2397 42.8725C86.0276 42.8725 85.0993 42.5505 84.4549 41.9065C83.8105 41.2625 83.4883 40.4115 83.4883 39.3535C83.4883 38.0811 83.9486 37.1381 84.8692 36.5246C85.8051 35.8961 87.0709 35.5816 88.6666 35.5816H90.5768V34.8226C90.5768 34.2402 90.4235 33.7802 90.1166 33.4426C89.8097 33.0902 89.2957 32.9137 88.5746 32.9137C87.8995 32.9137 87.3625 33.0591 86.9635 33.3507C86.5646 33.6422 86.2348 33.9716 85.9739 34.3396L83.9486 32.5456C84.4396 31.8252 85.0533 31.2652 85.7898 30.8667C86.5416 30.4527 87.5543 30.2457 88.8277 30.2457C90.5462 30.2457 91.835 30.6212 92.6942 31.3727C93.5535 32.1242 93.983 33.2201 93.983 34.6616V39.9515H95.1108V42.5965H93.2235ZM88.5055 40.5035C89.0732 40.5035 89.5565 40.3811 89.9554 40.1355C90.3697 39.89 90.5768 39.4916 90.5768 38.9396V37.5136H88.9198C87.5849 37.5136 86.9175 37.9661 86.9175 38.8706V39.2156C86.9175 39.66 87.0556 39.9901 87.3318 40.2045C87.6079 40.4041 87.9992 40.5035 88.5055 40.5035ZM97.397 30.5217H100.803V43.8845C100.803 44.958 100.535 45.7779 99.9979 46.3455C99.4605 46.913 98.5938 47.1964 97.397 47.1964H95.6018V44.5515H97.397V30.5217ZM99.1001 29.2337C98.4096 29.2337 97.9033 29.0802 97.5811 28.7737C97.2742 28.4517 97.1208 28.0452 97.1208 27.5547V27.0487C97.1208 26.5583 97.2742 26.1592 97.5811 25.8528C97.9033 25.5308 98.4096 25.3698 99.1001 25.3698C99.7908 25.3698 100.289 25.5308 100.596 25.8528C100.918 26.1592 101.08 26.5583 101.08 27.0487V27.5547C101.08 28.0452 100.918 28.4517 100.596 28.7737C100.289 29.0802 99.7908 29.2337 99.1001 29.2337ZM112.912 42.5965C112.298 42.5965 111.784 42.405 111.37 42.0215C110.971 41.638 110.718 41.1245 110.611 40.4805H110.473C110.288 41.2625 109.882 41.8605 109.253 42.2745C108.624 42.673 107.849 42.8725 106.928 42.8725C105.716 42.8725 104.788 42.5505 104.143 41.9065C103.499 41.2625 103.177 40.4115 103.177 39.3535C103.177 38.0811 103.637 37.1381 104.558 36.5246C105.494 35.8961 106.76 35.5816 108.355 35.5816H110.265V34.8226C110.265 34.2402 110.112 33.7802 109.805 33.4426C109.498 33.0902 108.984 32.9137 108.263 32.9137C107.588 32.9137 107.051 33.0591 106.652 33.3507C106.253 33.6422 105.923 33.9716 105.662 34.3396L103.637 32.5456C104.128 31.8252 104.742 31.2652 105.478 30.8667C106.23 30.4527 107.243 30.2457 108.516 30.2457C110.235 30.2457 111.524 30.6212 112.383 31.3727C113.242 32.1242 113.672 33.2201 113.672 34.6616V39.9515H114.799V42.5965H112.912ZM108.194 40.5035C108.762 40.5035 109.245 40.3811 109.644 40.1355C110.058 39.89 110.265 39.4916 110.265 38.9396V37.5136H108.608C107.273 37.5136 106.606 37.9661 106.606 38.8706V39.2156C106.606 39.66 106.744 39.9901 107.02 40.2045C107.296 40.4041 107.688 40.5035 108.194 40.5035ZM128.27 43.4705C128.27 44.1145 128.155 44.682 127.925 45.1725C127.711 45.663 127.35 46.0769 126.844 46.4145C126.337 46.7669 125.662 47.028 124.818 47.1964C123.99 47.3804 122.962 47.4725 121.734 47.4725C120.691 47.4725 119.801 47.4034 119.065 47.2654C118.344 47.143 117.753 46.959 117.292 46.7135C116.848 46.4835 116.518 46.1919 116.303 45.8395C116.104 45.502 116.004 45.111 116.004 44.6665C116.004 43.992 116.203 43.463 116.602 43.0795C117.001 42.696 117.554 42.4585 118.259 42.3665V42.1135C117.676 42.006 117.239 41.7611 116.947 41.3775C116.656 40.9791 116.51 40.5191 116.51 39.9976C116.51 39.6756 116.571 39.3996 116.694 39.1696C116.832 38.924 117.001 38.717 117.2 38.5486C117.415 38.3646 117.661 38.2191 117.937 38.1116C118.213 38.0041 118.489 37.9201 118.765 37.8586V37.7666C118.029 37.4291 117.485 36.9691 117.131 36.3866C116.779 35.7886 116.602 35.0986 116.602 34.3166C116.602 33.0902 117.024 32.1087 117.868 31.3727C118.727 30.6212 120.031 30.2457 121.78 30.2457C122.578 30.2457 123.261 30.3222 123.829 30.4757V30.0157C123.829 29.3717 123.982 28.9117 124.289 28.6357C124.611 28.3442 125.064 28.1987 125.647 28.1987H127.557V30.7287H124.887V30.8667C125.593 31.2042 126.115 31.6717 126.452 32.2697C126.79 32.8521 126.959 33.5346 126.959 34.3166C126.959 35.5281 126.529 36.5016 125.67 37.2376C124.826 37.958 123.529 38.3186 121.78 38.3186C120.998 38.3186 120.284 38.234 119.64 38.0656C119.287 38.2956 119.111 38.6176 119.111 39.0316C119.111 39.3231 119.218 39.5531 119.433 39.7216C119.663 39.8751 120.039 39.9515 120.56 39.9515H124.059C125.532 39.9515 126.598 40.258 127.258 40.8715C127.933 41.4851 128.27 42.351 128.27 43.4705ZM125.071 43.9305C125.071 43.578 124.933 43.3095 124.657 43.1255C124.381 42.9415 123.898 42.8495 123.207 42.8495H119.065C118.911 43.003 118.796 43.1715 118.719 43.3555C118.658 43.555 118.627 43.7465 118.627 43.9305C118.627 44.375 118.819 44.697 119.203 44.8965C119.586 45.111 120.238 45.2185 121.159 45.2185H122.54C123.46 45.2185 124.113 45.111 124.496 44.8965C124.88 44.697 125.071 44.375 125.071 43.9305ZM121.78 36.0876C122.456 36.0876 122.954 35.9496 123.276 35.6736C123.614 35.3821 123.783 34.9681 123.783 34.4316V34.1556C123.783 33.6192 123.614 33.2127 123.276 32.9367C122.954 32.6451 122.456 32.4997 121.78 32.4997C121.105 32.4997 120.599 32.6451 120.261 32.9367C119.939 33.2127 119.778 33.6192 119.778 34.1556V34.4316C119.778 34.9681 119.939 35.3821 120.261 35.6736C120.599 35.9496 121.105 36.0876 121.78 36.0876ZM138.669 42.5965C138.055 42.5965 137.541 42.405 137.127 42.0215C136.728 41.638 136.475 41.1245 136.368 40.4805H136.23C136.045 41.2625 135.639 41.8605 135.01 42.2745C134.38 42.673 133.606 42.8725 132.685 42.8725C131.473 42.8725 130.545 42.5505 129.9 41.9065C129.256 41.2625 128.934 40.4115 128.934 39.3535C128.934 38.0811 129.394 37.1381 130.315 36.5246C131.25 35.8961 132.516 35.5816 134.112 35.5816H136.022V34.8226C136.022 34.2402 135.869 33.7802 135.562 33.4426C135.255 33.0902 134.741 32.9137 134.02 32.9137C133.345 32.9137 132.808 33.0591 132.409 33.3507C132.01 33.6422 131.68 33.9716 131.419 34.3396L129.394 32.5456C129.885 31.8252 130.499 31.2652 131.235 30.8667C131.987 30.4527 132.999 30.2457 134.273 30.2457C135.991 30.2457 137.28 30.6212 138.14 31.3727C138.999 32.1242 139.429 33.2201 139.429 34.6616V39.9515H140.556V42.5965H138.669ZM133.951 40.5035C134.518 40.5035 135.002 40.3811 135.401 40.1355C135.815 39.89 136.022 39.4916 136.022 38.9396V37.5136H134.365C133.03 37.5136 132.363 37.9661 132.363 38.8706V39.2156C132.363 39.66 132.501 39.9901 132.777 40.2045C133.053 40.4041 133.445 40.5035 133.951 40.5035ZM154.846 42.8725C153.941 42.8725 153.135 42.727 152.43 42.4355C151.724 42.129 151.133 41.707 150.658 41.1705C150.182 40.6185 149.821 39.9516 149.576 39.1696C149.33 38.3876 149.208 37.5136 149.208 36.5476C149.208 35.5816 149.33 34.7151 149.576 33.9486C149.821 33.1666 150.182 32.4997 150.658 31.9477C151.133 31.3957 151.724 30.9742 152.43 30.6827C153.135 30.3912 153.941 30.2457 154.846 30.2457C156.073 30.2457 157.094 30.5217 157.907 31.0737C158.736 31.6257 159.326 32.4002 159.679 33.3966L156.918 34.5926C156.81 34.1326 156.587 33.7416 156.25 33.4196C155.912 33.0977 155.445 32.9367 154.846 32.9367C154.156 32.9367 153.634 33.1666 153.281 33.6266C152.928 34.0711 152.752 34.6771 152.752 35.4436V37.6976C152.752 38.4641 152.928 39.0701 153.281 39.5146C153.634 39.959 154.156 40.1815 154.846 40.1815C155.46 40.1815 155.943 40.0205 156.296 39.6985C156.664 39.361 156.932 38.924 157.102 38.3876L159.748 39.5376C159.349 40.6875 158.728 41.531 157.884 42.0675C157.056 42.604 156.043 42.8725 154.846 42.8725ZM166.646 42.8725C165.756 42.8725 164.958 42.727 164.253 42.4355C163.562 42.144 162.972 41.7225 162.481 41.1705C162.005 40.6185 161.637 39.9516 161.376 39.1696C161.115 38.3876 160.985 37.5136 160.985 36.5476C160.985 35.5816 161.115 34.7076 161.376 33.9256C161.637 33.1437 162.005 32.4841 162.481 31.9477C162.972 31.3957 163.562 30.9742 164.253 30.6827C164.958 30.3912 165.756 30.2457 166.646 30.2457C167.536 30.2457 168.327 30.3912 169.017 30.6827C169.722 30.9742 170.313 31.3957 170.789 31.9477C171.28 32.4841 171.656 33.1437 171.917 33.9256C172.177 34.7076 172.308 35.5816 172.308 36.5476C172.308 37.5136 172.177 38.3876 171.917 39.1696C171.656 39.9516 171.28 40.6185 170.789 41.1705C170.313 41.7225 169.722 42.144 169.017 42.4355C168.327 42.727 167.536 42.8725 166.646 42.8725ZM166.646 40.1815C167.321 40.1815 167.843 39.9746 168.211 39.5606C168.58 39.1466 168.764 38.5561 168.764 37.7896V35.3286C168.764 34.5621 168.58 33.9716 168.211 33.5576C167.843 33.1436 167.321 32.9367 166.646 32.9367C165.971 32.9367 165.45 33.1436 165.081 33.5576C164.713 33.9716 164.529 34.5621 164.529 35.3286V37.7896C164.529 38.5561 164.713 39.1466 165.081 39.5606C165.45 39.9746 165.971 40.1815 166.646 40.1815Z" fill="#082765"/>
<path d="M144.822 42.8496C144.131 42.8496 143.617 42.6811 143.28 42.3436C142.957 41.9911 142.796 41.546 142.796 41.0096V40.5496C142.796 40.0131 142.957 39.5761 143.28 39.2386C143.617 38.8861 144.131 38.7096 144.822 38.7096C145.512 38.7096 146.018 38.8861 146.34 39.2386C146.678 39.5761 146.847 40.0131 146.847 40.5496V41.0096C146.847 41.546 146.678 41.9911 146.34 42.3436C146.018 42.6811 145.512 42.8496 144.822 42.8496Z" fill="#CE3245"/>
</svg>
