<svg width="162" height="40" viewBox="0 0 162 40" fill="none" xmlns="http://www.w3.org/2000/svg">
<rect x="0.25" y="0.25" width="161.5" height="39.5" stroke="#676767" stroke-width="0.5"/>
<path d="M29.3957 13.6896C29.573 13.658 29.7567 13.6421 29.9467 13.6421C30.143 13.6358 30.2887 13.6326 30.3837 13.6326C30.4914 13.6326 30.6307 13.6358 30.8017 13.6421C30.9727 13.6421 31.1437 13.658 31.3147 13.6896L33.4997 20.3586C33.5504 20.5233 33.6169 20.745 33.6992 21.0236C33.7815 21.296 33.8639 21.581 33.9462 21.8786C34.0285 22.1763 34.0982 22.4423 34.1552 22.6766C34.2185 22.911 34.2565 23.063 34.2692 23.1326H34.3642C34.3769 23.063 34.4117 22.911 34.4687 22.6766C34.532 22.4423 34.6049 22.1763 34.6872 21.8786C34.7695 21.581 34.8519 21.296 34.9342 21.0236C35.0165 20.745 35.0862 20.5233 35.1432 20.3586L37.3282 13.6896C37.5245 13.658 37.7019 13.6421 37.8602 13.6421C38.0185 13.6358 38.1515 13.6326 38.2592 13.6326C38.3542 13.6326 38.4935 13.6358 38.6772 13.6421C38.8609 13.6421 39.0509 13.658 39.2472 13.6896L40.2542 26.6476C40.0325 26.711 39.7824 26.7426 39.5037 26.7426C39.282 26.7426 39.0604 26.7236 38.8387 26.6856L38.3067 18.8196C38.2877 18.5283 38.2687 18.1705 38.2497 17.7461C38.2307 17.3218 38.2117 16.888 38.1927 16.4446C38.18 15.995 38.1674 15.5928 38.1547 15.2381H38.0597L35.0387 24.6431C34.817 24.6811 34.5732 24.7001 34.3072 24.7001C34.0349 24.7001 33.7974 24.6811 33.5947 24.6431L30.5832 15.2381H30.4882C30.4692 15.5928 30.4502 15.995 30.4312 16.4446C30.4185 16.888 30.4027 17.3218 30.3837 17.7461C30.371 18.1705 30.3552 18.5283 30.3362 18.8196L29.7947 26.6856C29.5794 26.7236 29.3482 26.7426 29.1012 26.7426C28.8225 26.7426 28.585 26.711 28.3887 26.6476L29.3957 13.6896ZM50.7507 22.0021C50.7507 22.9521 50.6018 23.7945 50.3042 24.5291C50.0065 25.2638 49.5632 25.8433 48.9742 26.2676C48.3852 26.6856 47.6568 26.8946 46.7892 26.8946C45.9152 26.8946 45.1868 26.6825 44.6042 26.2581C44.0215 25.8338 43.5845 25.2543 43.2932 24.5196C43.0018 23.7786 42.8562 22.9395 42.8562 22.0021C42.8562 21.0648 43.0018 20.2288 43.2932 19.4941C43.5908 18.7595 44.031 18.18 44.6137 17.7556C45.2027 17.3313 45.9278 17.1191 46.7892 17.1191C47.6695 17.1191 48.401 17.3313 48.9837 17.7556C49.5727 18.18 50.0128 18.7626 50.3042 19.5036C50.6018 20.2383 50.7507 21.0711 50.7507 22.0021ZM44.3097 22.0021C44.3097 22.6355 44.3857 23.2403 44.5377 23.8166C44.6897 24.393 44.9462 24.868 45.3072 25.2416C45.6745 25.609 46.1748 25.7926 46.8082 25.7926C47.4352 25.7926 47.9292 25.609 48.2902 25.2416C48.6512 24.868 48.9077 24.393 49.0597 23.8166C49.2117 23.2403 49.2877 22.6355 49.2877 22.0021C49.2877 21.3815 49.2117 20.783 49.0597 20.2066C48.9077 19.624 48.6512 19.1458 48.2902 18.7721C47.9292 18.3921 47.4352 18.2021 46.8082 18.2021C46.1748 18.2021 45.6745 18.3921 45.3072 18.7721C44.9462 19.1458 44.6897 19.624 44.5377 20.2066C44.3857 20.783 44.3097 21.3815 44.3097 22.0021ZM52.8797 17.9931C52.924 17.8665 53.0032 17.724 53.1172 17.5656C53.2312 17.4073 53.3547 17.2901 53.4877 17.2141C53.8614 17.3471 54.159 17.5593 54.3807 17.8506C54.6024 18.1356 54.7607 18.484 54.8557 18.8956C55.0837 18.427 55.4035 18.0311 55.8152 17.7081C56.2332 17.3788 56.762 17.2141 57.4017 17.2141C57.503 17.2141 57.6265 17.2205 57.7722 17.2331C57.9242 17.2458 58.092 17.2648 58.2757 17.2901C58.2757 17.5118 58.2504 17.7461 58.1997 17.9931C58.1554 18.2338 58.0699 18.446 57.9432 18.6296C57.8355 18.617 57.7247 18.6106 57.6107 18.6106C57.503 18.6043 57.3954 18.6011 57.2877 18.6011C56.667 18.6011 56.173 18.7848 55.8057 19.1521C55.4384 19.5195 55.1597 19.9153 54.9697 20.3396V26.6666C54.786 26.7046 54.5549 26.7236 54.2762 26.7236C53.9912 26.7236 53.7569 26.7046 53.5732 26.6666V19.9406C53.5732 19.4656 53.5004 19.0666 53.3547 18.7436C53.209 18.4143 53.0507 18.1641 52.8797 17.9931ZM66.1997 25.8306C65.7627 26.141 65.2402 26.3975 64.6322 26.6001C64.0242 26.7965 63.3941 26.8946 62.7417 26.8946C61.7981 26.8946 61.0507 26.6666 60.4997 26.2106C59.9551 25.7546 59.5687 25.1561 59.3407 24.4151C59.1127 23.6678 58.9987 22.8603 58.9987 21.9926C58.9987 21.0553 59.1444 20.2193 59.4357 19.4846C59.7334 18.75 60.1641 18.1736 60.7277 17.7556C61.2977 17.3313 61.9881 17.1191 62.7987 17.1191C63.6094 17.1191 64.2871 17.3028 64.8317 17.6701C65.3764 18.0311 65.7849 18.5188 66.0572 19.1331C66.3296 19.7475 66.4657 20.4283 66.4657 21.1756C66.4657 21.6 66.4372 22.0211 66.3802 22.4391H60.4902C60.5219 23.3828 60.7151 24.1555 61.0697 24.7571C61.4307 25.3588 62.0514 25.6596 62.9317 25.6596C63.4384 25.6596 63.9197 25.5836 64.3757 25.4316C64.8381 25.2796 65.2751 25.0865 65.6867 24.8521C65.8197 24.9725 65.9337 25.1276 66.0287 25.3176C66.1237 25.5076 66.1807 25.6786 66.1997 25.8306ZM62.7987 18.2021C62.0831 18.2021 61.5289 18.4903 61.1362 19.0666C60.7436 19.6366 60.5282 20.3998 60.4902 21.3561H65.0407V21.0901C65.0407 20.5645 64.9647 20.0831 64.8127 19.6461C64.6671 19.2091 64.4296 18.8608 64.1002 18.6011C63.7709 18.3351 63.3371 18.2021 62.7987 18.2021ZM77.5267 17.3281C77.571 17.5245 77.5932 17.705 77.5932 17.8696C77.5932 18.0533 77.571 18.2338 77.5267 18.4111L75.1232 18.3826V24.7951C75.1232 25.0231 75.177 25.21 75.2847 25.3556C75.3987 25.5013 75.595 25.5741 75.8737 25.5741H77.3177C77.3937 25.7831 77.4317 26.0365 77.4317 26.3341C77.4317 26.3848 77.4317 26.4355 77.4317 26.4861C77.4317 26.5368 77.4254 26.5843 77.4127 26.6286C77.115 26.6666 76.811 26.6951 76.5007 26.7141C76.1904 26.7331 75.8515 26.7426 75.4842 26.7426C74.9522 26.7426 74.5279 26.6096 74.2112 26.3436C73.9009 26.0713 73.7457 25.6786 73.7457 25.1656V18.3921L72.4062 18.4111C72.3682 18.2338 72.3492 18.0533 72.3492 17.8696C72.3492 17.705 72.3682 17.5245 72.4062 17.3281L73.7457 17.3471V15.3616C73.7457 15.0513 73.79 14.8138 73.8787 14.6491C73.9737 14.4845 74.1795 14.4021 74.4962 14.4021H75.0092L75.1232 14.5256V17.3566L77.5267 17.3281ZM86.8024 22.0021C86.8024 22.9521 86.6536 23.7945 86.3559 24.5291C86.0583 25.2638 85.6149 25.8433 85.0259 26.2676C84.4369 26.6856 83.7086 26.8946 82.8409 26.8946C81.9669 26.8946 81.2386 26.6825 80.6559 26.2581C80.0733 25.8338 79.6363 25.2543 79.3449 24.5196C79.0536 23.7786 78.9079 22.9395 78.9079 22.0021C78.9079 21.0648 79.0536 20.2288 79.3449 19.4941C79.6426 18.7595 80.0828 18.18 80.6654 17.7556C81.2544 17.3313 81.9796 17.1191 82.8409 17.1191C83.7213 17.1191 84.4528 17.3313 85.0354 17.7556C85.6244 18.18 86.0646 18.7626 86.3559 19.5036C86.6536 20.2383 86.8024 21.0711 86.8024 22.0021ZM80.3614 22.0021C80.3614 22.6355 80.4374 23.2403 80.5894 23.8166C80.7414 24.393 80.9979 24.868 81.3589 25.2416C81.7263 25.609 82.2266 25.7926 82.8599 25.7926C83.4869 25.7926 83.9809 25.609 84.3419 25.2416C84.7029 24.868 84.9594 24.393 85.1114 23.8166C85.2634 23.2403 85.3394 22.6355 85.3394 22.0021C85.3394 21.3815 85.2634 20.783 85.1114 20.2066C84.9594 19.624 84.7029 19.1458 84.3419 18.7721C83.9809 18.3921 83.4869 18.2021 82.8599 18.2021C82.2266 18.2021 81.7263 18.3921 81.3589 18.7721C80.9979 19.1458 80.7414 19.624 80.5894 20.2066C80.4374 20.783 80.3614 21.3815 80.3614 22.0021ZM98.7018 20.6436C98.7208 20.2763 98.6764 19.909 98.5688 19.5416C98.4611 19.168 98.2584 18.8576 97.9608 18.6106C97.6631 18.3636 97.2483 18.2401 96.7163 18.2401C96.0259 18.2401 95.4686 18.5663 95.0443 19.2186C94.6199 19.871 94.4078 20.8241 94.4078 22.0781C94.4078 23.2941 94.6231 24.1998 95.0538 24.7951C95.4844 25.3841 96.0766 25.6786 96.8303 25.6786C97.2989 25.6786 97.7328 25.571 98.1318 25.3556C98.5371 25.134 98.9139 24.8901 99.2623 24.6241C99.4016 24.7128 99.5378 24.8426 99.6708 25.0136C99.8101 25.1846 99.8988 25.3556 99.9368 25.5266C99.4998 25.9383 99.0089 26.2708 98.4643 26.5241C97.9196 26.7711 97.3116 26.8946 96.6403 26.8946C95.9626 26.8946 95.3863 26.7585 94.9113 26.4861C94.4426 26.2138 94.0626 25.8465 93.7713 25.3841C93.4799 24.9218 93.2678 24.4056 93.1348 23.8356C93.0018 23.2656 92.9353 22.6798 92.9353 22.0781C92.9353 20.9318 93.1158 19.9945 93.4768 19.2661C93.8441 18.5315 94.3191 17.99 94.9018 17.6416C95.4844 17.2933 96.1019 17.1191 96.7543 17.1191C97.3559 17.1191 97.8658 17.211 98.2838 17.3946C98.7081 17.5783 99.0469 17.8126 99.3003 18.0976C99.5599 18.3763 99.7499 18.6708 99.8703 18.9811C99.9906 19.2915 100.051 19.5701 100.051 19.8171C100.051 20.0641 100.003 20.2763 99.9083 20.4536C99.8133 20.6246 99.6106 20.7101 99.3003 20.7101C99.1166 20.7101 98.9171 20.688 98.7018 20.6436ZM109.662 22.0021C109.662 22.9521 109.513 23.7945 109.215 24.5291C108.918 25.2638 108.474 25.8433 107.885 26.2676C107.296 26.6856 106.568 26.8946 105.7 26.8946C104.826 26.8946 104.098 26.6825 103.515 26.2581C102.933 25.8338 102.496 25.2543 102.204 24.5196C101.913 23.7786 101.767 22.9395 101.767 22.0021C101.767 21.0648 101.913 20.2288 102.204 19.4941C102.502 18.7595 102.942 18.18 103.525 17.7556C104.114 17.3313 104.839 17.1191 105.7 17.1191C106.581 17.1191 107.312 17.3313 107.895 17.7556C108.484 18.18 108.924 18.7626 109.215 19.5036C109.513 20.2383 109.662 21.0711 109.662 22.0021ZM103.221 22.0021C103.221 22.6355 103.297 23.2403 103.449 23.8166C103.601 24.393 103.857 24.868 104.218 25.2416C104.586 25.609 105.086 25.7926 105.719 25.7926C106.346 25.7926 106.84 25.609 107.201 25.2416C107.562 24.868 107.819 24.393 107.971 23.8166C108.123 23.2403 108.199 22.6355 108.199 22.0021C108.199 21.3815 108.123 20.783 107.971 20.2066C107.819 19.624 107.562 19.1458 107.201 18.7721C106.84 18.3921 106.346 18.2021 105.719 18.2021C105.086 18.2021 104.586 18.3921 104.218 18.7721C103.857 19.1458 103.601 19.624 103.449 20.2066C103.297 20.783 103.221 21.3815 103.221 22.0021ZM117.491 20.5866C117.491 19.833 117.393 19.2883 117.196 18.9526C117.006 18.617 116.677 18.4491 116.208 18.4491C115.809 18.4491 115.379 18.5821 114.916 18.8481C114.46 19.1078 114.058 19.4656 113.71 19.9216V26.6666C113.526 26.7046 113.295 26.7236 113.016 26.7236C112.731 26.7236 112.497 26.7046 112.313 26.6666V17.4231L112.427 17.2901H112.95C113.273 17.2901 113.479 17.3756 113.567 17.5466C113.662 17.7113 113.71 17.952 113.71 18.2686V18.5441C114.096 18.1135 114.533 17.7778 115.021 17.5371C115.515 17.2965 116.009 17.1761 116.503 17.1761C117.054 17.1761 117.504 17.3091 117.852 17.5751C118.2 17.8411 118.46 18.1895 118.631 18.6201C119.093 18.1831 119.584 17.8348 120.103 17.5751C120.623 17.3091 121.158 17.1761 121.709 17.1761C122.26 17.1761 122.71 17.3091 123.058 17.5751C123.413 17.8411 123.672 18.1958 123.837 18.6391C124.008 19.0825 124.093 19.5733 124.093 20.1116V24.8616C124.093 25.172 124.106 25.4665 124.131 25.7451C124.163 26.0238 124.223 26.2676 124.312 26.4766C124.09 26.6793 123.796 26.7806 123.428 26.7806C123.162 26.7806 122.972 26.7046 122.858 26.5526C122.744 26.4006 122.687 26.1695 122.687 25.8591V20.5676C122.687 19.814 122.589 19.2725 122.393 18.9431C122.203 18.6138 121.874 18.4491 121.405 18.4491C121.012 18.4491 120.588 18.5758 120.132 18.8291C119.676 19.0825 119.261 19.4435 118.887 19.9121C118.894 19.9755 118.897 20.0388 118.897 20.1021V26.6666C118.713 26.7046 118.482 26.7236 118.203 26.7236C117.912 26.7236 117.675 26.7046 117.491 26.6666V20.5866ZM133.85 25.8306C133.413 26.141 132.891 26.3975 132.283 26.6001C131.675 26.7965 131.044 26.8946 130.392 26.8946C129.448 26.8946 128.701 26.6666 128.15 26.2106C127.605 25.7546 127.219 25.1561 126.991 24.4151C126.763 23.6678 126.649 22.8603 126.649 21.9926C126.649 21.0553 126.795 20.2193 127.086 19.4846C127.384 18.75 127.814 18.1736 128.378 17.7556C128.948 17.3313 129.638 17.1191 130.449 17.1191C131.26 17.1191 131.937 17.3028 132.482 17.6701C133.027 18.0311 133.435 18.5188 133.708 19.1331C133.98 19.7475 134.116 20.4283 134.116 21.1756C134.116 21.6 134.088 22.0211 134.031 22.4391H128.141C128.172 23.3828 128.365 24.1555 128.72 24.7571C129.081 25.3588 129.702 25.6596 130.582 25.6596C131.089 25.6596 131.57 25.5836 132.026 25.4316C132.488 25.2796 132.925 25.0865 133.337 24.8521C133.47 24.9725 133.584 25.1276 133.679 25.3176C133.774 25.5076 133.831 25.6786 133.85 25.8306ZM130.449 18.2021C129.733 18.2021 129.179 18.4903 128.787 19.0666C128.394 19.6366 128.179 20.3998 128.141 21.3561H132.691V21.0901C132.691 20.5645 132.615 20.0831 132.463 19.6461C132.317 19.2091 132.08 18.8608 131.751 18.6011C131.421 18.3351 130.987 18.2021 130.449 18.2021Z" fill="#676767"/>
</svg>
