<svg width="187" height="79" viewBox="0 0 187 79" fill="none" xmlns="http://www.w3.org/2000/svg">
<path d="M25.6275 70.2133C23.1513 70.2133 20.6588 70.1807 18.2967 70.0667C16.9283 70.0015 13.6864 68.5516 13.6375 66.0266C13.5561 61.4 13.6212 57.5553 13.6864 53.4989C13.7353 50.5014 13.8004 47.3899 13.8004 43.6756C13.8004 42.1931 14.3706 40.955 15.4295 40.0753C19.0135 37.143 27.8919 38.935 35.0273 40.3686C37.1288 40.7921 39.605 41.2971 41.0875 41.4275C33.7729 29.747 33.6915 23.5728 33.6915 10.8008C32.8769 10.6705 31.2804 10.5564 28.8531 10.5727C26.605 10.589 24.9433 10.7193 24.0799 10.8497C24.0799 11.2406 24.0962 11.6479 24.0962 12.0715C24.1451 15.3296 24.2102 19.386 23.3957 23.9963C23.2654 24.7131 22.5974 25.1856 21.8807 25.0552C21.1639 24.9249 20.6914 24.257 20.8217 23.5402C21.5874 19.1742 21.5223 15.2482 21.4734 12.104C21.4571 11.3384 21.4571 10.6216 21.4571 9.93737C21.4571 8.45491 23.2654 8.27571 24.699 8.14538C25.9371 8.03135 27.615 7.96619 29.2767 7.96619C30.8569 7.96619 32.3068 8.03135 33.3494 8.12909C34.4408 8.24313 36.2817 8.43862 36.2817 9.93737V10.2958C36.2817 23.6216 36.2817 29.1442 43.8895 40.9876C44.5574 42.0465 44.2479 42.7959 44.0035 43.1706C43.0587 44.539 40.8268 44.1806 34.506 42.9099C28.6087 41.7207 19.714 39.9287 17.0749 42.0791C16.6024 42.4538 16.4069 42.9425 16.4069 43.6593C16.4069 47.3899 16.3581 50.5014 16.2929 53.5152C16.2277 57.5553 16.1463 61.3674 16.244 65.9451C16.2603 66.5479 17.8242 67.395 18.427 67.4439C23.1839 67.6719 28.5436 67.5742 33.2679 67.509C35.4346 67.4764 37.4872 67.4439 39.3281 67.4439C39.8657 67.3135 41.3318 66.3198 41.674 65.8148V57.1807C41.674 56.4639 42.2604 55.8774 42.9772 55.8774C43.694 55.8774 44.2805 56.4639 44.2805 57.1807V65.9777C44.2805 66.3198 44.2805 67.3298 42.2441 68.7797C41.7228 69.1544 40.3707 70.0504 39.3932 70.0504C37.5524 70.0504 35.4997 70.083 33.3168 70.1155C30.8569 70.1807 28.2503 70.2133 25.6275 70.2133Z" fill="#C1272D"/>
<path d="M24.8456 23.8172C24.8456 23.0352 25.204 22.3673 25.9371 21.8297C26.6376 21.3084 27.4847 21.0477 28.4621 21.0477H29.7654C30.5474 21.0477 31.313 21.2269 32.0624 21.6016C32.3719 21.7645 32.6163 21.9274 32.7955 22.1066L31.085 23.4099C30.808 23.0189 30.417 22.7908 29.9446 22.742C29.8794 22.7257 29.8306 22.7257 29.7654 22.7257H28.4621C27.8268 22.7257 27.3544 22.9049 27.0285 23.2633C26.8819 23.4425 26.8168 23.6217 26.8168 23.8172C26.8168 24.143 27.1752 24.4362 27.8757 24.6643C28.1037 24.7457 28.4621 24.8435 28.9997 24.9901C30.2704 25.3159 31.1664 25.6417 31.6714 25.9513C32.5023 26.4563 32.9258 27.1242 32.9258 27.955C32.9258 28.7207 32.5511 29.3886 31.8017 29.9262C31.0687 30.4475 30.189 30.7082 29.1789 30.7082H27.8757C27.0448 30.7082 26.2629 30.529 25.4809 30.1543C25.1551 29.9914 24.9107 29.8285 24.7153 29.6493L26.3932 28.346C26.6864 28.7207 27.11 28.9325 27.6476 29.0139C27.7291 29.0302 27.8105 29.0302 27.8757 29.0302H29.1789C29.8631 29.0302 30.3844 28.851 30.7266 28.4763C30.8732 28.3134 30.9546 28.1342 30.9546 27.9387C30.9546 27.564 30.5962 27.2545 29.8957 27.0102C29.798 26.9613 29.1789 26.7984 28.0549 26.4889C26.7516 26.1467 25.8719 25.7232 25.3995 25.2345C25.0248 24.8598 24.8456 24.3711 24.8456 23.8172Z" fill="#C1272D"/>
<path d="M29.4722 45.5165H28.1689C27.11 45.5165 26.214 45.1418 25.4809 44.3924C24.7804 43.6756 24.422 42.8285 24.422 41.8348V39.2608C24.422 38.2182 24.7967 37.3548 25.5461 36.6217C26.2792 35.9212 27.1589 35.5791 28.1689 35.5791H29.4722C30.5311 35.5791 31.4271 35.9538 32.1601 36.7032C32.8606 37.42 33.219 38.2671 33.219 39.2608V41.8348C33.219 42.8774 32.8444 43.7408 32.095 44.4739C31.3619 45.1744 30.4822 45.5165 29.4722 45.5165ZM28.1852 43.8386H29.4885C30.0749 43.8386 30.5474 43.5779 30.9057 43.0566C31.1501 42.6982 31.2804 42.2909 31.2804 41.8511V39.2771C31.2804 38.6092 31.0361 38.0716 30.5474 37.6806C30.2378 37.42 29.8794 37.2896 29.4885 37.2896H28.1852C27.5987 37.2896 27.1263 37.5503 26.7679 38.0716C26.5072 38.43 26.3932 38.8373 26.3932 39.2934V41.8674C26.3932 42.5353 26.6376 43.0566 27.11 43.4639C27.4358 43.7082 27.7942 43.8386 28.1852 43.8386Z" fill="#C1272D"/>
<path d="M24.8456 53.1406C24.8456 52.3587 25.204 51.6908 25.9371 51.1532C26.6376 50.6319 27.4847 50.3712 28.4621 50.3712H29.7654C30.5474 50.3712 31.313 50.5504 32.0624 50.9251C32.3719 51.088 32.6163 51.2509 32.7955 51.4301L31.085 52.7334C30.808 52.3424 30.417 52.1143 29.9446 52.0655C29.8794 52.0492 29.8306 52.0492 29.7654 52.0492H28.4621C27.8268 52.0492 27.3544 52.2284 27.0285 52.5868C26.8819 52.766 26.8168 52.9452 26.8168 53.1406C26.8168 53.4665 27.1752 53.7597 27.8757 53.9878C28.1037 54.0692 28.4621 54.167 28.9997 54.3136C30.2704 54.6394 31.1664 54.9652 31.6714 55.2747C32.5023 55.7797 32.9258 56.4477 32.9258 57.2785C32.9258 58.0442 32.5511 58.7121 31.8017 59.2497C31.0687 59.771 30.189 60.0316 29.1789 60.0316H27.8757C27.0448 60.0316 26.2629 59.8524 25.4809 59.4777C25.1551 59.3148 24.9107 59.1519 24.7153 58.9727L26.3932 57.6695C26.6864 58.0442 27.11 58.2559 27.6476 58.3374C27.7291 58.3537 27.8105 58.3537 27.8757 58.3537H29.1789C29.8631 58.3537 30.3844 58.1745 30.7266 57.7998C30.8732 57.6369 30.9546 57.4577 30.9546 57.2622C30.9546 56.8875 30.5962 56.578 29.8957 56.3336C29.798 56.2848 29.1789 56.1218 28.0549 55.8123C26.7516 55.4702 25.8719 55.0467 25.3995 54.5579C25.0248 54.1832 24.8456 53.6945 24.8456 53.1406Z" fill="#C1272D"/>
<path d="M61.4927 50.6404C60.4132 50.6404 59.3752 50.4674 58.3787 50.1214C57.3961 49.7754 56.6349 49.3187 56.0951 48.7512L56.6972 47.5679C57.2231 48.0938 57.922 48.5229 58.7939 48.855C59.6658 49.1733 60.5654 49.3325 61.4927 49.3325C62.7937 49.3325 63.7694 49.0972 64.4199 48.6267C65.0703 48.1423 65.3956 47.5195 65.3956 46.7583C65.3956 46.177 65.2157 45.7134 64.8558 45.3674C64.5098 45.0214 64.0808 44.7584 63.5687 44.5785C63.0566 44.3847 62.3439 44.1771 61.4304 43.9557C60.3371 43.6789 59.4652 43.4159 58.8147 43.1668C58.1642 42.9038 57.6037 42.5094 57.1331 41.9835C56.6764 41.4576 56.448 40.7448 56.448 39.8452C56.448 39.1117 56.6418 38.4474 57.0293 37.8523C57.4168 37.2433 58.012 36.7589 58.8147 36.3991C59.6174 36.0392 60.6139 35.8593 61.8041 35.8593C62.6345 35.8593 63.4441 35.9769 64.233 36.2122C65.0357 36.4337 65.7277 36.7451 66.309 37.1464L65.79 38.3712C65.1811 37.9699 64.5306 37.6723 63.8386 37.4786C63.1466 37.271 62.4684 37.1672 61.8041 37.1672C60.5308 37.1672 59.569 37.4163 58.9185 37.9145C58.2818 38.3989 57.9635 39.0286 57.9635 39.8037C57.9635 40.385 58.1365 40.8555 58.4825 41.2154C58.8424 41.5614 59.2852 41.8312 59.8112 42.025C60.3509 42.2049 61.0706 42.4056 61.9702 42.627C63.0359 42.89 63.8939 43.153 64.5444 43.4159C65.2087 43.665 65.7693 44.0526 66.226 44.5785C66.6827 45.0906 66.9111 45.7895 66.9111 46.6752C66.9111 47.4087 66.7104 48.08 66.309 48.6889C65.9215 49.2841 65.3195 49.7615 64.5029 50.1214C63.6863 50.4674 62.6829 50.6404 61.4927 50.6404Z" fill="black"/>
<path d="M74.3895 39.513C75.815 39.513 76.9084 39.8729 77.6696 40.5926C78.4308 41.2984 78.8114 42.3502 78.8114 43.7481V50.5158H77.3997V48.8135C77.0675 49.3809 76.5762 49.8238 75.9257 50.1421C75.2891 50.4605 74.5279 50.6196 73.6421 50.6196C72.4242 50.6196 71.4554 50.329 70.7358 49.7477C70.0161 49.1664 69.6562 48.3983 69.6562 47.4433C69.6562 46.5161 69.9884 45.7687 70.6527 45.2013C71.3309 44.6338 72.4035 44.3501 73.8705 44.3501H77.3374V43.6858C77.3374 42.7447 77.0745 42.0319 76.5485 41.5475C76.0226 41.0493 75.2545 40.8002 74.2442 40.8002C73.5522 40.8002 72.8879 40.9178 72.2512 41.1531C71.6146 41.3745 71.0679 41.6859 70.6112 42.0873L69.9469 40.987C70.5005 40.5164 71.1648 40.1566 71.9398 39.9075C72.7149 39.6445 73.5314 39.513 74.3895 39.513ZM73.8705 49.4571C74.7009 49.4571 75.4137 49.2702 76.0088 48.8965C76.6039 48.509 77.0468 47.9554 77.3374 47.2357V45.4504H73.912C72.0436 45.4504 71.1094 46.1009 71.1094 47.4018C71.1094 48.0385 71.3516 48.5436 71.836 48.9173C72.3204 49.2771 72.9986 49.4571 73.8705 49.4571Z" fill="black"/>
<path d="M97.0561 39.513C98.4263 39.513 99.4989 39.9075 100.274 40.6964C101.063 41.4852 101.457 42.6478 101.457 44.184V50.5158H99.9833V44.3294C99.9833 43.1945 99.7065 42.3295 99.1529 41.7344C98.6131 41.1392 97.845 40.8417 96.8485 40.8417C95.7136 40.8417 94.821 41.1946 94.1705 41.9004C93.52 42.5924 93.1948 43.5543 93.1948 44.7861V50.5158H91.7208V44.3294C91.7208 43.1945 91.444 42.3295 90.8904 41.7344C90.3507 41.1392 89.5756 40.8417 88.5653 40.8417C87.4443 40.8417 86.5516 41.1946 85.8873 41.9004C85.2368 42.5924 84.9116 43.5543 84.9116 44.7861V50.5158H83.4376V39.5961H84.8493V41.589C85.2368 40.9247 85.7765 40.4126 86.4685 40.0528C87.1605 39.693 87.9563 39.513 88.8559 39.513C89.7694 39.513 90.5583 39.7068 91.2226 40.0943C91.9007 40.4818 92.4059 41.0562 92.7381 41.8174C93.1394 41.0977 93.7138 40.5372 94.4611 40.1358C95.2223 39.7206 96.0873 39.513 97.0561 39.513Z" fill="black"/>
<path d="M111.703 39.513C112.727 39.513 113.655 39.7483 114.485 40.2189C115.315 40.6756 115.966 41.3261 116.437 42.1703C116.907 43.0146 117.142 43.9764 117.142 45.056C117.142 46.1355 116.907 47.0973 116.437 47.9416C115.966 48.7858 115.315 49.4432 114.485 49.9138C113.655 50.3843 112.727 50.6196 111.703 50.6196C110.79 50.6196 109.966 50.4259 109.233 50.0383C108.513 49.6508 107.932 49.0903 107.489 48.3568V50.5158H106.077V35.1119H107.551V41.6721C108.008 40.9662 108.589 40.4334 109.295 40.0736C110.015 39.6999 110.817 39.513 111.703 39.513ZM111.599 49.3117C112.361 49.3117 113.053 49.1387 113.675 48.7927C114.298 48.4329 114.783 47.9277 115.129 47.2773C115.488 46.6268 115.668 45.8864 115.668 45.056C115.668 44.2256 115.488 43.4851 115.129 42.8346C114.783 42.1842 114.298 41.6859 113.675 41.3399C113.053 40.9801 112.361 40.8002 111.599 40.8002C110.824 40.8002 110.125 40.9801 109.503 41.3399C108.894 41.6859 108.409 42.1842 108.049 42.8346C107.703 43.4851 107.53 44.2256 107.53 45.056C107.53 45.8864 107.703 46.6268 108.049 47.2773C108.409 47.9277 108.894 48.4329 109.503 48.7927C110.125 49.1387 110.824 49.3117 111.599 49.3117Z" fill="black"/>
<path d="M124.529 39.513C125.954 39.513 127.048 39.8729 127.809 40.5926C128.57 41.2984 128.951 42.3502 128.951 43.7481V50.5158H127.539V48.8135C127.207 49.3809 126.716 49.8238 126.065 50.1421C125.428 50.4605 124.667 50.6196 123.781 50.6196C122.564 50.6196 121.595 50.329 120.875 49.7477C120.155 49.1664 119.796 48.3983 119.796 47.4433C119.796 46.5161 120.128 45.7687 120.792 45.2013C121.47 44.6338 122.543 44.3501 124.01 44.3501H127.477V43.6858C127.477 42.7447 127.214 42.0319 126.688 41.5475C126.162 41.0493 125.394 40.8002 124.384 40.8002C123.692 40.8002 123.027 40.9178 122.391 41.1531C121.754 41.3745 121.207 41.6859 120.751 42.0873L120.086 40.987C120.64 40.5164 121.304 40.1566 122.079 39.9075C122.854 39.6445 123.671 39.513 124.529 39.513ZM124.01 49.4571C124.84 49.4571 125.553 49.2702 126.148 48.8965C126.743 48.509 127.186 47.9554 127.477 47.2357V45.4504H124.051C122.183 45.4504 121.249 46.1009 121.249 47.4018C121.249 48.0385 121.491 48.5436 121.975 48.9173C122.46 49.2771 123.138 49.4571 124.01 49.4571Z" fill="black"/>
<path d="M133.577 35.1119H135.051V50.5158H133.577V35.1119Z" fill="black"/>
<path d="M150.149 50.6404C149.07 50.6404 148.032 50.4674 147.035 50.1214C146.052 49.7754 145.291 49.3187 144.751 48.7512L145.353 47.5679C145.879 48.0938 146.578 48.5229 147.45 48.855C148.322 49.1733 149.222 49.3325 150.149 49.3325C151.45 49.3325 152.426 49.0972 153.076 48.6267C153.727 48.1423 154.052 47.5195 154.052 46.7583C154.052 46.177 153.872 45.7134 153.512 45.3674C153.166 45.0214 152.737 44.7584 152.225 44.5785C151.713 44.3847 151 44.1771 150.087 43.9557C148.993 43.6789 148.121 43.4159 147.471 43.1668C146.821 42.9038 146.26 42.5094 145.789 41.9835C145.333 41.4576 145.104 40.7448 145.104 39.8452C145.104 39.1117 145.298 38.4474 145.686 37.8523C146.073 37.2433 146.668 36.7589 147.471 36.3991C148.274 36.0392 149.27 35.8593 150.46 35.8593C151.291 35.8593 152.1 35.9769 152.889 36.2122C153.692 36.4337 154.384 36.7451 154.965 37.1464L154.446 38.3712C153.837 37.9699 153.187 37.6723 152.495 37.4786C151.803 37.271 151.125 37.1672 150.46 37.1672C149.187 37.1672 148.225 37.4163 147.575 37.9145C146.938 38.3989 146.62 39.0286 146.62 39.8037C146.62 40.385 146.793 40.8555 147.139 41.2154C147.499 41.5614 147.942 41.8312 148.467 42.025C149.007 42.2049 149.727 42.4056 150.627 42.627C151.692 42.89 152.55 43.153 153.201 43.4159C153.865 43.665 154.426 44.0526 154.882 44.5785C155.339 45.0906 155.567 45.7895 155.567 46.6752C155.567 47.4087 155.367 48.08 154.965 48.6889C154.578 49.2841 153.976 49.7615 153.159 50.1214C152.343 50.4674 151.339 50.6404 150.149 50.6404Z" fill="black"/>
<path d="M165.89 50.6404C164.451 50.6404 163.143 50.3221 161.966 49.6854C160.804 49.0349 159.89 48.1492 159.226 47.0281C158.576 45.9071 158.25 44.6477 158.25 43.2498C158.25 41.852 158.576 40.5926 159.226 39.4715C159.89 38.3505 160.804 37.4717 161.966 36.835C163.143 36.1845 164.451 35.8593 165.89 35.8593C167.329 35.8593 168.623 36.1776 169.772 36.8143C170.935 37.4509 171.848 38.3367 172.512 39.4715C173.177 40.5926 173.509 41.852 173.509 43.2498C173.509 44.6477 173.177 45.914 172.512 47.0489C171.848 48.1699 170.935 49.0488 169.772 49.6854C168.623 50.3221 167.329 50.6404 165.89 50.6404ZM165.89 49.2702C167.039 49.2702 168.077 49.0142 169.004 48.5021C169.931 47.9762 170.658 47.2565 171.184 46.3431C171.71 45.4158 171.973 44.3847 171.973 43.2498C171.973 42.115 171.71 41.0908 171.184 40.1774C170.658 39.2501 169.931 38.5304 169.004 38.0183C168.077 37.4924 167.039 37.2295 165.89 37.2295C164.741 37.2295 163.696 37.4924 162.755 38.0183C161.828 38.5304 161.094 39.2501 160.555 40.1774C160.029 41.0908 159.766 42.115 159.766 43.2498C159.766 44.3847 160.029 45.4158 160.555 46.3431C161.094 47.2565 161.828 47.9762 162.755 48.5021C163.696 49.0142 164.741 49.2702 165.89 49.2702Z" fill="black"/>
<path d="M181.582 50.6404C180.502 50.6404 179.464 50.4674 178.468 50.1214C177.485 49.7754 176.724 49.3187 176.184 48.7512L176.786 47.5679C177.312 48.0938 178.011 48.5229 178.883 48.855C179.755 49.1733 180.654 49.3325 181.582 49.3325C182.883 49.3325 183.858 49.0972 184.509 48.6267C185.159 48.1423 185.485 47.5195 185.485 46.7583C185.485 46.177 185.305 45.7134 184.945 45.3674C184.599 45.0214 184.17 44.7584 183.658 44.5785C183.146 44.3847 182.433 44.1771 181.519 43.9557C180.426 43.6789 179.554 43.4159 178.904 43.1668C178.253 42.9038 177.693 42.5094 177.222 41.9835C176.765 41.4576 176.537 40.7448 176.537 39.8452C176.537 39.1117 176.731 38.4474 177.118 37.8523C177.506 37.2433 178.101 36.7589 178.904 36.3991C179.706 36.0392 180.703 35.8593 181.893 35.8593C182.724 35.8593 183.533 35.9769 184.322 36.2122C185.125 36.4337 185.817 36.7451 186.398 37.1464L185.879 38.3712C185.27 37.9699 184.62 37.6723 183.928 37.4786C183.236 37.271 182.557 37.1672 181.893 37.1672C180.62 37.1672 179.658 37.4163 179.007 37.9145C178.371 38.3989 178.053 39.0286 178.053 39.8037C178.053 40.385 178.226 40.8555 178.572 41.2154C178.931 41.5614 179.374 41.8312 179.9 42.025C180.44 42.2049 181.16 42.4056 182.059 42.627C183.125 42.89 183.983 43.153 184.633 43.4159C185.298 43.665 185.858 44.0526 186.315 44.5785C186.772 45.0906 187 45.7895 187 46.6752C187 47.4087 186.799 48.08 186.398 48.6889C186.01 49.2841 185.408 49.7615 184.592 50.1214C183.775 50.4674 182.772 50.6404 181.582 50.6404Z" fill="black"/>
</svg>
