<svg width="162" height="40" viewBox="0 0 162 40" fill="none" xmlns="http://www.w3.org/2000/svg">
<rect x="0.25" y="0.25" width="161.5" height="39.5" stroke="#676767" stroke-width="0.5"/>
<path d="M46.42 15.1526H47.655V13.8796H49.764V15.4376H51.037V13.8796H53.279V12.6446H51.037V10.7636H49.764V12.6446H47.655V10.7636H46.42V12.6446H43.988V13.8796H46.42V15.1526ZM58.409 15.6466C58.086 18.1166 57.573 20.1876 56.737 21.9166C55.92 20.2636 55.35 18.3256 54.97 16.2546C55.027 16.0456 55.103 15.8556 55.179 15.6466H58.409ZM48.453 20.1686V23.2466H46.268V20.1686H48.453ZM61.088 15.6466V14.3166H55.597C55.901 13.2716 56.129 12.1696 56.338 11.0486L54.913 10.8396C54.476 13.5566 53.735 16.1406 52.557 18.0026L52.595 16.9956V16.3306H46.914C47.028 16.0076 47.142 15.6656 47.237 15.3426L45.888 15.0386C45.413 16.7486 44.577 18.4586 43.513 19.5606C43.817 19.7696 44.387 20.2066 44.615 20.4346C44.805 20.2256 44.976 19.9976 45.147 19.7696V25.3936H46.268V24.3486H49.574V19.0286H45.641C45.907 18.5536 46.192 18.0596 46.42 17.5276H51.227C51.018 23.7216 50.714 25.9826 50.239 26.5146C50.087 26.7616 49.916 26.7996 49.593 26.7996C49.251 26.7996 48.51 26.7996 47.674 26.7236C47.883 27.0656 48.035 27.5976 48.054 27.9776C48.89 28.0346 49.707 28.0346 50.163 27.9966C50.714 27.9396 51.094 27.7876 51.417 27.3316C51.968 26.6476 52.234 24.6336 52.5 19.1046C52.747 19.3136 52.994 19.5416 53.127 19.6936C53.469 19.2376 53.792 18.7436 54.077 18.1926C54.552 20.1116 55.141 21.8406 55.939 23.3226C54.913 24.8426 53.545 26.0206 51.683 26.8756C51.949 27.1796 52.386 27.8256 52.519 28.1486C54.286 27.2366 55.654 26.0966 56.718 24.6716C57.706 26.1156 58.922 27.2936 60.423 28.0916C60.632 27.7306 61.088 27.1796 61.411 26.9136C59.834 26.1536 58.561 24.9186 57.554 23.3796C58.732 21.3276 59.416 18.7816 59.853 15.6466H61.088ZM67.871 13.9936C67.282 13.2336 65.99 12.0556 65.002 11.2196L64.09 12.0556C65.078 12.9486 66.332 14.1836 66.902 14.9816L67.871 13.9936ZM67.054 24.8046V16.7106H62.855V18.0596H65.686V24.9566C65.686 25.7926 65.154 26.3626 64.793 26.5716C65.04 26.8566 65.401 27.4456 65.534 27.7686C65.819 27.4076 66.313 26.9896 69.486 24.5386C69.334 24.2726 69.087 23.7406 68.992 23.3606L67.054 24.8046ZM71.386 24.1586V22.6196H77.314V24.1586H71.386ZM77.314 20.1686V21.6316H71.386V20.1686H77.314ZM78.663 19.0666H70.056V28.1106H71.386V25.1846H77.314V26.5146C77.314 26.7616 77.238 26.8376 76.953 26.8376C76.725 26.8566 75.813 26.8566 74.844 26.8186C75.015 27.1796 75.205 27.6926 75.262 28.0346C76.611 28.0536 77.447 28.0346 77.998 27.8256C78.511 27.6166 78.663 27.2556 78.663 26.5336V19.0666ZM75.034 16.9006V15.5706H79.024V14.5446H75.034V13.3476H79.594V12.2646H75.034V10.7826H73.647V12.2646H69.277V13.3476H73.647V14.5446H69.733V15.5706H73.647V16.9006H68.707V17.9836H80.145V16.9006H75.034ZM84.933 20.3586H88.372V22.2586H84.933V20.3586ZM88.372 14.5446V16.2166H84.933V14.5446H88.372ZM84.933 17.3566H88.372V19.2186H84.933V17.3566ZM91.07 22.2586H89.683V14.5446H91.07V13.2716H89.683V10.9916H88.372V13.2716H84.933V10.9916H83.641V13.2716H82.045V14.5446H83.641V22.2586H81.798V23.5316H91.07V22.2586ZM84.42 23.9306C83.85 25.1846 82.862 26.4576 81.817 27.3126C82.159 27.5026 82.691 27.9016 82.957 28.1296C84.002 27.1986 85.085 25.7546 85.769 24.2916L84.42 23.9306ZM87.118 24.5196C87.878 25.4126 88.733 26.6476 89.075 27.4076L90.215 26.7426C89.854 25.9636 88.98 24.7856 88.22 23.9306L87.118 24.5196ZM93.293 20.4536C93.312 19.8076 93.331 19.1616 93.331 18.5726V17.2996H97.207V20.4536H93.293ZM97.207 13.0056V16.0266H93.331V13.0056H97.207ZM98.575 11.7136H92.001V18.5726C92.001 21.2896 91.849 24.8996 90.272 27.4076C90.595 27.5216 91.165 27.9586 91.393 28.2246C92.533 26.4006 93.008 23.9876 93.198 21.7266H97.207V26.2866C97.207 26.5906 97.093 26.6856 96.808 26.6856C96.542 26.7046 95.592 26.7046 94.585 26.6856C94.756 27.0466 94.965 27.6546 95.022 28.0536C96.428 28.0536 97.302 28.0156 97.853 27.7876C98.366 27.5596 98.575 27.1416 98.575 26.3056V11.7136ZM104.883 10.8206C104.066 12.1506 102.375 13.7466 100.893 14.7156C101.121 15.0006 101.463 15.5326 101.615 15.8556C103.287 14.7346 105.111 12.9486 106.213 11.3336L104.883 10.8206ZM105.206 14.9816C104.123 16.9386 102.299 18.8766 100.608 20.1116C100.855 20.4536 101.235 21.1756 101.368 21.4986C102.109 20.9096 102.85 20.1876 103.553 19.4086V28.1106H104.921V17.7936C105.491 17.0526 106.023 16.2736 106.441 15.4756L105.206 14.9816ZM107.923 22.7906C108.797 23.7786 109.747 25.2036 110.146 26.1156L111.343 25.4126C110.925 24.5006 109.937 23.1326 109.063 22.1446L107.923 22.7906ZM118.202 18.2306V16.9196H112.901V14.5066H117.214V13.2146H112.901V10.8586H111.514V13.2146H107.353V14.5066H111.514V16.9196H106.251V18.2306H114.155V20.3206H106.46V21.6126H114.155V26.4006C114.155 26.6666 114.06 26.7426 113.756 26.7616C113.471 26.7806 112.426 26.7806 111.286 26.7426C111.476 27.1416 111.685 27.6926 111.742 28.0916C113.224 28.0916 114.174 28.0916 114.763 27.8636C115.352 27.6356 115.542 27.2556 115.542 26.4006V21.6126H118.069V20.3206H115.542V18.2306H118.202Z" fill="#676767"/>
</svg>
