<svg width="162" height="40" viewBox="0 0 162 40" fill="none" xmlns="http://www.w3.org/2000/svg">
<rect x="0.25" y="0.25" width="161.5" height="39.5" stroke="#676767" stroke-width="0.5"/>
<path d="M44.0238 4.73863C44.5784 4.72796 45.1091 4.71729 45.6158 4.70662C46.1224 4.69596 46.6318 4.69063 47.1438 4.69063C47.9544 4.69063 48.6051 4.81329 49.0958 5.05863C49.5918 5.30396 49.9491 5.64529 50.1678 6.08263C50.3918 6.51463 50.5038 7.01063 50.5038 7.57063C50.5038 8.08796 50.3651 8.55196 50.0878 8.96263C49.8104 9.37329 49.4291 9.66663 48.9438 9.84263C49.3171 9.94396 49.6611 10.1253 49.9758 10.3866C50.2958 10.6426 50.5518 10.9653 50.7438 11.3546C50.9358 11.7386 51.0318 12.1706 51.0318 12.6506C51.0318 13.1626 50.9144 13.6533 50.6798 14.1226C50.4504 14.5866 50.0638 14.968 49.5198 15.2666C48.9811 15.5653 48.2478 15.7146 47.3198 15.7146C46.6584 15.7146 46.0824 15.7093 45.5918 15.6986C45.1011 15.688 44.5784 15.6773 44.0238 15.6666L43.9198 15.5706V4.83463L44.0238 4.73863ZM47.1678 5.70663C46.9011 5.70663 46.5704 5.70663 46.1758 5.70663C45.7811 5.70663 45.4398 5.70129 45.1518 5.69063V9.40263H47.1198C47.6958 9.40263 48.1358 9.30663 48.4398 9.11463C48.7438 8.92263 48.9491 8.68529 49.0558 8.40263C49.1678 8.11463 49.2238 7.82929 49.2238 7.54663C49.2238 7.25863 49.1731 6.97329 49.0718 6.69063C48.9704 6.40796 48.7731 6.17329 48.4798 5.98663C48.1864 5.79996 47.7491 5.70663 47.1678 5.70663ZM45.1518 14.7146C45.5251 14.7146 45.9011 14.712 46.2798 14.7066C46.6638 14.7013 47.0424 14.6986 47.4158 14.6986C48.0718 14.6986 48.5651 14.584 48.8958 14.3546C49.2318 14.12 49.4558 13.8373 49.5678 13.5066C49.6851 13.176 49.7438 12.864 49.7438 12.5706C49.7438 12.2826 49.6718 11.9733 49.5278 11.6426C49.3891 11.312 49.1411 11.0293 48.7838 10.7946C48.4264 10.56 47.9198 10.4426 47.2638 10.4426H45.1518V14.7146ZM52.7535 13.5386C52.7535 12.6533 53.0308 12.0026 53.5855 11.5866C54.1402 11.1706 54.8628 10.9626 55.7535 10.9626C56.0202 10.9626 56.3055 10.9733 56.6095 10.9946C56.9188 11.016 57.2175 11.0533 57.5055 11.1066V10.2986C57.5055 9.70663 57.3748 9.28796 57.1135 9.04263C56.8522 8.79196 56.5002 8.66663 56.0575 8.66663C55.6255 8.66663 55.1882 8.73063 54.7455 8.85863C54.3082 8.98663 53.8762 9.14396 53.4495 9.33063C53.3428 9.23996 53.2468 9.10396 53.1615 8.92263C53.0815 8.74129 53.0415 8.56796 53.0415 8.40263C53.4415 8.22663 53.9242 8.05863 54.4895 7.89863C55.0548 7.73863 55.6175 7.65863 56.1775 7.65863C57.0095 7.65863 57.6308 7.88529 58.0415 8.33863C58.4522 8.79196 58.6575 9.45063 58.6575 10.3146V13.6106C58.6575 13.9466 58.6815 14.2426 58.7295 14.4986C58.7828 14.7546 58.9082 14.976 59.1055 15.1626C59.0682 15.2746 58.9988 15.392 58.8975 15.5146C58.7962 15.632 58.6868 15.72 58.5695 15.7786C58.2815 15.672 58.0602 15.5226 57.9055 15.3306C57.7508 15.1386 57.6415 14.912 57.5775 14.6506C57.2842 14.944 56.9242 15.2186 56.4975 15.4746C56.0708 15.7306 55.5935 15.8586 55.0655 15.8586C54.5428 15.8586 54.1108 15.744 53.7695 15.5146C53.4282 15.2853 53.1722 14.9946 53.0015 14.6426C52.8362 14.2853 52.7535 13.9173 52.7535 13.5386ZM53.9535 13.4506C53.9535 13.84 54.0602 14.1706 54.2735 14.4426C54.4922 14.7146 54.8095 14.8506 55.2255 14.8506C55.5882 14.8506 55.9748 14.744 56.3855 14.5306C56.8015 14.3173 57.1748 13.9946 57.5055 13.5626V11.9626C57.2335 11.92 56.9455 11.8906 56.6415 11.8746C56.3428 11.8586 56.0522 11.8506 55.7695 11.8506C55.2095 11.8506 54.7668 11.992 54.4415 12.2746C54.1162 12.552 53.9535 12.944 53.9535 13.4506ZM67.4 14.1466C67.4 14.408 67.4107 14.656 67.432 14.8906C67.4587 15.1253 67.512 15.3306 67.592 15.5066C67.4 15.6773 67.1493 15.7626 66.84 15.7626C66.616 15.7626 66.456 15.6986 66.36 15.5706C66.2693 15.4426 66.224 15.248 66.224 14.9866V10.5466C66.224 9.91729 66.144 9.46129 65.984 9.17863C65.824 8.89063 65.512 8.74663 65.048 8.74663C64.6427 8.74663 64.208 8.86396 63.744 9.09863C63.2853 9.32796 62.9013 9.62129 62.592 9.97863V15.6666C62.4373 15.6986 62.2427 15.7146 62.008 15.7146C61.768 15.7146 61.5707 15.6986 61.416 15.6666V7.86663L61.512 7.77063H61.952C62.224 7.77063 62.3973 7.84263 62.472 7.98663C62.552 8.12529 62.592 8.32796 62.592 8.59463V8.82663C62.9493 8.47996 63.3707 8.20263 63.856 7.99463C64.3467 7.78129 64.8427 7.67463 65.344 7.67463C65.8507 7.67463 66.2533 7.78929 66.552 8.01863C66.8507 8.24263 67.0667 8.54396 67.2 8.92263C67.3333 9.30129 67.4 9.71729 67.4 10.1706V14.1466ZM73.1903 15.3946C72.9396 16.2533 72.6782 16.96 72.4062 17.5146C72.1343 18.0693 71.7956 18.48 71.3903 18.7466C70.9903 19.0186 70.4703 19.1546 69.8303 19.1546C69.6169 19.1546 69.3823 19.1306 69.1263 19.0826C68.8703 19.04 68.6703 18.992 68.5263 18.9386C68.5209 18.7946 68.5449 18.64 68.5983 18.4746C68.6569 18.3093 68.7236 18.1813 68.7983 18.0906C68.9049 18.128 69.0596 18.1626 69.2623 18.1946C69.4703 18.232 69.6649 18.2506 69.8463 18.2506C70.4596 18.2506 70.9103 18.0373 71.1983 17.6106C71.4863 17.184 71.7396 16.6133 71.9583 15.8986L72.0063 15.7306C71.7343 15.7146 71.5236 15.656 71.3743 15.5546C71.2249 15.448 71.1023 15.248 71.0063 14.9546L68.7743 7.90663C69.0729 7.77329 69.3076 7.70663 69.4783 7.70663C69.6169 7.70663 69.7396 7.74396 69.8463 7.81863C69.9529 7.89329 70.0383 8.03996 70.1023 8.25863L71.3663 12.2746C71.4996 12.696 71.6303 13.136 71.7583 13.5946C71.8916 14.048 72.0063 14.4373 72.1023 14.7626C72.1236 14.8373 72.1769 14.8746 72.2623 14.8746L74.2143 7.80263C74.3743 7.77063 74.5583 7.75463 74.7663 7.75463C74.9849 7.75463 75.1796 7.78129 75.3503 7.83463L75.3823 7.89063L73.1903 15.3946ZM76.2535 13.5386C76.2535 12.6533 76.5308 12.0026 77.0855 11.5866C77.6402 11.1706 78.3628 10.9626 79.2535 10.9626C79.5202 10.9626 79.8055 10.9733 80.1095 10.9946C80.4188 11.016 80.7175 11.0533 81.0055 11.1066V10.2986C81.0055 9.70663 80.8748 9.28796 80.6135 9.04263C80.3522 8.79196 80.0002 8.66663 79.5575 8.66663C79.1255 8.66663 78.6882 8.73063 78.2455 8.85863C77.8082 8.98663 77.3762 9.14396 76.9495 9.33063C76.8428 9.23996 76.7468 9.10396 76.6615 8.92263C76.5815 8.74129 76.5415 8.56796 76.5415 8.40263C76.9415 8.22663 77.4242 8.05863 77.9895 7.89863C78.5548 7.73863 79.1175 7.65863 79.6775 7.65863C80.5095 7.65863 81.1308 7.88529 81.5415 8.33863C81.9522 8.79196 82.1575 9.45063 82.1575 10.3146V13.6106C82.1575 13.9466 82.1815 14.2426 82.2295 14.4986C82.2828 14.7546 82.4082 14.976 82.6055 15.1626C82.5682 15.2746 82.4988 15.392 82.3975 15.5146C82.2962 15.632 82.1868 15.72 82.0695 15.7786C81.7815 15.672 81.5602 15.5226 81.4055 15.3306C81.2508 15.1386 81.1415 14.912 81.0775 14.6506C80.7842 14.944 80.4242 15.2186 79.9975 15.4746C79.5708 15.7306 79.0935 15.8586 78.5655 15.8586C78.0428 15.8586 77.6108 15.744 77.2695 15.5146C76.9282 15.2853 76.6722 14.9946 76.5015 14.6426C76.3362 14.2853 76.2535 13.9173 76.2535 13.5386ZM77.4535 13.4506C77.4535 13.84 77.5602 14.1706 77.7735 14.4426C77.9922 14.7146 78.3095 14.8506 78.7255 14.8506C79.0882 14.8506 79.4748 14.744 79.8855 14.5306C80.3015 14.3173 80.6748 13.9946 81.0055 13.5626V11.9626C80.7335 11.92 80.4455 11.8906 80.1415 11.8746C79.8428 11.8586 79.5522 11.8506 79.2695 11.8506C78.7095 11.8506 78.2668 11.992 77.9415 12.2746C77.6162 12.552 77.4535 12.944 77.4535 13.4506ZM86.076 15.6666C85.9213 15.6986 85.7267 15.7146 85.492 15.7146C85.2627 15.7146 85.0707 15.6986 84.916 15.6666V4.00263L85.012 3.90663H85.444C85.7107 3.90663 85.8813 3.97596 85.956 4.11462C86.036 4.24796 86.076 4.44796 86.076 4.71463V11.1386L86.772 11.0986C86.9053 11.0986 87.0227 11.0293 87.124 10.8906L88.836 8.34663C88.9587 8.16529 89.0787 8.02396 89.196 7.92263C89.3187 7.82129 89.5027 7.77063 89.748 7.77063C89.86 7.77063 89.9587 7.77063 90.044 7.77063C90.1293 7.77063 90.2253 7.77596 90.332 7.78663L90.428 7.91463L88.396 10.8906C88.2787 11.0666 88.1533 11.2133 88.02 11.3306C88.3933 11.4 88.6973 11.552 88.932 11.7866C89.172 12.0213 89.3907 12.36 89.588 12.8026L90.22 14.2106C90.3373 14.488 90.46 14.7333 90.588 14.9466C90.716 15.1546 90.8493 15.3066 90.988 15.4026C90.9133 15.4986 90.8013 15.584 90.652 15.6586C90.5027 15.728 90.3507 15.7626 90.196 15.7626C89.9347 15.7626 89.7453 15.688 89.628 15.5386C89.5107 15.3893 89.396 15.1866 89.284 14.9306L88.54 13.2666C88.3373 12.808 88.132 12.4986 87.924 12.3386C87.716 12.1733 87.3853 12.0906 86.932 12.0906C86.724 12.0906 86.4387 12.104 86.076 12.1306V15.6666ZM98.6754 14.7466C98.7447 14.9226 98.7794 15.136 98.7794 15.3866C98.7794 15.4293 98.7767 15.472 98.7714 15.5146C98.7714 15.5573 98.766 15.5973 98.7554 15.6346C98.6007 15.656 98.4087 15.6773 98.1794 15.6986C97.9554 15.72 97.758 15.7306 97.5874 15.7306C97.1874 15.7306 96.862 15.6186 96.6114 15.3946C96.366 15.1653 96.2434 14.8346 96.2434 14.4026V4.00263L96.3394 3.90663H96.7714C97.038 3.90663 97.2087 3.97596 97.2834 4.11462C97.3634 4.24796 97.4034 4.44796 97.4034 4.71463V14.0746C97.4034 14.5226 97.6034 14.7466 98.0034 14.7466H98.6754ZM100.16 13.5386C100.16 12.6533 100.437 12.0026 100.992 11.5866C101.546 11.1706 102.269 10.9626 103.16 10.9626C103.426 10.9626 103.712 10.9733 104.016 10.9946C104.325 11.016 104.624 11.0533 104.912 11.1066V10.2986C104.912 9.70663 104.781 9.28796 104.52 9.04263C104.258 8.79196 103.906 8.66663 103.464 8.66663C103.032 8.66663 102.594 8.73063 102.152 8.85863C101.714 8.98663 101.282 9.14396 100.856 9.33063C100.749 9.23996 100.653 9.10396 100.568 8.92263C100.488 8.74129 100.448 8.56796 100.448 8.40263C100.848 8.22663 101.33 8.05863 101.896 7.89863C102.461 7.73863 103.024 7.65863 103.584 7.65863C104.416 7.65863 105.037 7.88529 105.448 8.33863C105.858 8.79196 106.064 9.45063 106.064 10.3146V13.6106C106.064 13.9466 106.088 14.2426 106.136 14.4986C106.189 14.7546 106.314 14.976 106.512 15.1626C106.474 15.2746 106.405 15.392 106.304 15.5146C106.202 15.632 106.093 15.72 105.976 15.7786C105.688 15.672 105.466 15.5226 105.312 15.3306C105.157 15.1386 105.048 14.912 104.984 14.6506C104.69 14.944 104.33 15.2186 103.904 15.4746C103.477 15.7306 103 15.8586 102.472 15.8586C101.949 15.8586 101.517 15.744 101.176 15.5146C100.834 15.2853 100.578 14.9946 100.408 14.6426C100.242 14.2853 100.16 13.9173 100.16 13.5386ZM101.36 13.4506C101.36 13.84 101.466 14.1706 101.68 14.4426C101.898 14.7146 102.216 14.8506 102.632 14.8506C102.994 14.8506 103.381 14.744 103.792 14.5306C104.208 14.3173 104.581 13.9946 104.912 13.5626V11.9626C104.64 11.92 104.352 11.8906 104.048 11.8746C103.749 11.8586 103.458 11.8506 103.176 11.8506C102.616 11.8506 102.173 11.992 101.848 12.2746C101.522 12.552 101.36 12.944 101.36 13.4506ZM108.066 11.7546C108.066 10.7946 108.218 10.0106 108.522 9.40263C108.826 8.79463 109.205 8.34663 109.658 8.05863C110.117 7.77063 110.578 7.62663 111.042 7.62663C111.549 7.62663 111.983 7.70929 112.346 7.87463C112.709 8.03996 113.026 8.24263 113.298 8.48263C113.373 8.30663 113.477 8.15196 113.61 8.01863C113.749 7.88529 113.925 7.78129 114.138 7.70663C114.261 7.76529 114.37 7.85596 114.466 7.97863C114.567 8.09596 114.639 8.21063 114.682 8.32263C114.485 8.50929 114.359 8.75729 114.306 9.06663C114.258 9.37063 114.234 9.69329 114.234 10.0346V15.0586C114.234 15.8693 114.175 16.5146 114.058 16.9946C113.946 17.4746 113.762 17.872 113.506 18.1866C113.287 18.4586 112.97 18.6933 112.554 18.8906C112.138 19.088 111.639 19.1866 111.058 19.1866C110.567 19.1866 110.087 19.1306 109.618 19.0186C109.154 18.912 108.754 18.7866 108.418 18.6426C108.423 18.4826 108.455 18.3146 108.514 18.1386C108.578 17.9626 108.658 17.8213 108.754 17.7146C109.079 17.8746 109.453 18 109.874 18.0906C110.295 18.1813 110.65 18.2266 110.938 18.2266C111.567 18.2266 112.034 18.1066 112.338 17.8666C112.647 17.632 112.85 17.32 112.946 16.9306C113.047 16.5413 113.098 16.12 113.098 15.6666V14.7466C112.842 15.008 112.517 15.248 112.122 15.4666C111.727 15.6853 111.285 15.7946 110.794 15.7946C109.893 15.7946 109.213 15.4266 108.754 14.6906C108.295 13.9493 108.066 12.9706 108.066 11.7546ZM109.266 11.7626C109.266 12.8293 109.434 13.5973 109.77 14.0666C110.106 14.5306 110.503 14.7626 110.962 14.7626C111.373 14.7626 111.767 14.6506 112.146 14.4266C112.53 14.1973 112.847 13.9146 113.098 13.5786V9.65063C113.098 9.57596 113.101 9.50396 113.106 9.43463C112.839 9.20529 112.538 9.01863 112.202 8.87463C111.871 8.72529 111.538 8.65063 111.202 8.65063C110.855 8.65063 110.535 8.75729 110.242 8.97063C109.949 9.18396 109.711 9.51996 109.53 9.97863C109.354 10.432 109.266 11.0266 109.266 11.7626ZM118.267 15.6666C118.112 15.6986 117.918 15.7146 117.683 15.7146C117.443 15.7146 117.246 15.6986 117.091 15.6666V9.49063C117.091 9.19729 117.043 8.99463 116.947 8.88263C116.851 8.77063 116.678 8.71463 116.427 8.71463H116.275C116.243 8.56529 116.227 8.41863 116.227 8.27463C116.227 8.14663 116.243 7.99996 116.275 7.83463C116.456 7.80796 116.614 7.79196 116.747 7.78663C116.886 7.77596 116.998 7.77063 117.083 7.77063H117.219C117.55 7.77063 117.806 7.87196 117.987 8.07463C118.174 8.27729 118.267 8.55729 118.267 8.91463V15.6666ZM116.587 5.74663C116.587 5.50663 116.627 5.30663 116.707 5.14663C116.782 5.09863 116.888 5.06129 117.027 5.03463C117.166 5.00263 117.296 4.98663 117.419 4.98663C117.531 4.98663 117.662 5.00263 117.811 5.03463C117.96 5.06129 118.067 5.09863 118.131 5.14663C118.211 5.30663 118.251 5.50663 118.251 5.74663C118.251 5.98663 118.211 6.18396 118.131 6.33863C118.072 6.38663 117.966 6.42663 117.811 6.45863C117.662 6.49063 117.531 6.50663 117.419 6.50663C117.296 6.50663 117.166 6.49063 117.027 6.45863C116.888 6.42663 116.782 6.38663 116.707 6.33863C116.627 6.18396 116.587 5.98663 116.587 5.74663ZM40.3238 33.5386C40.3238 32.6533 40.6011 32.0026 41.1558 31.5866C41.7105 31.1706 42.4331 30.9626 43.3238 30.9626C43.5905 30.9626 43.8758 30.9733 44.1798 30.9946C44.4891 31.016 44.7878 31.0533 45.0758 31.1066V30.2986C45.0758 29.7066 44.9451 29.288 44.6838 29.0426C44.4225 28.792 44.0705 28.6666 43.6278 28.6666C43.1958 28.6666 42.7585 28.7306 42.3158 28.8586C41.8785 28.9866 41.4465 29.144 41.0198 29.3306C40.9131 29.24 40.8171 29.104 40.7318 28.9226C40.6518 28.7413 40.6118 28.568 40.6118 28.4026C41.0118 28.2266 41.4945 28.0586 42.0598 27.8986C42.6251 27.7386 43.1878 27.6586 43.7478 27.6586C44.5798 27.6586 45.2011 27.8853 45.6118 28.3386C46.0225 28.792 46.2278 29.4506 46.2278 30.3146V33.6106C46.2278 33.9466 46.2518 34.2426 46.2998 34.4986C46.3531 34.7546 46.4785 34.976 46.6758 35.1626C46.6385 35.2746 46.5691 35.392 46.4678 35.5146C46.3665 35.632 46.2571 35.72 46.1398 35.7786C45.8518 35.672 45.6305 35.5226 45.4758 35.3306C45.3211 35.1386 45.2118 34.912 45.1478 34.6506C44.8545 34.944 44.4945 35.2186 44.0678 35.4746C43.6411 35.7306 43.1638 35.8586 42.6358 35.8586C42.1131 35.8586 41.6811 35.744 41.3398 35.5146C40.9985 35.2853 40.7425 34.9946 40.5718 34.6426C40.4065 34.2853 40.3238 33.9173 40.3238 33.5386ZM41.5238 33.4506C41.5238 33.84 41.6305 34.1706 41.8438 34.4426C42.0625 34.7146 42.3798 34.8506 42.7958 34.8506C43.1585 34.8506 43.5451 34.744 43.9558 34.5306C44.3718 34.3173 44.7451 33.9946 45.0758 33.5626V31.9626C44.8038 31.92 44.5158 31.8906 44.2118 31.8746C43.9131 31.8586 43.6225 31.8506 43.3398 31.8506C42.7798 31.8506 42.3371 31.992 42.0118 32.2746C41.6865 32.552 41.5238 32.944 41.5238 33.4506ZM50.1463 35.6666C49.9916 35.6986 49.797 35.7146 49.5623 35.7146C49.333 35.7146 49.141 35.6986 48.9863 35.6666V24.0026L49.0823 23.9066H49.5143C49.781 23.9066 49.9516 23.976 50.0263 24.1146C50.1063 24.248 50.1463 24.448 50.1463 24.7146V31.1386L50.8423 31.0986C50.9756 31.0986 51.093 31.0293 51.1943 30.8906L52.9063 28.3466C53.029 28.1653 53.149 28.024 53.2663 27.9226C53.389 27.8213 53.573 27.7706 53.8183 27.7706C53.9303 27.7706 54.029 27.7706 54.1143 27.7706C54.1996 27.7706 54.2956 27.776 54.4023 27.7866L54.4983 27.9146L52.4663 30.8906C52.349 31.0666 52.2236 31.2133 52.0903 31.3306C52.4636 31.4 52.7676 31.552 53.0023 31.7866C53.2423 32.0213 53.461 32.36 53.6583 32.8026L54.2903 34.2106C54.4076 34.488 54.5303 34.7333 54.6583 34.9466C54.7863 35.1546 54.9196 35.3066 55.0583 35.4026C54.9836 35.4986 54.8716 35.584 54.7223 35.6586C54.573 35.728 54.421 35.7626 54.2663 35.7626C54.005 35.7626 53.8156 35.688 53.6983 35.5386C53.581 35.3893 53.4663 35.1866 53.3543 34.9306L52.6103 33.2666C52.4076 32.808 52.2023 32.4986 51.9943 32.3386C51.7863 32.1733 51.4556 32.0906 51.0023 32.0906C50.7943 32.0906 50.509 32.104 50.1463 32.1306V35.6666ZM56.2301 33.5386C56.2301 32.6533 56.5074 32.0026 57.0621 31.5866C57.6167 31.1706 58.3394 30.9626 59.2301 30.9626C59.4967 30.9626 59.7821 30.9733 60.0861 30.9946C60.3954 31.016 60.6941 31.0533 60.9821 31.1066V30.2986C60.9821 29.7066 60.8514 29.288 60.5901 29.0426C60.3287 28.792 59.9767 28.6666 59.5341 28.6666C59.1021 28.6666 58.6647 28.7306 58.2221 28.8586C57.7847 28.9866 57.3527 29.144 56.9261 29.3306C56.8194 29.24 56.7234 29.104 56.6381 28.9226C56.5581 28.7413 56.5181 28.568 56.5181 28.4026C56.9181 28.2266 57.4007 28.0586 57.9661 27.8986C58.5314 27.7386 59.0941 27.6586 59.6541 27.6586C60.4861 27.6586 61.1074 27.8853 61.5181 28.3386C61.9287 28.792 62.1341 29.4506 62.1341 30.3146V33.6106C62.1341 33.9466 62.1581 34.2426 62.2061 34.4986C62.2594 34.7546 62.3847 34.976 62.5821 35.1626C62.5447 35.2746 62.4754 35.392 62.3741 35.5146C62.2727 35.632 62.1634 35.72 62.0461 35.7786C61.7581 35.672 61.5367 35.5226 61.3821 35.3306C61.2274 35.1386 61.1181 34.912 61.0541 34.6506C60.7607 34.944 60.4007 35.2186 59.9741 35.4746C59.5474 35.7306 59.0701 35.8586 58.5421 35.8586C58.0194 35.8586 57.5874 35.744 57.2461 35.5146C56.9047 35.2853 56.6487 34.9946 56.4781 34.6426C56.3127 34.2853 56.2301 33.9173 56.2301 33.5386ZM57.4301 33.4506C57.4301 33.84 57.5367 34.1706 57.7501 34.4426C57.9687 34.7146 58.2861 34.8506 58.7021 34.8506C59.0647 34.8506 59.4514 34.744 59.8621 34.5306C60.2781 34.3173 60.6514 33.9946 60.9821 33.5626V31.9626C60.7101 31.92 60.4221 31.8906 60.1181 31.8746C59.8194 31.8586 59.5287 31.8506 59.2461 31.8506C58.6861 31.8506 58.2434 31.992 57.9181 32.2746C57.5927 32.552 57.4301 32.944 57.4301 33.4506ZM70.8766 34.1466C70.8766 34.408 70.8872 34.656 70.9086 34.8906C70.9352 35.1253 70.9886 35.3306 71.0686 35.5066C70.8766 35.6773 70.6259 35.7626 70.3166 35.7626C70.0926 35.7626 69.9326 35.6986 69.8366 35.5706C69.7459 35.4426 69.7006 35.248 69.7006 34.9866V30.5466C69.7006 29.9173 69.6206 29.4613 69.4606 29.1786C69.3006 28.8906 68.9886 28.7466 68.5246 28.7466C68.1192 28.7466 67.6846 28.864 67.2206 29.0986C66.7619 29.328 66.3779 29.6213 66.0686 29.9786V35.6666C65.9139 35.6986 65.7192 35.7146 65.4846 35.7146C65.2446 35.7146 65.0472 35.6986 64.8926 35.6666V27.8666L64.9886 27.7706H65.4286C65.7006 27.7706 65.8739 27.8426 65.9486 27.9866C66.0286 28.1253 66.0686 28.328 66.0686 28.5946V28.8266C66.4259 28.48 66.8472 28.2026 67.3326 27.9946C67.8232 27.7813 68.3192 27.6746 68.8206 27.6746C69.3272 27.6746 69.7299 27.7893 70.0286 28.0186C70.3272 28.2426 70.5432 28.544 70.6766 28.9226C70.8099 29.3013 70.8766 29.7173 70.8766 30.1706V34.1466ZM76.5269 31.8346C76.5269 30.864 76.6789 30.0746 76.9829 29.4666C77.2869 28.8533 77.6683 28.4053 78.1269 28.1226C78.5856 27.8346 79.0469 27.6906 79.5109 27.6906C79.8789 27.6906 80.2283 27.7493 80.5589 27.8666C80.8896 27.984 81.2096 28.1386 81.5189 28.3306V24.0026L81.6149 23.9066H82.0469C82.3136 23.9066 82.4843 23.976 82.5589 24.1146C82.6389 24.248 82.6789 24.448 82.6789 24.7146V33.4506C82.6789 33.792 82.7029 34.1173 82.7509 34.4266C82.8043 34.7306 82.9296 34.976 83.1269 35.1626C83.0843 35.2746 83.0123 35.392 82.9109 35.5146C82.8149 35.632 82.7056 35.72 82.5829 35.7786C82.3109 35.6826 82.0976 35.5413 81.9429 35.3546C81.7936 35.168 81.6869 34.952 81.6229 34.7066C81.3509 35.0266 81.0096 35.2986 80.5989 35.5226C80.1883 35.7466 79.7243 35.8586 79.2069 35.8586C78.6256 35.8586 78.1349 35.6906 77.7349 35.3546C77.3349 35.0133 77.0336 34.5413 76.8309 33.9386C76.6283 33.336 76.5269 32.6346 76.5269 31.8346ZM77.7269 31.8426C77.7269 32.552 77.8069 33.128 77.9669 33.5706C78.1269 34.008 78.3376 34.328 78.5989 34.5306C78.8603 34.728 79.1403 34.8266 79.4389 34.8266C79.8069 34.8266 80.1776 34.72 80.5509 34.5066C80.9296 34.2933 81.2523 33.992 81.5189 33.6026V29.4186C81.2469 29.2373 80.9509 29.0746 80.6309 28.9306C80.3163 28.7866 79.9829 28.7146 79.6309 28.7146C79.3056 28.7146 78.9963 28.8213 78.7029 29.0346C78.4149 29.248 78.1803 29.584 77.9989 30.0426C77.8176 30.5013 77.7269 31.1013 77.7269 31.8426ZM84.9332 33.5386C84.9332 32.6533 85.2105 32.0026 85.7652 31.5866C86.3199 31.1706 87.0425 30.9626 87.9332 30.9626C88.1999 30.9626 88.4852 30.9733 88.7892 30.9946C89.0985 31.016 89.3972 31.0533 89.6852 31.1066V30.2986C89.6852 29.7066 89.5545 29.288 89.2932 29.0426C89.0319 28.792 88.6799 28.6666 88.2372 28.6666C87.8052 28.6666 87.3679 28.7306 86.9252 28.8586C86.4879 28.9866 86.0559 29.144 85.6292 29.3306C85.5225 29.24 85.4265 29.104 85.3412 28.9226C85.2612 28.7413 85.2212 28.568 85.2212 28.4026C85.6212 28.2266 86.1039 28.0586 86.6692 27.8986C87.2345 27.7386 87.7972 27.6586 88.3572 27.6586C89.1892 27.6586 89.8105 27.8853 90.2212 28.3386C90.6319 28.792 90.8372 29.4506 90.8372 30.3146V33.6106C90.8372 33.9466 90.8612 34.2426 90.9092 34.4986C90.9625 34.7546 91.0879 34.976 91.2852 35.1626C91.2479 35.2746 91.1785 35.392 91.0772 35.5146C90.9759 35.632 90.8665 35.72 90.7492 35.7786C90.4612 35.672 90.2399 35.5226 90.0852 35.3306C89.9305 35.1386 89.8212 34.912 89.7572 34.6506C89.4639 34.944 89.1039 35.2186 88.6772 35.4746C88.2505 35.7306 87.7732 35.8586 87.2452 35.8586C86.7225 35.8586 86.2905 35.744 85.9492 35.5146C85.6079 35.2853 85.3519 34.9946 85.1812 34.6426C85.0159 34.2853 84.9332 33.9173 84.9332 33.5386ZM86.1332 33.4506C86.1332 33.84 86.2399 34.1706 86.4532 34.4426C86.6719 34.7146 86.9892 34.8506 87.4052 34.8506C87.7679 34.8506 88.1545 34.744 88.5652 34.5306C88.9812 34.3173 89.3545 33.9946 89.6852 33.5626V31.9626C89.4132 31.92 89.1252 31.8906 88.8212 31.8746C88.5225 31.8586 88.2319 31.8506 87.9492 31.8506C87.3892 31.8506 86.9465 31.992 86.6212 32.2746C86.2959 32.552 86.1332 32.944 86.1332 33.4506ZM96.8486 27.8026C96.8859 27.968 96.9046 28.12 96.9046 28.2586C96.9046 28.4133 96.8859 28.5653 96.8486 28.7146L94.8246 28.6906V34.0906C94.8246 34.2826 94.8699 34.44 94.9606 34.5626C95.0566 34.6853 95.2219 34.7466 95.4566 34.7466H96.6726C96.7366 34.9226 96.7686 35.136 96.7686 35.3866C96.7686 35.4293 96.7686 35.472 96.7686 35.5146C96.7686 35.5573 96.7632 35.5973 96.7526 35.6346C96.5019 35.6666 96.2459 35.6906 95.9846 35.7066C95.7232 35.7226 95.4379 35.7306 95.1286 35.7306C94.6806 35.7306 94.3232 35.6186 94.0566 35.3946C93.7952 35.1653 93.6646 34.8346 93.6646 34.4026V28.6986L92.5366 28.7146C92.5046 28.5653 92.4886 28.4133 92.4886 28.2586C92.4886 28.12 92.5046 27.968 92.5366 27.8026L93.6646 27.8186V26.1466C93.6646 25.8853 93.7019 25.6853 93.7766 25.5466C93.8566 25.408 94.0299 25.3386 94.2966 25.3386H94.7286L94.8246 25.4426V27.8266L96.8486 27.8026ZM98.1519 33.5386C98.1519 32.6533 98.4293 32.0026 98.9839 31.5866C99.5386 31.1706 100.261 30.9626 101.152 30.9626C101.419 30.9626 101.704 30.9733 102.008 30.9946C102.317 31.016 102.616 31.0533 102.904 31.1066V30.2986C102.904 29.7066 102.773 29.288 102.512 29.0426C102.251 28.792 101.899 28.6666 101.456 28.6666C101.024 28.6666 100.587 28.7306 100.144 28.8586C99.7066 28.9866 99.2746 29.144 98.8479 29.3306C98.7413 29.24 98.6453 29.104 98.5599 28.9226C98.4799 28.7413 98.4399 28.568 98.4399 28.4026C98.8399 28.2266 99.3226 28.0586 99.8879 27.8986C100.453 27.7386 101.016 27.6586 101.576 27.6586C102.408 27.6586 103.029 27.8853 103.44 28.3386C103.851 28.792 104.056 29.4506 104.056 30.3146V33.6106C104.056 33.9466 104.08 34.2426 104.128 34.4986C104.181 34.7546 104.307 34.976 104.504 35.1626C104.467 35.2746 104.397 35.392 104.296 35.5146C104.195 35.632 104.085 35.72 103.968 35.7786C103.68 35.672 103.459 35.5226 103.304 35.3306C103.149 35.1386 103.04 34.912 102.976 34.6506C102.683 34.944 102.323 35.2186 101.896 35.4746C101.469 35.7306 100.992 35.8586 100.464 35.8586C99.9413 35.8586 99.5093 35.744 99.1679 35.5146C98.8266 35.2853 98.5706 34.9946 98.3999 34.6426C98.2346 34.2853 98.1519 33.9173 98.1519 33.5386ZM99.3519 33.4506C99.3519 33.84 99.4586 34.1706 99.6719 34.4426C99.8906 34.7146 100.208 34.8506 100.624 34.8506C100.987 34.8506 101.373 34.744 101.784 34.5306C102.2 34.3173 102.573 33.9946 102.904 33.5626V31.9626C102.632 31.92 102.344 31.8906 102.04 31.8746C101.741 31.8586 101.451 31.8506 101.168 31.8506C100.608 31.8506 100.165 31.992 99.8399 32.2746C99.5146 32.552 99.3519 32.944 99.3519 33.4506ZM112.798 34.1466C112.798 34.408 112.809 34.656 112.83 34.8906C112.857 35.1253 112.91 35.3306 112.99 35.5066C112.798 35.6773 112.548 35.7626 112.238 35.7626C112.014 35.7626 111.854 35.6986 111.758 35.5706C111.668 35.4426 111.622 35.248 111.622 34.9866V30.5466C111.622 29.9173 111.542 29.4613 111.382 29.1786C111.222 28.8906 110.91 28.7466 110.446 28.7466C110.041 28.7466 109.606 28.864 109.142 29.0986C108.684 29.328 108.3 29.6213 107.99 29.9786V35.6666C107.836 35.6986 107.641 35.7146 107.406 35.7146C107.166 35.7146 106.969 35.6986 106.814 35.6666V27.8666L106.91 27.7706H107.35C107.622 27.7706 107.796 27.8426 107.87 27.9866C107.95 28.1253 107.99 28.328 107.99 28.5946V28.8266C108.348 28.48 108.769 28.2026 109.254 27.9946C109.745 27.7813 110.241 27.6746 110.742 27.6746C111.249 27.6746 111.652 27.7893 111.95 28.0186C112.249 28.2426 112.465 28.544 112.598 28.9226C112.732 29.3013 112.798 29.7173 112.798 30.1706V34.1466ZM114.933 31.7546C114.933 30.7946 115.085 30.0106 115.389 29.4026C115.693 28.7946 116.072 28.3466 116.525 28.0586C116.984 27.7706 117.445 27.6266 117.909 27.6266C118.416 27.6266 118.851 27.7093 119.213 27.8746C119.576 28.04 119.893 28.2426 120.165 28.4826C120.24 28.3066 120.344 28.152 120.477 28.0186C120.616 27.8853 120.792 27.7813 121.005 27.7066C121.128 27.7653 121.237 27.856 121.333 27.9786C121.435 28.096 121.507 28.2106 121.549 28.3226C121.352 28.5093 121.227 28.7573 121.173 29.0666C121.125 29.3706 121.101 29.6933 121.101 30.0346V35.0586C121.101 35.8693 121.043 36.5146 120.925 36.9946C120.813 37.4746 120.629 37.872 120.373 38.1866C120.155 38.4586 119.837 38.6933 119.421 38.8906C119.005 39.088 118.507 39.1866 117.925 39.1866C117.435 39.1866 116.955 39.1306 116.485 39.0186C116.021 38.912 115.621 38.7866 115.285 38.6426C115.291 38.4826 115.323 38.3146 115.381 38.1386C115.445 37.9626 115.525 37.8213 115.621 37.7146C115.947 37.8746 116.32 38 116.741 38.0906C117.163 38.1813 117.517 38.2266 117.805 38.2266C118.435 38.2266 118.901 38.1066 119.205 37.8666C119.515 37.632 119.717 37.32 119.813 36.9306C119.915 36.5413 119.965 36.12 119.965 35.6666V34.7466C119.709 35.008 119.384 35.248 118.989 35.4666C118.595 35.6853 118.152 35.7946 117.661 35.7946C116.76 35.7946 116.08 35.4266 115.621 34.6906C115.163 33.9493 114.933 32.9706 114.933 31.7546ZM116.133 31.7626C116.133 32.8293 116.301 33.5973 116.637 34.0666C116.973 34.5306 117.371 34.7626 117.829 34.7626C118.24 34.7626 118.635 34.6506 119.013 34.4266C119.397 34.1973 119.715 33.9146 119.965 33.5786V29.6506C119.965 29.576 119.968 29.504 119.973 29.4346C119.707 29.2053 119.405 29.0186 119.069 28.8746C118.739 28.7253 118.405 28.6506 118.069 28.6506C117.723 28.6506 117.403 28.7573 117.109 28.9706C116.816 29.184 116.579 29.52 116.397 29.9786C116.221 30.432 116.133 31.0266 116.133 31.7626Z" fill="#676767"/>
</svg>
