<svg version="1.2" baseProfile="tiny-ps" xmlns="http://www.w3.org/2000/svg" viewBox="0 0 162 40" width="162" height="40">
	<title>more_to_come_ta-svg</title>
	<style>
		tspan { white-space:pre }
		.shp0 { fill: none;stroke: #676767;stroke-width: 0.5 } 
	</style>
	<path id="Layer" class="shp0" d="M0.25 0.25L161.75 0.25L161.75 39.75L0.25 39.75L0.25 0.25Z" />
	<path id="மேலும் தகவல்கள் விரைவில் " fill="#676767" aria-label="மேலும் தகவல்கள்
விரைவில்"  d="M21.35 16.15Q19.18 16.15 17.79 14.57Q16.4 12.98 16.4 10.4Q16.4 7.87 17.79 6.27Q19.18 4.66 21.35 4.66Q22.48 4.66 23.19 5.33Q23.91 6 23.91 7Q23.91 8.03 23.22 8.66Q22.54 9.29 21.53 9.29Q20.46 9.29 19.81 8.66Q19.16 8.03 19.16 7.05Q19.16 6.65 19.29 6.35Q18.48 6.94 17.99 8.01Q17.51 9.06 17.51 10.4Q17.51 11.81 17.99 12.85Q18.48 13.89 19.26 14.45Q19.15 14.15 19.15 13.77Q19.15 12.82 19.81 12.18Q20.46 11.53 21.53 11.53Q22.54 11.53 23.22 12.16Q23.91 12.79 23.91 13.83Q23.91 14.84 23.21 15.5Q22.51 16.15 21.35 16.15ZM20.06 13.83Q20.06 14.47 20.44 14.85Q20.83 15.23 21.47 15.23Q22.1 15.23 22.48 14.85Q22.87 14.47 22.87 13.83Q22.87 13.2 22.48 12.82Q22.09 12.44 21.46 12.44Q20.83 12.44 20.44 12.82Q20.06 13.2 20.06 13.83ZM22.48 8.01Q22.87 7.61 22.87 6.98Q22.87 6.35 22.48 5.98Q22.1 5.6 21.47 5.6Q20.83 5.6 20.44 5.98Q20.06 6.35 20.06 6.98Q20.06 7.63 20.44 8.01Q20.83 8.38 21.46 8.38Q22.09 8.38 22.48 8.01ZM32.5 16L25.97 16L25.97 8.3L27.07 8.3L27.07 15.08L30.53 15.08L30.53 10.61Q30.53 9.6 31.12 8.89Q31.72 8.16 32.92 8.16Q34.46 8.16 35.37 9.38Q36.3 10.58 36.3 12.25Q36.3 14.01 35.33 15.01Q34.37 16 32.5 16ZM31.62 10.62L31.64 15.08L32.35 15.08Q33.81 15.08 34.49 14.39Q35.19 13.69 35.19 12.25Q35.19 10.97 34.62 10.04Q34.06 9.1 32.94 9.1Q31.62 9.1 31.62 10.62ZM43.1 19.72Q45.54 19.72 46.32 18.17L39.17 18.18Q40.71 19.72 43.1 19.72ZM53.52 8.3L53.52 18.17L53.06 18.17L47.47 18.17Q47.04 19.36 45.93 20Q44.82 20.65 43.1 20.65Q41.56 20.65 40.23 20.07Q38.92 19.5 38.03 18.46L38.03 17.32L46.6 17.32Q46.67 16.92 46.67 16.55L46.67 16.13Q45.71 16.04 45.12 15.38Q44.54 14.71 44.54 13.52L44.56 11.84Q44.56 10.53 43.93 9.81Q43.3 9.1 42.02 9.1Q40.5 9.1 39.71 10.13Q38.93 11.17 38.93 12.63L38.93 12.77Q39.13 12.19 39.66 11.86Q40.19 11.51 40.92 11.51Q41.87 11.51 42.53 12.15Q43.2 12.78 43.2 13.82Q43.2 14.81 42.51 15.48Q41.84 16.14 40.76 16.14Q39.5 16.14 38.72 15.16Q37.95 14.17 37.95 12.63Q37.95 10.61 39.03 9.39Q40.11 8.16 42.04 8.16Q43.82 8.16 44.73 9.17Q45.65 10.16 45.65 11.84L45.65 13.55Q45.65 14.35 45.99 14.78Q46.34 15.2 46.98 15.2Q48.66 15.2 48.66 12.37Q48.66 10.25 47.54 8.3L48.69 8.3Q49.75 10.3 49.75 12.37Q49.75 13.79 49.25 14.78Q48.76 15.76 47.74 16.04L47.74 16.55Q47.74 16.98 47.68 17.32L52.41 17.32L52.41 8.3L53.52 8.3ZM39.73 12.81Q39.35 13.19 39.35 13.82Q39.35 14.45 39.73 14.82Q40.12 15.2 40.75 15.2Q41.38 15.2 41.76 14.82Q42.15 14.45 42.15 13.82Q42.15 13.19 41.76 12.81Q41.38 12.43 40.75 12.43Q40.12 12.43 39.73 12.81ZM62.6 16L56.07 16L56.07 8.3L57.17 8.3L57.17 15.08L60.63 15.08L60.63 10.61Q60.63 9.6 61.22 8.89Q61.82 8.16 63.02 8.16Q64.56 8.16 65.47 9.38Q66.4 10.58 66.4 12.25Q66.4 14.01 65.43 15.01Q64.47 16 62.6 16ZM61.72 10.62L61.74 15.08L62.45 15.08Q63.91 15.08 64.59 14.39Q65.29 13.69 65.29 12.25Q65.29 10.97 64.72 10.04Q64.16 9.1 63.04 9.1Q61.72 9.1 61.72 10.62ZM62 6.55Q62 6.87 61.78 7.1Q61.55 7.32 61.25 7.32Q60.92 7.32 60.7 7.1Q60.48 6.87 60.48 6.55Q60.48 6.26 60.7 6.03Q60.94 5.81 61.25 5.81Q61.55 5.81 61.78 6.03Q62 6.26 62 6.55ZM74.07 11.39L74.13 11.39L76.6 11.39L76.6 9.22L74.07 9.22L74.07 11.39ZM74.21 15.23Q75.44 15.23 76.02 14.56Q76.6 13.87 76.6 12.74L76.6 12.32L74.14 12.32Q72.49 12.32 72.49 13.8Q72.49 14.47 72.96 14.85Q73.44 15.23 74.21 15.23ZM80.68 14.75Q80.68 16.71 79.52 17.86Q78.37 19 76.18 19Q75.55 19 74.63 18.93Q73.71 18.84 73.24 18.84Q72.08 18.84 71.1 19.26L71.1 18.25Q72.01 17.9 73.26 17.9Q73.82 17.9 74.71 17.99Q75.61 18.06 76.18 18.06Q79.61 18.06 79.61 14.74Q79.61 13.75 79.14 13.1Q78.66 12.46 77.7 12.35L77.7 12.72Q77.7 14.25 76.79 15.22Q75.89 16.17 74.2 16.17Q72.88 16.17 72.15 15.51Q71.44 14.84 71.44 13.8Q71.44 13 71.82 12.42Q72.21 11.81 72.98 11.56L72.98 8.3L79.1 8.3L79.1 9.22L77.7 9.22L77.7 11.41Q79.17 11.53 79.92 12.46Q80.68 13.38 80.68 14.75ZM88.32 11.39L88.87 11.39Q90.17 11.39 90.87 12.05Q91.57 12.71 91.57 13.76Q91.57 14.84 90.87 15.52Q90.18 16.21 88.95 16.21Q88.62 16.21 88.46 16.18L88.46 15.24Q88.59 15.27 88.84 15.27Q90.51 15.27 90.51 13.75Q90.51 12.32 88.85 12.32L88.32 12.32L88.32 12.72Q88.32 14.24 87.44 15.2Q86.56 16.17 84.88 16.17Q83.56 16.17 82.83 15.51Q82.12 14.84 82.12 13.8Q82.12 12.96 82.54 12.36Q82.96 11.76 83.79 11.52L83.79 8.3L89.72 8.3L89.72 9.22L88.32 9.22L88.32 11.39ZM87.27 9.22L84.84 9.22L84.84 11.39L87.27 11.39L87.27 9.22ZM84.88 15.23Q86.1 15.23 86.68 14.56Q87.27 13.87 87.27 12.74L87.27 12.32L84.82 12.32Q83.17 12.32 83.17 13.8Q83.17 14.47 83.63 14.85Q84.11 15.23 84.88 15.23ZM103.74 15.06L103.74 8.3L104.84 8.3L104.84 16L99.34 16L99.34 15.19Q100.33 13.93 100.33 12.23Q100.33 10.82 99.48 9.97Q98.64 9.1 97.14 9.1Q95.59 9.1 94.75 10.13Q93.92 11.17 93.92 12.63L93.92 12.77Q94.12 12.19 94.65 11.86Q95.18 11.51 95.91 11.51Q96.86 11.51 97.52 12.15Q98.19 12.78 98.19 13.82Q98.19 14.82 97.52 15.48Q96.85 16.14 95.77 16.14Q94.5 16.14 93.71 15.16Q92.94 14.17 92.94 12.63Q92.94 10.62 94.06 9.39Q95.2 8.16 97.16 8.16Q99.14 8.16 100.28 9.32Q101.43 10.48 101.41 12.23Q101.41 13.93 100.6 15.06L103.74 15.06ZM94.72 12.81Q94.34 13.19 94.34 13.82Q94.34 14.45 94.73 14.82Q95.13 15.2 95.76 15.2Q96.39 15.2 96.76 14.82Q97.14 14.45 97.14 13.82Q97.14 13.19 96.75 12.81Q96.37 12.43 95.74 12.43Q95.11 12.43 94.72 12.81ZM106.83 12.63Q106.83 10.61 107.91 9.39Q108.99 8.16 110.92 8.16Q112.7 8.16 113.61 9.17Q114.53 10.16 114.53 11.84L114.53 13.55Q114.53 14.35 114.87 14.78Q115.22 15.2 115.86 15.2Q117.54 15.2 117.54 12.37Q117.54 10.25 116.42 8.3L117.57 8.3Q118.63 10.3 118.63 12.37Q118.63 14.04 117.95 15.09Q117.27 16.14 115.85 16.14Q114.75 16.14 114.08 15.48Q113.42 14.81 113.42 13.52L113.44 11.84Q113.44 10.53 112.81 9.81Q112.18 9.1 110.9 9.1Q109.38 9.1 108.59 10.13Q107.81 11.17 107.81 12.63L107.81 12.77Q108.01 12.19 108.54 11.86Q109.07 11.51 109.8 11.51Q110.75 11.51 111.41 12.15Q112.08 12.78 112.08 13.82Q112.08 14.81 111.39 15.48Q110.72 16.14 109.64 16.14Q108.38 16.14 107.6 15.16Q106.83 14.17 106.83 12.63ZM108.61 12.81Q108.23 13.19 108.23 13.82Q108.23 14.45 108.61 14.82Q109 15.2 109.63 15.2Q110.26 15.2 110.64 14.82Q111.03 14.45 111.03 13.82Q111.03 13.19 110.64 12.81Q110.26 12.43 109.63 12.43Q109 12.43 108.61 12.81ZM113.1 6.55Q113.1 6.87 112.88 7.1Q112.65 7.32 112.35 7.32Q112.02 7.32 111.8 7.1Q111.58 6.87 111.58 6.55Q111.58 6.26 111.8 6.03Q112.04 5.81 112.35 5.81Q112.65 5.81 112.88 6.03Q113.1 6.26 113.1 6.55ZM126.42 11.39L126.96 11.39Q128.26 11.39 128.96 12.05Q129.66 12.71 129.66 13.76Q129.66 14.84 128.96 15.52Q128.28 16.21 127.05 16.21Q126.71 16.21 126.56 16.18L126.56 15.24Q126.68 15.27 126.93 15.27Q128.6 15.27 128.6 13.75Q128.6 12.32 126.95 12.32L126.42 12.32L126.42 12.72Q126.42 14.24 125.53 15.2Q124.65 16.17 122.97 16.17Q121.66 16.17 120.93 15.51Q120.21 14.84 120.21 13.8Q120.21 12.96 120.63 12.36Q121.05 11.76 121.88 11.52L121.88 8.3L127.82 8.3L127.82 9.22L126.42 9.22L126.42 11.39ZM125.37 9.22L122.93 9.22L122.93 11.39L125.37 11.39L125.37 9.22ZM122.97 15.23Q124.19 15.23 124.78 14.56Q125.37 13.87 125.37 12.74L125.37 12.32L122.92 12.32Q121.26 12.32 121.26 13.8Q121.26 14.47 121.73 14.85Q122.2 15.23 122.97 15.23ZM133.85 16.14Q132.59 16.14 131.81 15.16Q131.04 14.17 131.04 12.63Q131.04 10.61 132.06 9.39Q133.09 8.16 134.91 8.16Q135.89 8.16 136.64 8.59Q137.39 9.03 137.72 9.67L137.72 8.3L144.2 8.3L144.2 9.22L142.8 9.22L142.8 16L141.69 16L141.69 9.22L138.78 9.22L138.78 16L137.67 16L137.67 11.97Q137.67 10.68 136.96 9.9Q136.25 9.1 134.96 9.1Q133.51 9.1 132.76 10.13Q132.02 11.17 132.02 12.63L132.02 12.77Q132.21 12.19 132.75 11.86Q133.28 11.51 134 11.51Q134.96 11.51 135.62 12.15Q136.29 12.78 136.29 13.82Q136.29 14.81 135.6 15.48Q134.93 16.14 133.85 16.14ZM132.81 12.81Q132.44 13.19 132.44 13.82Q132.44 14.45 132.81 14.82Q133.21 15.2 133.84 15.2Q134.47 15.2 134.84 14.82Q135.24 14.45 135.24 13.82Q135.24 13.19 134.84 12.81Q134.47 12.43 133.84 12.43Q133.21 12.43 132.81 12.81ZM138.39 6.55Q138.39 6.87 138.16 7.1Q137.94 7.32 137.63 7.32Q137.31 7.32 137.09 7.1Q136.86 6.87 136.86 6.55Q136.86 6.26 137.09 6.03Q137.32 5.81 137.63 5.81Q137.94 5.81 138.16 6.03Q138.39 6.26 138.39 6.55ZM59.57 25.23L59.57 33L58.51 33L58.51 25.24Q58.51 24.19 57.84 23.58Q57.18 22.95 56.06 22.95Q55.36 22.95 54.93 23.27Q54.49 23.59 54.49 24.19Q54.49 25.3 55.67 25.3L55.98 25.3L55.98 33L50.47 33L50.47 32.19Q51.47 30.93 51.47 29.23Q51.47 27.82 50.61 26.97Q49.77 26.1 48.28 26.1Q46.72 26.1 45.88 27.13Q45.06 28.17 45.06 29.63L45.06 29.77Q45.25 29.19 45.78 28.86Q46.32 28.51 47.04 28.51Q48 28.51 48.65 29.15Q49.33 29.78 49.33 30.82Q49.33 31.82 48.65 32.48Q47.98 33.14 46.9 33.14Q45.63 33.14 44.85 32.16Q44.08 31.17 44.08 29.63Q44.08 27.62 45.2 26.39Q46.33 25.16 48.29 25.16Q50.28 25.16 51.41 26.32Q52.56 27.48 52.55 29.23Q52.55 30.93 51.73 32.06L54.87 32.06L54.87 26.03Q54.17 25.87 53.81 25.38Q53.46 24.88 53.46 24.15Q53.46 23.19 54.18 22.61Q54.91 22.02 56.06 22.02Q57.61 22.02 58.59 22.92Q59.57 23.82 59.57 25.23ZM45.85 29.81Q45.48 30.19 45.48 30.82Q45.48 31.45 45.87 31.82Q46.26 32.2 46.89 32.2Q47.52 32.2 47.9 31.82Q48.28 31.45 48.28 30.82Q48.28 30.19 47.88 29.81Q47.51 29.43 46.88 29.43Q46.25 29.43 45.85 29.81ZM72.73 30.17Q72.73 31.47 72.08 32.31Q71.43 33.14 70.31 33.14Q69.21 33.14 68.51 32.31Q67.82 31.47 67.82 30.03Q67.82 27.92 69.08 26.5Q68.06 26.1 66.73 26.1Q64.84 26.1 63.69 27.16Q62.54 28.23 62.54 29.65L62.54 29.74Q62.72 29.18 63.24 28.84Q63.77 28.51 64.5 28.51Q65.47 28.51 66.14 29.15Q66.81 29.78 66.81 30.82Q66.81 31.82 66.14 32.48Q65.47 33.14 64.39 33.14Q63.12 33.14 62.35 32.17Q61.58 31.21 61.58 29.68Q61.58 27.65 63 26.41Q64.45 25.16 66.76 25.16Q68.49 25.16 69.86 25.83Q70.91 25.16 72.27 25.16Q74.23 25.16 75.39 26.29Q76.57 27.41 76.57 29.43Q76.57 31.29 75.65 33L74.48 33Q75.48 31.15 75.48 29.43Q75.48 27.93 74.65 27.02Q73.84 26.1 72.27 26.1Q71.46 26.1 70.82 26.42Q72.73 27.88 72.73 30.17ZM71.68 30.17Q71.68 28.14 70 26.99Q68.87 28.1 68.87 30.05Q68.87 31.04 69.26 31.63Q69.65 32.2 70.3 32.2Q70.97 32.2 71.32 31.64Q71.68 31.08 71.68 30.17ZM63.34 29.81Q62.96 30.19 62.96 30.82Q62.96 31.45 63.35 31.82Q63.75 32.2 64.38 32.2Q65.01 32.2 65.38 31.82Q65.76 31.45 65.76 30.82Q65.76 30.19 65.37 29.81Q64.99 29.43 64.36 29.43Q63.73 29.43 63.34 29.81ZM79.93 33L78.82 33L78.82 25.3L85.45 25.3L85.45 26.22L84.05 26.22L84.05 32.4L82.28 35.6L81.01 35.6L82.95 32.16L82.95 26.22L79.93 26.22L79.93 33ZM101.92 25.23L101.92 33L100.86 33L100.86 25.24Q100.86 24.19 100.19 23.58Q99.53 22.95 98.41 22.95Q97.71 22.95 97.28 23.27Q96.84 23.59 96.84 24.19Q96.84 25.3 98.02 25.3L98.33 25.3L98.33 33L92.82 33L92.82 32.19Q93.82 30.93 93.82 29.23Q93.82 27.82 92.96 26.97Q92.12 26.1 90.63 26.1Q89.07 26.1 88.23 27.13Q87.41 28.17 87.41 29.63L87.41 29.77Q87.6 29.19 88.13 28.86Q88.67 28.51 89.39 28.51Q90.35 28.51 91 29.15Q91.68 29.78 91.68 30.82Q91.68 31.82 91 32.48Q90.33 33.14 89.25 33.14Q87.98 33.14 87.2 32.16Q86.43 31.17 86.43 29.63Q86.43 27.62 87.55 26.39Q88.68 25.16 90.64 25.16Q92.63 25.16 93.76 26.32Q94.91 27.48 94.9 29.23Q94.9 30.93 94.08 32.06L97.22 32.06L97.22 26.03Q96.52 25.87 96.16 25.38Q95.81 24.88 95.81 24.15Q95.81 23.19 96.53 22.61Q97.26 22.02 98.41 22.02Q99.96 22.02 100.94 22.92Q101.92 23.82 101.92 25.23ZM88.2 29.81Q87.83 30.19 87.83 30.82Q87.83 31.45 88.22 31.82Q88.61 32.2 89.24 32.2Q89.87 32.2 90.25 31.82Q90.63 31.45 90.63 30.82Q90.63 30.19 90.23 29.81Q89.86 29.43 89.23 29.43Q88.6 29.43 88.2 29.81ZM103.93 29.63Q103.93 27.61 105 26.39Q106.08 25.16 108.01 25.16Q109.79 25.16 110.7 26.17Q111.63 27.16 111.63 28.84L111.63 30.55Q111.63 31.35 111.96 31.78Q112.31 32.2 112.96 32.2Q114.64 32.2 114.64 29.37Q114.64 27.25 113.52 25.3L114.66 25.3Q115.73 27.3 115.73 29.37Q115.73 31.04 115.04 32.09Q114.37 33.14 112.94 33.14Q111.85 33.14 111.18 32.48Q110.52 31.81 110.52 30.52L110.53 28.84Q110.53 27.53 109.9 26.81Q109.27 26.1 108 26.1Q106.47 26.1 105.69 27.13Q104.91 28.17 104.91 29.63L104.91 29.77Q105.1 29.19 105.63 28.86Q106.17 28.51 106.89 28.51Q107.85 28.51 108.5 29.15Q109.18 29.78 109.18 30.82Q109.18 31.81 108.49 32.48Q107.82 33.14 106.74 33.14Q105.48 33.14 104.7 32.16Q103.93 31.17 103.93 29.63ZM105.7 29.81Q105.33 30.19 105.33 30.82Q105.33 31.45 105.7 31.82Q106.1 32.2 106.73 32.2Q107.36 32.2 107.73 31.82Q108.13 31.45 108.13 30.82Q108.13 30.19 107.73 29.81Q107.36 29.43 106.73 29.43Q106.1 29.43 105.7 29.81ZM110.2 23.55Q110.2 23.87 109.97 24.1Q109.75 24.32 109.44 24.32Q109.12 24.32 108.9 24.1Q108.67 23.87 108.67 23.55Q108.67 23.26 108.9 23.03Q109.13 22.81 109.44 22.81Q109.75 22.81 109.97 23.03Q110.2 23.26 110.2 23.55Z" />
</svg>