<svg width="259" height="46" viewBox="0 0 259 46" fill="none" xmlns="http://www.w3.org/2000/svg">
<rect width="259" height="46" rx="5" fill="#7289DA"/>
<path d="M41.91 6.76563H19.0725C17.1475 6.76563 15.5813 8.33188 15.5813 10.2569V33.09C15.5813 35.015 17.1475 36.5813 19.0725 36.5813H38.3969L37.4956 33.4619L39.6787 35.4744L41.7394 37.3644L45.4187 40.5494V10.2613C45.4012 8.33625 43.835 6.76563 41.91 6.76563Z" fill="white"/>
<path d="M37.99 15.9312C35.5531 14.1069 33.2169 14.1594 33.2169 14.1594L32.9763 14.4306C35.8725 15.3012 37.22 16.5787 37.22 16.5787C35.4481 15.625 33.7113 15.1481 32.0925 14.96C30.8675 14.8244 29.6906 14.8594 28.6494 14.995C28.5488 14.995 28.4613 15.0125 28.3606 15.03C27.7656 15.1 26.3175 15.3012 24.4931 16.1019C23.8631 16.3731 23.4869 16.5787 23.4869 16.5787C23.4869 16.5787 24.8825 15.2312 27.9494 14.365L27.7788 14.1594C27.7788 14.1594 25.46 14.1069 23.0056 15.9312C23.0056 15.9312 20.5513 20.3456 20.5513 25.7794C20.5513 25.7794 21.9819 28.2337 25.7488 28.3519C25.7488 28.3519 26.3788 27.6037 26.8906 26.9562C24.725 26.3087 23.9069 24.9612 23.9069 24.9612C23.9069 24.9612 24.0775 25.0794 24.3838 25.25C24.4013 25.25 24.4188 25.2675 24.4538 25.285C24.5063 25.32 24.5544 25.3375 24.6069 25.3681C25.0313 25.6087 25.46 25.7925 25.8494 25.9456C26.5494 26.2344 27.385 26.4925 28.3563 26.6762C29.6338 26.9169 31.1344 27 32.7706 26.6937C33.5712 26.5406 34.3894 26.3175 35.2425 25.9631C35.8375 25.74 36.5025 25.4162 37.2025 24.9569C37.2025 24.9569 36.3494 26.335 34.1181 26.9694C34.63 27.5994 35.2425 28.3344 35.2425 28.3344C39.0094 28.2162 40.44 25.7619 40.44 25.7794C40.4444 20.3456 37.99 15.9312 37.99 15.9312ZM27.3238 24.1956C26.37 24.1956 25.5869 23.36 25.5869 22.3231C25.5869 21.2819 26.3525 20.4506 27.3238 20.4506C28.295 20.4506 29.0781 21.2862 29.0606 22.3231C29.0606 23.36 28.295 24.1956 27.3238 24.1956ZM33.5406 24.1956C32.5869 24.1956 31.8038 23.36 31.8038 22.3231C31.8038 21.2819 32.5694 20.4506 33.5406 20.4506C34.4944 20.4506 35.2775 21.2862 35.2775 22.3231C35.2819 23.36 34.5119 24.1956 33.5406 24.1956Z" fill="#7289DA"/>
<path d="M59.6112 26.1075C59.6412 25.7725 59.7437 25.44 59.9187 25.11C60.0987 24.78 60.3062 24.515 60.5412 24.315C60.9612 24.57 61.4387 24.7975 61.9737 24.9975C62.5087 25.1975 63.0437 25.2975 63.5787 25.2975C64.0137 25.2975 64.3262 25.1925 64.5162 24.9825C64.7062 24.7725 64.8012 24.5475 64.8012 24.3075C64.8012 24.1425 64.7487 23.9575 64.6437 23.7525C64.5387 23.5475 64.2762 23.3575 63.8562 23.1825L62.0487 22.4325C61.4287 22.1725 60.9162 21.825 60.5112 21.39C60.1062 20.955 59.9037 20.38 59.9037 19.665C59.9037 19.04 60.0662 18.4925 60.3912 18.0225C60.7162 17.5525 61.1537 17.1875 61.7037 16.9275C62.2587 16.6625 62.8762 16.53 63.5562 16.53C64.2612 16.53 64.9262 16.625 65.5512 16.815C66.1762 17 66.6837 17.1925 67.0737 17.3925C67.0537 17.7375 66.9712 18.07 66.8262 18.39C66.6862 18.705 66.4987 18.97 66.2637 19.185C65.8837 19.005 65.4387 18.84 64.9287 18.69C64.4187 18.535 63.9612 18.4575 63.5562 18.4575C63.1262 18.4575 62.8187 18.555 62.6337 18.75C62.4537 18.945 62.3637 19.1425 62.3637 19.3425C62.3637 19.5325 62.4262 19.7025 62.5512 19.8525C62.6812 20.0025 62.9112 20.1475 63.2412 20.2875L65.0862 21.045C65.8112 21.345 66.3687 21.7525 66.7587 22.2675C67.1537 22.7825 67.3512 23.3625 67.3512 24.0075C67.3512 24.6125 67.2037 25.1575 66.9087 25.6425C66.6187 26.1275 66.1812 26.5125 65.5962 26.7975C65.0112 27.0825 64.2812 27.225 63.4062 27.225C62.8012 27.225 62.1562 27.13 61.4712 26.94C60.7862 26.745 60.1662 26.4675 59.6112 26.1075ZM77.3058 25.035C77.3058 25.695 77.2008 26.195 76.9908 26.535C76.7858 26.875 76.3658 27.045 75.7308 27.045H71.7408C71.3108 27.045 70.9733 26.92 70.7283 26.67C70.4833 26.42 70.3608 26.0775 70.3608 25.6425V16.86L70.4658 16.755H76.9308C76.9658 16.935 76.9883 17.105 76.9983 17.265C77.0083 17.42 77.0133 17.565 77.0133 17.7C77.0133 17.835 76.9958 18.0025 76.9608 18.2025C76.9308 18.3975 76.8833 18.585 76.8183 18.765H73.7508C73.6408 18.765 73.4908 18.765 73.3008 18.765C73.1158 18.76 72.9233 18.755 72.7233 18.75C72.7233 18.955 72.7258 19.14 72.7308 19.305C72.7358 19.465 72.7383 19.645 72.7383 19.845V20.8875C72.9383 20.8825 73.1308 20.88 73.3158 20.88C73.5008 20.875 73.6458 20.8725 73.7508 20.8725H76.0383C76.0883 21.0175 76.1233 21.185 76.1433 21.375C76.1683 21.565 76.1808 21.725 76.1808 21.855C76.1808 21.99 76.1683 22.1475 76.1433 22.3275C76.1233 22.5075 76.0883 22.675 76.0383 22.83H73.7508C73.6458 22.83 73.5008 22.83 73.3158 22.83C73.1308 22.825 72.9383 22.82 72.7383 22.815V23.97C72.7383 24.165 72.7358 24.345 72.7308 24.51C72.7258 24.67 72.7233 24.85 72.7233 25.05V25.065C72.8933 25.055 73.0683 25.0475 73.2483 25.0425C73.4283 25.0375 73.6233 25.035 73.8333 25.035H77.3058ZM87.8245 19.9275C87.8245 20.4075 87.732 20.835 87.547 21.21C87.362 21.58 87.1295 21.89 86.8495 22.14C86.5695 22.385 86.287 22.5625 86.002 22.6725C86.282 22.7725 86.5145 22.945 86.6995 23.19C86.8895 23.435 87.042 23.7225 87.157 24.0525L87.607 25.32C87.777 25.805 88.0245 26.175 88.3495 26.43C88.1945 26.63 87.9695 26.7975 87.6745 26.9325C87.3795 27.0675 87.072 27.135 86.752 27.135C86.322 27.135 86.0095 27.02 85.8145 26.79C85.6195 26.555 85.442 26.2075 85.282 25.7475L84.742 24.18C84.657 23.92 84.5245 23.7 84.3445 23.52C84.1645 23.335 83.8745 23.2425 83.4745 23.2425H82.852V27C82.652 27.035 82.4445 27.0575 82.2295 27.0675C82.0145 27.0825 81.8245 27.09 81.6595 27.09C81.5145 27.09 81.3295 27.0825 81.1045 27.0675C80.8795 27.0575 80.6695 27.035 80.4745 27V16.83L80.5795 16.725C81.2195 16.71 81.8345 16.6975 82.4245 16.6875C83.0195 16.6725 83.602 16.665 84.172 16.665C84.867 16.665 85.4895 16.78 86.0395 17.01C86.5945 17.24 87.0295 17.595 87.3445 18.075C87.6645 18.555 87.8245 19.1725 87.8245 19.9275ZM82.852 18.465V21.405C83.087 21.395 83.307 21.3875 83.512 21.3825C83.722 21.3775 83.8745 21.375 83.9695 21.375C84.3495 21.375 84.6395 21.3075 84.8395 21.1725C85.0445 21.0325 85.1845 20.8525 85.2595 20.6325C85.3395 20.4125 85.3795 20.1775 85.3795 19.9275C85.3795 19.6675 85.3395 19.4275 85.2595 19.2075C85.1845 18.9875 85.0445 18.8125 84.8395 18.6825C84.6395 18.5475 84.3495 18.48 83.9695 18.48C83.8145 18.48 83.642 18.48 83.452 18.48C83.267 18.48 83.067 18.475 82.852 18.465ZM92.5344 19.845C92.5344 19.64 92.5369 19.4575 92.5419 19.2975C92.5469 19.1325 92.5494 18.945 92.5494 18.735H92.5344C92.4244 18.735 92.2669 18.7375 92.0619 18.7425C91.8569 18.7475 91.6994 18.75 91.5894 18.75H90.0369C90.0019 18.57 89.9794 18.395 89.9694 18.225C89.9594 18.05 89.9544 17.895 89.9544 17.76C89.9544 17.62 89.9594 17.4625 89.9694 17.2875C89.9794 17.1125 90.0019 16.935 90.0369 16.755H97.4619C97.4969 16.88 97.5244 17.0275 97.5444 17.1975C97.5694 17.3625 97.5819 17.5225 97.5819 17.6775C97.5819 18.0675 97.4794 18.345 97.2744 18.51C97.0744 18.67 96.7594 18.75 96.3294 18.75H95.8869C95.7769 18.75 95.6194 18.7475 95.4144 18.7425C95.2094 18.7375 95.0519 18.735 94.9419 18.735H94.9269C94.9269 18.945 94.9294 19.1325 94.9344 19.2975C94.9394 19.4575 94.9419 19.64 94.9419 19.845V27C94.7369 27.035 94.5269 27.0575 94.3119 27.0675C94.0969 27.0825 93.9069 27.09 93.7419 27.09C93.5719 27.09 93.3794 27.0825 93.1644 27.0675C92.9494 27.0575 92.7394 27.035 92.5344 27V19.845ZM101.777 24.855C101.697 24.855 101.602 24.8525 101.492 24.8475C101.387 24.8425 101.285 24.84 101.185 24.84L100.547 27.015C100.397 27.05 100.235 27.0725 100.06 27.0825C99.8898 27.0975 99.7123 27.105 99.5273 27.105C99.3473 27.105 99.1423 27.09 98.9123 27.06C98.6873 27.035 98.5073 26.995 98.3723 26.94L98.2823 26.8125L101.597 16.755C101.787 16.725 102.015 16.7025 102.28 16.6875C102.55 16.6725 102.785 16.665 102.985 16.665C103.175 16.665 103.405 16.675 103.675 16.695C103.945 16.71 104.177 16.735 104.372 16.77L107.597 26.8425C107.432 26.9375 107.217 27.01 106.952 27.06C106.692 27.11 106.45 27.135 106.225 27.135C105.845 27.135 105.547 27.0475 105.332 26.8725C105.117 26.6925 104.937 26.345 104.792 25.83L104.507 24.84C104.412 24.84 104.31 24.8425 104.2 24.8475C104.09 24.8525 103.995 24.855 103.915 24.855H101.777ZM102.077 21.8025L101.74 22.965C101.835 22.965 101.937 22.965 102.047 22.965C102.157 22.96 102.255 22.9575 102.34 22.9575H103.435C103.51 22.9575 103.595 22.96 103.69 22.965C103.79 22.965 103.887 22.965 103.982 22.965L103.72 22.0275C103.605 21.6075 103.47 21.1125 103.315 20.5425C103.16 19.9725 103.02 19.44 102.895 18.945H102.805C102.755 19.225 102.687 19.535 102.602 19.875C102.517 20.215 102.427 20.555 102.332 20.895C102.242 21.23 102.157 21.5325 102.077 21.8025ZM110.39 16.755C110.585 16.72 110.798 16.6975 111.028 16.6875C111.258 16.6725 111.448 16.665 111.598 16.665C111.758 16.665 111.948 16.6725 112.168 16.6875C112.388 16.6975 112.598 16.72 112.798 16.755V27C112.598 27.035 112.388 27.0575 112.168 27.0675C111.948 27.0825 111.758 27.09 111.598 27.09C111.448 27.09 111.258 27.0825 111.028 27.0675C110.798 27.0575 110.585 27.035 110.39 27V16.755ZM129.734 21.87C129.734 22.455 129.692 23.02 129.607 23.565C129.527 24.105 129.367 24.61 129.127 25.08C128.887 25.55 128.527 25.97 128.047 26.34C127.817 26.52 127.539 26.665 127.214 26.775C126.894 26.885 126.564 26.965 126.224 27.015C125.884 27.065 125.574 27.09 125.294 27.09C124.649 27.09 124.022 27.0825 123.412 27.0675C122.807 27.0575 122.177 27.045 121.522 27.03L121.417 26.925V16.83L121.522 16.725C122.167 16.705 122.794 16.69 123.404 16.68C124.019 16.67 124.649 16.665 125.294 16.665C125.574 16.665 125.884 16.6925 126.224 16.7475C126.564 16.7975 126.897 16.8775 127.222 16.9875C127.547 17.0975 127.822 17.2425 128.047 17.4225C128.522 17.7925 128.879 18.2125 129.119 18.6825C129.359 19.1475 129.522 19.65 129.607 20.19C129.692 20.73 129.734 21.29 129.734 21.87ZM127.267 21.87C127.267 21.49 127.242 21.105 127.192 20.715C127.147 20.32 127.057 19.96 126.922 19.635C126.792 19.305 126.594 19.04 126.329 18.84C126.069 18.635 125.724 18.5325 125.294 18.5325C125.039 18.5325 124.794 18.5325 124.559 18.5325C124.324 18.5325 124.074 18.5275 123.809 18.5175V25.23C124.074 25.225 124.324 25.2225 124.559 25.2225C124.794 25.2225 125.039 25.2225 125.294 25.2225C125.724 25.2225 126.069 25.1225 126.329 24.9225C126.594 24.7175 126.792 24.45 126.922 24.12C127.057 23.785 127.147 23.4225 127.192 23.0325C127.242 22.6375 127.267 22.25 127.267 21.87ZM132.966 16.755C133.161 16.72 133.374 16.6975 133.604 16.6875C133.834 16.6725 134.024 16.665 134.174 16.665C134.334 16.665 134.524 16.6725 134.744 16.6875C134.964 16.6975 135.174 16.72 135.374 16.755V27C135.174 27.035 134.964 27.0575 134.744 27.0675C134.524 27.0825 134.334 27.09 134.174 27.09C134.024 27.09 133.834 27.0825 133.604 27.0675C133.374 27.0575 133.161 27.035 132.966 27V16.755ZM138.282 26.1075C138.312 25.7725 138.415 25.44 138.59 25.11C138.77 24.78 138.977 24.515 139.212 24.315C139.632 24.57 140.11 24.7975 140.645 24.9975C141.18 25.1975 141.715 25.2975 142.25 25.2975C142.685 25.2975 142.997 25.1925 143.187 24.9825C143.377 24.7725 143.472 24.5475 143.472 24.3075C143.472 24.1425 143.42 23.9575 143.315 23.7525C143.21 23.5475 142.947 23.3575 142.527 23.1825L140.72 22.4325C140.1 22.1725 139.587 21.825 139.182 21.39C138.777 20.955 138.575 20.38 138.575 19.665C138.575 19.04 138.737 18.4925 139.062 18.0225C139.387 17.5525 139.825 17.1875 140.375 16.9275C140.93 16.6625 141.547 16.53 142.227 16.53C142.932 16.53 143.597 16.625 144.222 16.815C144.847 17 145.355 17.1925 145.745 17.3925C145.725 17.7375 145.642 18.07 145.497 18.39C145.357 18.705 145.17 18.97 144.935 19.185C144.555 19.005 144.11 18.84 143.6 18.69C143.09 18.535 142.632 18.4575 142.227 18.4575C141.797 18.4575 141.49 18.555 141.305 18.75C141.125 18.945 141.035 19.1425 141.035 19.3425C141.035 19.5325 141.097 19.7025 141.222 19.8525C141.352 20.0025 141.582 20.1475 141.912 20.2875L143.757 21.045C144.482 21.345 145.04 21.7525 145.43 22.2675C145.825 22.7825 146.022 23.3625 146.022 24.0075C146.022 24.6125 145.875 25.1575 145.58 25.6425C145.29 26.1275 144.852 26.5125 144.267 26.7975C143.682 27.0825 142.952 27.225 142.077 27.225C141.472 27.225 140.827 27.13 140.142 26.94C139.457 26.745 138.837 26.4675 138.282 26.1075ZM154.27 20.835C154.28 20.42 154.237 20.03 154.142 19.665C154.052 19.295 153.885 18.9975 153.64 18.7725C153.4 18.5425 153.06 18.4275 152.62 18.4275C151.975 18.4275 151.515 18.7275 151.24 19.3275C150.97 19.9225 150.835 20.79 150.835 21.93C150.835 22.995 151.012 23.795 151.367 24.33C151.727 24.865 152.235 25.1325 152.89 25.1325C153.41 25.1325 153.877 25.0225 154.292 24.8025C154.712 24.5825 155.095 24.3425 155.44 24.0825C155.675 24.2425 155.902 24.47 156.122 24.765C156.347 25.06 156.487 25.3475 156.542 25.6275C156.252 25.9125 155.892 26.1775 155.462 26.4225C155.037 26.6625 154.567 26.855 154.052 27C153.537 27.15 153.002 27.225 152.447 27.225C151.662 27.225 151.002 27.0725 150.467 26.7675C149.937 26.4575 149.515 26.0475 149.2 25.5375C148.885 25.0225 148.657 24.4525 148.517 23.8275C148.382 23.1975 148.315 22.56 148.315 21.915C148.315 20.66 148.512 19.635 148.907 18.84C149.307 18.045 149.84 17.46 150.505 17.085C151.17 16.71 151.902 16.5225 152.702 16.5225C153.477 16.5225 154.152 16.66 154.727 16.935C155.307 17.21 155.755 17.5825 156.07 18.0525C156.39 18.5225 156.55 19.0525 156.55 19.6425C156.55 20.1075 156.427 20.445 156.182 20.655C155.942 20.86 155.607 20.9625 155.177 20.9625C155.002 20.9625 154.842 20.95 154.697 20.925C154.557 20.9 154.415 20.87 154.27 20.835ZM158.882 21.87C158.882 20.8 159.042 19.865 159.362 19.065C159.687 18.265 160.18 17.6425 160.84 17.1975C161.5 16.7525 162.335 16.53 163.345 16.53C164.36 16.53 165.197 16.755 165.857 17.205C166.517 17.65 167.007 18.275 167.327 19.08C167.647 19.88 167.807 20.81 167.807 21.87C167.807 22.945 167.645 23.885 167.32 24.69C166.995 25.49 166.502 26.1125 165.842 26.5575C165.187 27.0025 164.355 27.225 163.345 27.225C162.325 27.225 161.485 27 160.825 26.55C160.17 26.1 159.682 25.475 159.362 24.675C159.042 23.87 158.882 22.935 158.882 21.87ZM161.387 21.87C161.387 22.265 161.407 22.6675 161.447 23.0775C161.492 23.4875 161.58 23.8675 161.71 24.2175C161.845 24.5675 162.042 24.85 162.302 25.065C162.562 25.275 162.91 25.38 163.345 25.38C163.775 25.38 164.12 25.275 164.38 25.065C164.64 24.85 164.835 24.5675 164.965 24.2175C165.1 23.8675 165.187 23.4875 165.227 23.0775C165.272 22.6675 165.295 22.265 165.295 21.87C165.295 21.475 165.272 21.0725 165.227 20.6625C165.187 20.2525 165.1 19.875 164.965 19.53C164.835 19.185 164.64 18.9075 164.38 18.6975C164.12 18.4825 163.775 18.375 163.345 18.375C162.91 18.375 162.562 18.4825 162.302 18.6975C162.042 18.9075 161.845 19.185 161.71 19.53C161.58 19.875 161.492 20.2525 161.447 20.6625C161.407 21.0725 161.387 21.475 161.387 21.87ZM178.323 19.9275C178.323 20.4075 178.23 20.835 178.045 21.21C177.86 21.58 177.628 21.89 177.348 22.14C177.068 22.385 176.785 22.5625 176.5 22.6725C176.78 22.7725 177.013 22.945 177.198 23.19C177.388 23.435 177.54 23.7225 177.655 24.0525L178.105 25.32C178.275 25.805 178.523 26.175 178.848 26.43C178.693 26.63 178.468 26.7975 178.173 26.9325C177.878 27.0675 177.57 27.135 177.25 27.135C176.82 27.135 176.508 27.02 176.313 26.79C176.118 26.555 175.94 26.2075 175.78 25.7475L175.24 24.18C175.155 23.92 175.023 23.7 174.843 23.52C174.663 23.335 174.373 23.2425 173.973 23.2425H173.35V27C173.15 27.035 172.943 27.0575 172.728 27.0675C172.513 27.0825 172.323 27.09 172.158 27.09C172.013 27.09 171.828 27.0825 171.603 27.0675C171.378 27.0575 171.168 27.035 170.973 27V16.83L171.078 16.725C171.718 16.71 172.333 16.6975 172.923 16.6875C173.518 16.6725 174.1 16.665 174.67 16.665C175.365 16.665 175.988 16.78 176.538 17.01C177.093 17.24 177.528 17.595 177.843 18.075C178.163 18.555 178.323 19.1725 178.323 19.9275ZM173.35 18.465V21.405C173.585 21.395 173.805 21.3875 174.01 21.3825C174.22 21.3775 174.373 21.375 174.468 21.375C174.848 21.375 175.138 21.3075 175.338 21.1725C175.543 21.0325 175.683 20.8525 175.758 20.6325C175.838 20.4125 175.878 20.1775 175.878 19.9275C175.878 19.6675 175.838 19.4275 175.758 19.2075C175.683 18.9875 175.543 18.8125 175.338 18.6825C175.138 18.5475 174.848 18.48 174.468 18.48C174.313 18.48 174.14 18.48 173.95 18.48C173.765 18.48 173.565 18.475 173.35 18.465ZM190.019 21.87C190.019 22.455 189.976 23.02 189.891 23.565C189.811 24.105 189.651 24.61 189.411 25.08C189.171 25.55 188.811 25.97 188.331 26.34C188.101 26.52 187.824 26.665 187.499 26.775C187.179 26.885 186.849 26.965 186.509 27.015C186.169 27.065 185.859 27.09 185.579 27.09C184.934 27.09 184.306 27.0825 183.696 27.0675C183.091 27.0575 182.461 27.045 181.806 27.03L181.701 26.925V16.83L181.806 16.725C182.451 16.705 183.079 16.69 183.689 16.68C184.304 16.67 184.934 16.665 185.579 16.665C185.859 16.665 186.169 16.6925 186.509 16.7475C186.849 16.7975 187.181 16.8775 187.506 16.9875C187.831 17.0975 188.106 17.2425 188.331 17.4225C188.806 17.7925 189.164 18.2125 189.404 18.6825C189.644 19.1475 189.806 19.65 189.891 20.19C189.976 20.73 190.019 21.29 190.019 21.87ZM187.551 21.87C187.551 21.49 187.526 21.105 187.476 20.715C187.431 20.32 187.341 19.96 187.206 19.635C187.076 19.305 186.879 19.04 186.614 18.84C186.354 18.635 186.009 18.5325 185.579 18.5325C185.324 18.5325 185.079 18.5325 184.844 18.5325C184.609 18.5325 184.359 18.5275 184.094 18.5175V25.23C184.359 25.225 184.609 25.2225 184.844 25.2225C185.079 25.2225 185.324 25.2225 185.579 25.2225C186.009 25.2225 186.354 25.1225 186.614 24.9225C186.879 24.7175 187.076 24.45 187.206 24.12C187.341 23.785 187.431 23.4225 187.476 23.0325C187.526 22.6375 187.551 22.25 187.551 21.87ZM206.086 26.4075C205.931 26.6375 205.706 26.815 205.411 26.94C205.121 27.065 204.816 27.1275 204.496 27.1275C204.061 27.1275 203.746 27.015 203.551 26.79C203.356 26.565 203.186 26.2225 203.041 25.7625L202.479 24.0075C202.329 23.5325 202.146 23.195 201.931 22.995C201.716 22.795 201.431 22.695 201.076 22.695C200.901 22.695 200.684 22.705 200.424 22.725V27C200.224 27.035 200.011 27.0575 199.786 27.0675C199.566 27.0825 199.376 27.09 199.216 27.09C199.071 27.09 198.884 27.0825 198.654 27.0675C198.424 27.0575 198.211 27.035 198.016 27V16.755C198.211 16.72 198.424 16.6975 198.654 16.6875C198.884 16.6725 199.071 16.665 199.216 16.665C199.376 16.665 199.566 16.6725 199.786 16.6875C200.011 16.6975 200.224 16.72 200.424 16.755V20.7075C200.559 20.7075 200.684 20.705 200.799 20.7C200.989 20.7 201.124 20.6675 201.204 20.6025C201.284 20.5325 201.376 20.395 201.481 20.19L202.899 17.4975C203.044 17.2175 203.199 17.01 203.364 16.875C203.529 16.74 203.786 16.6725 204.136 16.6725C204.331 16.6725 204.561 16.68 204.826 16.695C205.091 16.705 205.341 16.72 205.576 16.74L205.704 16.905L203.889 20.3475C203.774 20.5675 203.646 20.77 203.506 20.955C203.366 21.135 203.211 21.2975 203.041 21.4425C203.551 21.5575 203.921 21.77 204.151 22.08C204.381 22.385 204.561 22.74 204.691 23.145L205.306 24.9975C205.406 25.2925 205.491 25.5225 205.561 25.6875C205.636 25.8525 205.714 25.9875 205.794 26.0925C205.874 26.1975 205.971 26.3025 206.086 26.4075ZM211.301 24.855C211.221 24.855 211.126 24.8525 211.016 24.8475C210.911 24.8425 210.808 24.84 210.708 24.84L210.071 27.015C209.921 27.05 209.758 27.0725 209.583 27.0825C209.413 27.0975 209.236 27.105 209.051 27.105C208.871 27.105 208.666 27.09 208.436 27.06C208.211 27.035 208.031 26.995 207.896 26.94L207.806 26.8125L211.121 16.755C211.311 16.725 211.538 16.7025 211.803 16.6875C212.073 16.6725 212.308 16.665 212.508 16.665C212.698 16.665 212.928 16.675 213.198 16.695C213.468 16.71 213.701 16.735 213.896 16.77L217.121 26.8425C216.956 26.9375 216.741 27.01 216.476 27.06C216.216 27.11 215.973 27.135 215.748 27.135C215.368 27.135 215.071 27.0475 214.856 26.8725C214.641 26.6925 214.461 26.345 214.316 25.83L214.031 24.84C213.936 24.84 213.833 24.8425 213.723 24.8475C213.613 24.8525 213.518 24.855 213.438 24.855H211.301ZM211.601 21.8025L211.263 22.965C211.358 22.965 211.461 22.965 211.571 22.965C211.681 22.96 211.778 22.9575 211.863 22.9575H212.958C213.033 22.9575 213.118 22.96 213.213 22.965C213.313 22.965 213.411 22.965 213.506 22.965L213.243 22.0275C213.128 21.6075 212.993 21.1125 212.838 20.5425C212.683 19.9725 212.543 19.44 212.418 18.945H212.328C212.278 19.225 212.211 19.535 212.126 19.875C212.041 20.215 211.951 20.555 211.856 20.895C211.766 21.23 211.681 21.5325 211.601 21.8025ZM220.356 16.77C220.611 16.725 220.889 16.695 221.189 16.68C221.494 16.665 221.756 16.6575 221.976 16.6575C222.196 16.6575 222.441 16.665 222.711 16.68C222.981 16.695 223.244 16.725 223.499 16.77L224.384 20.4375C224.404 20.5275 224.436 20.6825 224.481 20.9025C224.531 21.1225 224.586 21.3725 224.646 21.6525C224.706 21.9325 224.761 22.2075 224.811 22.4775C224.866 22.7475 224.909 22.9775 224.939 23.1675H225.044C225.074 22.9775 225.116 22.7475 225.171 22.4775C225.226 22.2075 225.281 21.9325 225.336 21.6525C225.396 21.3725 225.451 21.1225 225.501 20.9025C225.551 20.6825 225.586 20.5275 225.606 20.4375L226.491 16.77C226.746 16.725 227.006 16.695 227.271 16.68C227.541 16.665 227.786 16.6575 228.006 16.6575C228.226 16.6575 228.489 16.665 228.794 16.68C229.099 16.695 229.376 16.725 229.626 16.77L230.421 26.97C230.251 27.015 230.054 27.045 229.829 27.06C229.609 27.08 229.401 27.09 229.206 27.09C229.026 27.09 228.849 27.085 228.674 27.075C228.504 27.065 228.331 27.045 228.156 27.015L227.931 22.8375C227.901 22.3075 227.874 21.7225 227.849 21.0825C227.824 20.4425 227.811 19.8775 227.811 19.3875H227.706L226.229 25.4925C226.049 25.5225 225.839 25.545 225.599 25.56C225.359 25.57 225.154 25.575 224.984 25.575C224.834 25.575 224.636 25.57 224.391 25.56C224.146 25.545 223.934 25.5225 223.754 25.4925L222.276 19.3875H222.179C222.174 19.8775 222.159 20.4425 222.134 21.0825C222.114 21.7225 222.089 22.3075 222.059 22.8375L221.826 27.015C221.656 27.045 221.484 27.065 221.309 27.075C221.134 27.085 220.956 27.09 220.776 27.09C220.586 27.09 220.379 27.08 220.154 27.06C219.934 27.045 219.736 27.015 219.561 26.97L220.356 16.77ZM233.909 16.755C234.104 16.72 234.316 16.6975 234.546 16.6875C234.776 16.6725 234.966 16.665 235.116 16.665C235.276 16.665 235.466 16.6725 235.686 16.6875C235.906 16.6975 236.116 16.72 236.316 16.755V27C236.116 27.035 235.906 27.0575 235.686 27.0675C235.466 27.0825 235.276 27.09 235.116 27.09C234.966 27.09 234.776 27.0825 234.546 27.0675C234.316 27.0575 234.104 27.035 233.909 27V16.755ZM240.357 23.865C240.272 22.9 240.182 21.9375 240.087 20.9775C239.992 20.0175 239.945 19.0475 239.945 18.0675V16.77C240.16 16.705 240.43 16.6625 240.755 16.6425C241.085 16.6225 241.412 16.625 241.737 16.65C242.067 16.67 242.34 16.71 242.555 16.77V18.0975C242.555 19.0575 242.5 20.0175 242.39 20.9775C242.285 21.9375 242.195 22.9 242.12 23.865C241.965 23.91 241.81 23.94 241.655 23.955C241.5 23.965 241.365 23.97 241.25 23.97C241.145 23.97 241.007 23.965 240.837 23.955C240.667 23.94 240.507 23.91 240.357 23.865ZM241.25 24.915C241.45 24.915 241.647 24.9375 241.842 24.9825C242.042 25.0225 242.212 25.0825 242.352 25.1625C242.407 25.2575 242.45 25.395 242.48 25.575C242.51 25.755 242.525 25.915 242.525 26.055C242.525 26.19 242.51 26.3475 242.48 26.5275C242.45 26.7025 242.407 26.835 242.352 26.925C242.212 27.005 242.042 27.065 241.842 27.105C241.647 27.15 241.45 27.1725 241.25 27.1725C241.045 27.1725 240.842 27.15 240.642 27.105C240.447 27.065 240.277 27.005 240.132 26.925C240.082 26.835 240.042 26.7025 240.012 26.5275C239.987 26.3475 239.975 26.19 239.975 26.055C239.975 25.915 239.987 25.755 240.012 25.575C240.042 25.395 240.082 25.2575 240.132 25.1625C240.277 25.0825 240.447 25.0225 240.642 24.9825C240.842 24.9375 241.045 24.915 241.25 24.915Z" fill="white"/>
</svg>
