<svg width="259" height="46" viewBox="0 0 259 46" fill="none" xmlns="http://www.w3.org/2000/svg">
<rect width="259" height="46" rx="5" fill="#7289DA"/>
<path d="M41.91 6.76563H19.0725C17.1475 6.76563 15.5813 8.33188 15.5813 10.2569V33.09C15.5813 35.015 17.1475 36.5813 19.0725 36.5813H38.3969L37.4956 33.4619L39.6787 35.4744L41.7394 37.3644L45.4187 40.5494V10.2613C45.4012 8.33625 43.835 6.76563 41.91 6.76563Z" fill="white"/>
<path d="M37.99 15.9312C35.5531 14.1069 33.2169 14.1594 33.2169 14.1594L32.9763 14.4306C35.8725 15.3012 37.22 16.5787 37.22 16.5787C35.4481 15.625 33.7113 15.1481 32.0925 14.96C30.8675 14.8244 29.6906 14.8594 28.6494 14.995C28.5488 14.995 28.4613 15.0125 28.3606 15.03C27.7656 15.1 26.3175 15.3012 24.4931 16.1019C23.8631 16.3731 23.4869 16.5787 23.4869 16.5787C23.4869 16.5787 24.8825 15.2312 27.9494 14.365L27.7788 14.1594C27.7788 14.1594 25.46 14.1069 23.0056 15.9312C23.0056 15.9312 20.5513 20.3456 20.5513 25.7794C20.5513 25.7794 21.9819 28.2337 25.7488 28.3519C25.7488 28.3519 26.3788 27.6037 26.8906 26.9562C24.725 26.3087 23.9069 24.9612 23.9069 24.9612C23.9069 24.9612 24.0775 25.0794 24.3838 25.25C24.4013 25.25 24.4188 25.2675 24.4538 25.285C24.5063 25.32 24.5544 25.3375 24.6069 25.3681C25.0313 25.6087 25.46 25.7925 25.8494 25.9456C26.5494 26.2344 27.385 26.4925 28.3563 26.6762C29.6338 26.9169 31.1344 27 32.7706 26.6937C33.5712 26.5406 34.3894 26.3175 35.2425 25.9631C35.8375 25.74 36.5025 25.4162 37.2025 24.9569C37.2025 24.9569 36.3494 26.335 34.1181 26.9694C34.63 27.5994 35.2425 28.3344 35.2425 28.3344C39.0094 28.2162 40.44 25.7619 40.44 25.7794C40.4444 20.3456 37.99 15.9312 37.99 15.9312ZM27.3238 24.1956C26.37 24.1956 25.5869 23.36 25.5869 22.3231C25.5869 21.2819 26.3525 20.4506 27.3238 20.4506C28.295 20.4506 29.0781 21.2862 29.0606 22.3231C29.0606 23.36 28.295 24.1956 27.3238 24.1956ZM33.5406 24.1956C32.5869 24.1956 31.8038 23.36 31.8038 22.3231C31.8038 21.2819 32.5694 20.4506 33.5406 20.4506C34.4944 20.4506 35.2775 21.2862 35.2775 22.3231C35.2819 23.36 34.5119 24.1956 33.5406 24.1956Z" fill="#7289DA"/>
<path d="M65.7967 17.312C65.8127 16.448 65.8127 15.568 65.8127 14.672H63.9407C63.9407 15.584 63.9407 16.464 63.9247 17.312H62.0527V19.168H63.9087C63.7967 22.912 63.3647 25.968 61.5727 28C62.0527 28.288 62.6767 28.928 62.9647 29.392C65.0287 27.024 65.5887 23.44 65.7487 19.168H67.3647C67.2687 24.512 67.1407 26.496 66.8367 26.928C66.6767 27.152 66.5327 27.216 66.2927 27.216C65.9887 27.216 65.4127 27.2 64.7727 27.152C65.1087 27.696 65.2847 28.528 65.3167 29.056C66.0687 29.088 66.7887 29.088 67.2527 28.992C67.7807 28.88 68.1167 28.72 68.4847 28.176C68.9807 27.44 69.0927 24.992 69.2367 18.176C69.2527 17.936 69.2527 17.312 69.2527 17.312H65.7967ZM71.9727 26.112V18.096H74.0367V26.112H71.9727ZM70.1327 16.272V29.056H71.9727V27.952H74.0367V28.944H75.9407V16.272H70.1327ZM82.5007 15.344V17.28H86.1487C86.1967 17.824 86.2607 18.4 86.3727 19.008L85.3967 18.832C84.5167 23.04 82.6127 26.128 79.2847 27.808C79.7807 28.176 80.6767 28.96 81.0287 29.36C83.8127 27.696 85.7327 25.04 86.9327 21.456C87.8127 24.32 89.5087 27.344 92.8207 29.344C93.1567 28.848 93.9407 28.016 94.3567 27.68C88.4687 24.208 88.0367 18.368 88.0367 15.344H82.5007ZM111.461 17.44C110.997 16.688 109.941 15.632 109.093 14.896L107.653 15.872C108.517 16.64 109.509 17.776 109.925 18.512L111.461 17.44ZM109.413 21.312C108.997 22.08 108.469 22.8 107.893 23.488C107.717 22.672 107.557 21.744 107.429 20.784H111.589V18.976H107.237C107.109 17.568 107.045 16.08 107.077 14.592H105.077C105.093 16.048 105.141 17.536 105.269 18.976H102.197V16.816C103.125 16.624 104.005 16.416 104.805 16.176L103.525 14.56C101.893 15.088 99.4127 15.6 97.1727 15.904C97.3807 16.336 97.6367 17.04 97.7167 17.504C98.5327 17.408 99.4127 17.296 100.277 17.152V18.976H97.2527V20.784H100.277V22.928C99.0127 23.152 97.8607 23.328 96.9487 23.472L97.4127 25.392C98.2607 25.232 99.2527 25.024 100.277 24.816V27.136C100.277 27.392 100.181 27.472 99.8927 27.472C99.6047 27.488 98.6767 27.504 97.7807 27.456C98.0527 27.984 98.3727 28.848 98.4527 29.376C99.7487 29.392 100.709 29.312 101.333 29.008C101.973 28.704 102.197 28.192 102.197 27.152V24.416L104.805 23.888L104.661 22.16C103.845 22.304 103.013 22.464 102.197 22.608V20.784H105.445C105.637 22.352 105.909 23.808 106.261 25.072C105.157 25.984 103.925 26.768 102.693 27.328C103.157 27.76 103.685 28.416 103.957 28.864C104.981 28.336 105.989 27.68 106.917 26.912C107.605 28.48 108.501 29.44 109.669 29.44C111.125 29.44 111.717 28.736 112.021 25.936C111.509 25.728 110.869 25.296 110.453 24.848C110.373 26.736 110.181 27.504 109.845 27.504C109.365 27.504 108.869 26.768 108.437 25.536C109.477 24.496 110.373 23.328 111.093 22.032L109.413 21.312ZM117.269 14.496C116.661 16.816 115.605 19.152 114.421 20.688C114.741 21.168 115.205 22.256 115.349 22.72C115.557 22.448 115.765 22.176 115.973 21.872V29.376H117.781V18.464C118.277 17.312 118.693 16.144 119.029 15.008L117.269 14.496ZM119.077 29.36H120.933V17.952H119.077V29.36ZM119.781 15.264C120.453 16.24 121.285 17.568 121.637 18.4L123.189 17.424C122.789 16.624 121.909 15.36 121.221 14.416L119.781 15.264ZM128.933 14.976H123.173V16.688H127.045V27.264C127.045 27.52 126.949 27.616 126.693 27.616C126.437 27.632 125.605 27.632 124.853 27.584C125.093 28.064 125.365 28.848 125.445 29.344C126.693 29.344 127.557 29.312 128.133 29.008C128.725 28.72 128.933 28.24 128.933 27.296V14.976ZM134.549 26.064V22.928H137.093V26.064H134.549ZM137.093 21.28H134.549V18.688H137.093V21.28ZM142.181 16.912C142.421 16.24 142.629 15.568 142.805 14.88L140.981 14.464C140.517 16.336 139.749 18.272 138.821 19.616V17.024H136.341C136.613 16.336 136.901 15.536 137.173 14.736L135.093 14.448C135.029 15.2 134.837 16.224 134.629 17.024H132.821V28.912H134.549V27.744H138.821V20.272C139.253 20.56 139.797 20.928 140.053 21.168C140.549 20.48 141.045 19.6 141.461 18.64H144.885C144.709 24.288 144.501 26.688 144.037 27.2C143.829 27.408 143.653 27.472 143.333 27.472C142.917 27.472 141.973 27.472 140.949 27.376C141.285 27.904 141.541 28.704 141.573 29.232C142.517 29.264 143.477 29.28 144.085 29.2C144.725 29.088 145.173 28.912 145.621 28.32C146.277 27.472 146.453 24.928 146.661 17.776C146.677 17.552 146.677 16.912 146.677 16.912H142.181ZM144.021 24.208C143.525 23.28 142.469 21.76 141.669 20.656L140.181 21.504C140.965 22.672 141.957 24.24 142.405 25.2L144.021 24.208ZM159.293 22.528C159.293 23.152 159.247 23.7547 159.157 24.336C159.071 24.912 158.901 25.4507 158.645 25.952C158.389 26.4533 158.005 26.9013 157.493 27.296C157.247 27.488 156.951 27.6427 156.605 27.76C156.263 27.8773 155.911 27.9627 155.549 28.016C155.186 28.0693 154.855 28.096 154.557 28.096C153.869 28.096 153.199 28.088 152.549 28.072C151.903 28.0613 151.231 28.048 150.533 28.032L150.421 27.92V17.152L150.533 17.04C151.221 17.0187 151.89 17.0027 152.541 16.992C153.197 16.9813 153.869 16.976 154.557 16.976C154.855 16.976 155.186 17.0053 155.549 17.064C155.911 17.1173 156.266 17.2027 156.613 17.32C156.959 17.4373 157.253 17.592 157.493 17.784C157.999 18.1787 158.381 18.6267 158.637 19.128C158.893 19.624 159.066 20.16 159.157 20.736C159.247 21.312 159.293 21.9093 159.293 22.528ZM156.661 22.528C156.661 22.1227 156.634 21.712 156.581 21.296C156.533 20.8747 156.437 20.4907 156.293 20.144C156.154 19.792 155.943 19.5093 155.661 19.296C155.383 19.0773 155.015 18.968 154.557 18.968C154.285 18.968 154.023 18.968 153.773 18.968C153.522 18.968 153.255 18.9627 152.973 18.952V26.112C153.255 26.1067 153.522 26.104 153.773 26.104C154.023 26.104 154.285 26.104 154.557 26.104C155.015 26.104 155.383 25.9973 155.661 25.784C155.943 25.5653 156.154 25.28 156.293 24.928C156.437 24.5707 156.533 24.184 156.581 23.768C156.634 23.3467 156.661 22.9333 156.661 22.528ZM162.74 17.072C162.948 17.0347 163.175 17.0107 163.42 17C163.666 16.984 163.868 16.976 164.028 16.976C164.199 16.976 164.402 16.984 164.636 17C164.871 17.0107 165.095 17.0347 165.308 17.072V28C165.095 28.0373 164.871 28.0613 164.636 28.072C164.402 28.088 164.199 28.096 164.028 28.096C163.868 28.096 163.666 28.088 163.42 28.072C163.175 28.0613 162.948 28.0373 162.74 28V17.072ZM168.41 27.048C168.442 26.6907 168.552 26.336 168.738 25.984C168.93 25.632 169.152 25.3493 169.402 25.136C169.85 25.408 170.36 25.6507 170.93 25.864C171.501 26.0773 172.072 26.184 172.642 26.184C173.106 26.184 173.44 26.072 173.642 25.848C173.845 25.624 173.946 25.384 173.946 25.128C173.946 24.952 173.89 24.7547 173.778 24.536C173.666 24.3173 173.386 24.1147 172.938 23.928L171.01 23.128C170.349 22.8507 169.802 22.48 169.37 22.016C168.938 21.552 168.722 20.9387 168.722 20.176C168.722 19.5093 168.896 18.9253 169.242 18.424C169.589 17.9227 170.056 17.5333 170.642 17.256C171.234 16.9733 171.893 16.832 172.618 16.832C173.37 16.832 174.08 16.9333 174.746 17.136C175.413 17.3333 175.954 17.5387 176.37 17.752C176.349 18.12 176.261 18.4747 176.106 18.816C175.957 19.152 175.757 19.4347 175.506 19.664C175.101 19.472 174.626 19.296 174.082 19.136C173.538 18.9707 173.05 18.888 172.618 18.888C172.16 18.888 171.832 18.992 171.634 19.2C171.442 19.408 171.346 19.6187 171.346 19.832C171.346 20.0347 171.413 20.216 171.546 20.376C171.685 20.536 171.93 20.6907 172.282 20.84L174.25 21.648C175.024 21.968 175.618 22.4027 176.034 22.952C176.456 23.5013 176.666 24.12 176.666 24.808C176.666 25.4533 176.509 26.0347 176.194 26.552C175.885 27.0693 175.418 27.48 174.794 27.784C174.17 28.088 173.392 28.24 172.458 28.24C171.813 28.24 171.125 28.1387 170.394 27.936C169.664 27.728 169.002 27.432 168.41 27.048ZM185.464 21.424C185.475 20.9813 185.429 20.5653 185.328 20.176C185.232 19.7813 185.053 19.464 184.792 19.224C184.536 18.9787 184.173 18.856 183.704 18.856C183.016 18.856 182.525 19.176 182.232 19.816C181.944 20.4507 181.8 21.376 181.8 22.592C181.8 23.728 181.989 24.5813 182.368 25.152C182.752 25.7227 183.293 26.008 183.992 26.008C184.547 26.008 185.045 25.8907 185.488 25.656C185.936 25.4213 186.344 25.1653 186.712 24.888C186.963 25.0587 187.205 25.3013 187.44 25.616C187.68 25.9307 187.829 26.2373 187.888 26.536C187.579 26.84 187.195 27.1227 186.736 27.384C186.283 27.64 185.781 27.8453 185.232 28C184.683 28.16 184.112 28.24 183.52 28.24C182.683 28.24 181.979 28.0773 181.408 27.752C180.843 27.4213 180.392 26.984 180.056 26.44C179.72 25.8907 179.477 25.2827 179.328 24.616C179.184 23.944 179.112 23.264 179.112 22.576C179.112 21.2373 179.323 20.144 179.744 19.296C180.171 18.448 180.739 17.824 181.448 17.424C182.157 17.024 182.939 16.824 183.792 16.824C184.619 16.824 185.339 16.9707 185.952 17.264C186.571 17.5573 187.048 17.9547 187.384 18.456C187.725 18.9573 187.896 19.5227 187.896 20.152C187.896 20.648 187.765 21.008 187.504 21.232C187.248 21.4507 186.891 21.56 186.432 21.56C186.245 21.56 186.075 21.5467 185.92 21.52C185.771 21.4933 185.619 21.4613 185.464 21.424ZM190.384 22.528C190.384 21.3867 190.554 20.3893 190.896 19.536C191.242 18.6827 191.768 18.0187 192.472 17.544C193.176 17.0693 194.066 16.832 195.144 16.832C196.226 16.832 197.12 17.072 197.824 17.552C198.528 18.0267 199.05 18.6933 199.392 19.552C199.733 20.4053 199.904 21.3973 199.904 22.528C199.904 23.6747 199.73 24.6773 199.384 25.536C199.037 26.3893 198.512 27.0533 197.808 27.528C197.109 28.0027 196.221 28.24 195.144 28.24C194.056 28.24 193.16 28 192.456 27.52C191.757 27.04 191.237 26.3733 190.896 25.52C190.554 24.6613 190.384 23.664 190.384 22.528ZM193.056 22.528C193.056 22.9493 193.077 23.3787 193.12 23.816C193.168 24.2533 193.261 24.6587 193.4 25.032C193.544 25.4053 193.754 25.7067 194.032 25.936C194.309 26.16 194.68 26.272 195.144 26.272C195.602 26.272 195.97 26.16 196.248 25.936C196.525 25.7067 196.733 25.4053 196.872 25.032C197.016 24.6587 197.109 24.2533 197.152 23.816C197.2 23.3787 197.224 22.9493 197.224 22.528C197.224 22.1067 197.2 21.6773 197.152 21.24C197.109 20.8027 197.016 20.4 196.872 20.032C196.733 19.664 196.525 19.368 196.248 19.144C195.97 18.9147 195.602 18.8 195.144 18.8C194.68 18.8 194.309 18.9147 194.032 19.144C193.754 19.368 193.544 19.664 193.4 20.032C193.261 20.4 193.168 20.8027 193.12 21.24C193.077 21.6773 193.056 22.1067 193.056 22.528ZM211.12 20.456C211.12 20.968 211.021 21.424 210.824 21.824C210.627 22.2187 210.379 22.5493 210.08 22.816C209.781 23.0773 209.48 23.2667 209.176 23.384C209.475 23.4907 209.723 23.6747 209.92 23.936C210.123 24.1973 210.285 24.504 210.408 24.856L210.888 26.208C211.069 26.7253 211.333 27.12 211.68 27.392C211.515 27.6053 211.275 27.784 210.96 27.928C210.645 28.072 210.317 28.144 209.976 28.144C209.517 28.144 209.184 28.0213 208.976 27.776C208.768 27.5253 208.579 27.1547 208.408 26.664L207.832 24.992C207.741 24.7147 207.6 24.48 207.408 24.288C207.216 24.0907 206.907 23.992 206.48 23.992H205.816V28C205.603 28.0373 205.381 28.0613 205.152 28.072C204.923 28.088 204.72 28.096 204.544 28.096C204.389 28.096 204.192 28.088 203.952 28.072C203.712 28.0613 203.488 28.0373 203.28 28V17.152L203.392 17.04C204.075 17.024 204.731 17.0107 205.36 17C205.995 16.984 206.616 16.976 207.224 16.976C207.965 16.976 208.629 17.0987 209.216 17.344C209.808 17.5893 210.272 17.968 210.608 18.48C210.949 18.992 211.12 19.6507 211.12 20.456ZM205.816 18.896V22.032C206.067 22.0213 206.301 22.0133 206.52 22.008C206.744 22.0027 206.907 22 207.008 22C207.413 22 207.723 21.928 207.936 21.784C208.155 21.6347 208.304 21.4427 208.384 21.208C208.469 20.9733 208.512 20.7227 208.512 20.456C208.512 20.1787 208.469 19.9227 208.384 19.688C208.304 19.4533 208.155 19.2667 207.936 19.128C207.723 18.984 207.413 18.912 207.008 18.912C206.843 18.912 206.659 18.912 206.456 18.912C206.259 18.912 206.045 18.9067 205.816 18.896ZM223.596 22.528C223.596 23.152 223.55 23.7547 223.46 24.336C223.374 24.912 223.204 25.4507 222.948 25.952C222.692 26.4533 222.308 26.9013 221.796 27.296C221.55 27.488 221.254 27.6427 220.908 27.76C220.566 27.8773 220.214 27.9627 219.852 28.016C219.489 28.0693 219.158 28.096 218.86 28.096C218.172 28.096 217.502 28.088 216.852 28.072C216.206 28.0613 215.534 28.048 214.836 28.032L214.724 27.92V17.152L214.836 17.04C215.524 17.0187 216.193 17.0027 216.844 16.992C217.5 16.9813 218.172 16.976 218.86 16.976C219.158 16.976 219.489 17.0053 219.852 17.064C220.214 17.1173 220.569 17.2027 220.916 17.32C221.262 17.4373 221.556 17.592 221.796 17.784C222.302 18.1787 222.684 18.6267 222.94 19.128C223.196 19.624 223.369 20.16 223.46 20.736C223.55 21.312 223.596 21.9093 223.596 22.528ZM220.964 22.528C220.964 22.1227 220.937 21.712 220.884 21.296C220.836 20.8747 220.74 20.4907 220.596 20.144C220.457 19.792 220.246 19.5093 219.964 19.296C219.686 19.0773 219.318 18.968 218.86 18.968C218.588 18.968 218.326 18.968 218.076 18.968C217.825 18.968 217.558 18.9627 217.276 18.952V26.112C217.558 26.1067 217.825 26.104 218.076 26.104C218.326 26.104 218.588 26.104 218.86 26.104C219.318 26.104 219.686 25.9973 219.964 25.784C220.246 25.5653 220.457 25.28 220.596 24.928C220.74 24.5707 220.836 24.184 220.884 23.768C220.937 23.3467 220.964 22.9333 220.964 22.528ZM232.979 23.888H234.611L235.043 18.416L235.123 16.032H232.467L232.547 18.416L232.979 23.888ZM233.795 28.144C234.595 28.144 235.203 27.568 235.203 26.736C235.203 25.888 234.595 25.312 233.795 25.312C232.995 25.312 232.387 25.888 232.387 26.736C232.387 27.568 232.979 28.144 233.795 28.144Z" fill="white"/>
</svg>
