<svg version="1.2" baseProfile="tiny-ps" xmlns="http://www.w3.org/2000/svg" viewBox="0 0 259 46" width="259" height="46">
	<title>join_our_discord_ta-svg</title>
	<style>
		tspan { white-space:pre }
		.shp0 { fill: #7289da } 
		.shp1 { fill: #ffffff } 
	</style>
	<path id="Layer" class="shp0" d="M0 5C0 2.24 2.24 0 5 0L254 0C256.76 0 259 2.24 259 5L259 41C259 43.76 256.76 46 254 46L5 46C2.24 46 0 43.76 0 41L0 5Z" />
	<path id="Layer" class="shp1" d="M36.91 6.77L14.07 6.77C12.15 6.77 10.58 8.33 10.58 10.26L10.58 33.09C10.58 35.02 12.15 36.58 14.07 36.58L33.4 36.58L32.5 33.46L34.68 35.47L36.74 37.36L40.42 40.55L40.42 10.26C40.4 8.34 38.84 6.77 36.91 6.77Z" />
	<path id="Layer" fill-rule="evenodd" class="shp0" d="M35.44 25.78C35.44 25.76 34.01 28.22 30.24 28.33C30.24 28.33 29.63 27.6 29.12 26.97C31.35 26.34 32.2 24.96 32.2 24.96C31.5 25.42 30.84 25.74 30.24 25.96C29.39 26.32 28.57 26.54 27.77 26.69C26.13 27 24.63 26.92 23.36 26.68C22.39 26.49 21.55 26.23 20.85 25.95C20.46 25.79 20.03 25.61 19.61 25.37C19.55 25.34 19.51 25.32 19.45 25.29C19.42 25.27 19.4 25.25 19.38 25.25C19.08 25.08 18.91 24.96 18.91 24.96C18.91 24.96 19.73 26.31 21.89 26.96C21.38 27.6 20.75 28.35 20.75 28.35C16.98 28.23 15.55 25.78 15.55 25.78C15.55 20.35 18.01 15.93 18.01 15.93C20.46 14.11 22.78 14.16 22.78 14.16L22.95 14.37C19.88 15.23 18.49 16.58 18.49 16.58C18.49 16.58 18.86 16.37 19.49 16.1C21.32 15.3 22.77 15.1 23.36 15.03C23.46 15.01 23.55 14.99 23.65 14.99C24.69 14.86 25.87 14.82 27.09 14.96C28.71 15.15 30.45 15.63 32.22 16.58C32.22 16.58 30.87 15.3 27.98 14.43L28.22 14.16C28.22 14.16 30.55 14.11 32.99 15.93C32.99 15.93 35.44 20.35 35.44 25.78ZM24.06 22.32C24.08 21.29 23.3 20.45 22.32 20.45C21.35 20.45 20.59 21.28 20.59 22.32C20.59 23.36 21.37 24.2 22.32 24.2C23.3 24.2 24.06 23.36 24.06 22.32ZM30.28 22.32C30.28 21.29 29.49 20.45 28.54 20.45C27.57 20.45 26.8 21.28 26.8 22.32C26.8 23.36 27.59 24.2 28.54 24.2C29.51 24.2 30.28 23.36 30.28 22.32Z" />
	<path id="எங்களின் Discord  செயலியில் இணைய" fill="#ffffff" aria-label="எங்களின் Discord 
செயலியில் இணையுங்கள்."  d="M54.49 14.95Q55.21 15.6 55.21 16.68Q55.21 17.75 54.48 18.45Q53.75 19.14 52.56 19.14Q51.11 19.14 50.27 18.2Q49.43 17.25 49.43 15.65Q49.43 13.44 50.81 12.27Q52.2 11.08 54.66 11.08L59.32 11.08L59.32 12.41L57.94 12.41L57.94 19L56.3 19L56.3 12.41L54.69 12.41Q51.27 12.41 51.01 15.26Q51.48 14.3 52.79 14.3Q53.79 14.3 54.49 14.95ZM51.33 16.69Q51.33 17.19 51.65 17.5Q51.97 17.8 52.51 17.8Q53.04 17.8 53.36 17.5Q53.7 17.19 53.7 16.69Q53.7 16.17 53.36 15.88Q53.04 15.57 52.51 15.57Q51.97 15.57 51.65 15.88Q51.33 16.17 51.33 16.69ZM71.7 17.67L71.7 11.08L73.35 11.08L73.35 18.99L72.23 18.99L64.56 19L64.56 17.67L66.67 17.67Q67.64 17.67 68.16 17.22Q68.68 16.76 68.68 15.95Q68.68 15.4 68.34 15.07Q68 14.73 67.44 14.73Q66.81 14.73 66.49 15.12Q66.18 15.5 66.18 16.05L66.18 16.23L64.56 16.23L64.56 12.39L62.28 12.39L62.28 19L60.64 19L60.64 11.08L67.68 11.08L67.68 12.39L66.18 12.39L66.18 14.58Q66.39 14.04 66.88 13.74Q67.39 13.41 68 13.41Q69 13.41 69.61 14.02Q70.23 14.62 70.23 15.56Q70.23 17.01 69.03 17.67L71.7 17.67ZM68.05 9.09Q68.05 9.54 67.74 9.86Q67.44 10.17 67.01 10.17Q66.58 10.17 66.27 9.86Q65.96 9.54 65.96 9.09Q65.96 8.67 66.27 8.37Q66.58 8.07 67.01 8.07Q67.44 8.07 67.74 8.37Q68.05 8.68 68.05 9.09ZM80.2 12.39L78.14 12.39L78.14 14.21L80.2 14.21L80.2 12.39ZM78.1 17.88Q80.2 17.88 80.2 15.65L80.2 15.53L78.04 15.53Q77.4 15.53 77.02 15.84Q76.66 16.13 76.66 16.72Q76.66 17.29 77.05 17.59Q77.44 17.88 78.1 17.88ZM81.82 14.21L82.41 14.21Q83.81 14.21 84.59 14.88Q85.39 15.56 85.39 16.68Q85.39 17.84 84.71 18.51Q84.02 19.17 82.82 19.17Q82.42 19.17 82.02 19.11L82.02 17.8Q82.2 17.82 82.48 17.82Q83.78 17.82 83.78 16.66Q83.78 16.07 83.45 15.81Q83.11 15.53 82.4 15.53L81.82 15.53L81.82 15.65Q81.82 17.26 80.9 18.24Q79.97 19.22 78.08 19.22Q76.66 19.22 75.84 18.55Q75.05 17.88 75.05 16.72Q75.05 14.98 76.53 14.45L76.53 11.08L83.21 11.08L83.21 12.39L81.82 12.39L81.82 14.21ZM89.65 19.14Q88.28 19.14 87.42 18.1Q86.57 17.07 86.57 15.46Q86.57 13.53 87.65 12.24Q88.72 10.94 90.59 10.94Q91.61 10.94 92.35 11.4Q93.11 11.85 93.43 12.55L93.43 11.08L97.17 11.08Q96.52 10.67 96.52 9.89Q96.52 8.92 97.33 8.35Q98.16 7.77 99.38 7.77Q101.04 7.77 101.97 8.72Q102.89 9.68 102.89 11.23L102.89 19L101.25 19L101.25 11.23Q101.25 10.28 100.79 9.69Q100.34 9.1 99.39 9.1Q98.82 9.1 98.45 9.37Q98.09 9.63 98.09 10.12Q98.09 10.56 98.37 10.82Q98.65 11.08 99.18 11.08L99.97 11.08L99.97 12.39L98.94 12.39L98.94 19L97.29 19L97.29 12.39L94.97 12.39L94.97 19L93.32 19L93.32 14.93Q93.32 13.83 92.63 13.05Q91.94 12.27 90.74 12.27Q89.47 12.27 88.78 13.16Q88.09 14.04 88.09 15.4Q88.29 14.93 88.81 14.62Q89.33 14.3 89.98 14.3Q90.96 14.3 91.61 14.95Q92.27 15.6 92.27 16.68Q92.27 17.75 91.54 18.45Q90.82 19.14 89.65 19.14ZM88.53 16.69Q88.53 17.19 88.84 17.5Q89.14 17.8 89.65 17.8Q90.15 17.8 90.45 17.5Q90.75 17.19 90.75 16.69Q90.75 16.17 90.45 15.88Q90.15 15.57 89.65 15.57Q89.14 15.57 88.84 15.88Q88.53 16.17 88.53 16.69ZM113.95 19.14Q112.76 19.14 112.01 18.37Q111.26 17.59 111.26 16.16Q111.26 14.09 112.66 12.69Q111.71 12.27 110.55 12.27Q108.76 12.27 107.57 13.18Q106.38 14.07 106.25 15.5Q106.43 15 106.92 14.65Q107.43 14.3 108.1 14.3Q109.08 14.3 109.72 14.95Q110.38 15.6 110.38 16.68Q110.38 17.75 109.67 18.45Q108.95 19.14 107.76 19.14Q106.42 19.14 105.59 18.26Q104.78 17.36 104.78 15.81Q104.78 13.68 106.39 12.31Q108.02 10.94 110.58 10.94Q112.48 10.94 113.92 11.78Q115.25 11.08 116.98 11.08L120.88 11.08L120.88 12.39L119.48 12.39L119.48 19L117.83 19L117.83 12.39L117.02 12.39Q115.95 12.39 115.14 12.7Q116.58 14.18 116.58 16.14Q116.58 17.54 115.86 18.34Q115.13 19.14 113.95 19.14ZM113.94 17.81Q114.48 17.81 114.75 17.36Q115.03 16.91 115.03 16.16Q115.03 14.58 113.88 13.5Q112.83 14.51 112.83 16.16Q112.83 16.94 113.11 17.38Q113.41 17.81 113.94 17.81ZM106.64 16.69Q106.64 17.19 106.95 17.5Q107.26 17.8 107.75 17.8Q108.25 17.8 108.56 17.5Q108.87 17.19 108.87 16.69Q108.87 16.17 108.56 15.88Q108.25 15.57 107.75 15.57Q107.25 15.57 106.94 15.88Q106.64 16.17 106.64 16.69ZM113.88 9.09Q113.88 9.54 113.57 9.86Q113.28 10.17 112.85 10.17Q112.41 10.17 112.1 9.86Q111.8 9.54 111.8 9.09Q111.8 8.67 112.1 8.37Q112.41 8.07 112.85 8.07Q113.28 8.07 113.57 8.37Q113.88 8.68 113.88 9.09ZM128.6 19L125.52 19L125.52 9.56L128.6 9.56Q130.71 9.56 132.05 10.87Q133.4 12.17 133.4 14.16Q133.4 16.33 132.1 17.67Q130.79 19 128.6 19ZM128.54 11.05L127.32 11.05L127.32 17.53L128.57 17.53Q130.05 17.53 130.82 16.62Q131.59 15.7 131.59 14.16Q131.59 12.8 130.77 11.93Q129.95 11.05 128.54 11.05ZM136.65 11.9L136.65 19L134.97 19L134.97 11.9L136.65 11.9ZM136.81 9.77Q136.81 10.21 136.52 10.5Q136.23 10.8 135.81 10.8Q135.39 10.8 135.09 10.5Q134.8 10.21 134.8 9.77Q134.8 9.35 135.09 9.06Q135.39 8.77 135.81 8.77Q136.23 8.77 136.52 9.06Q136.81 9.35 136.81 9.77ZM143.17 16.96Q143.17 17.95 142.46 18.51Q141.74 19.07 140.55 19.07Q139.24 19.07 138.42 18.64L138.42 17.1Q139.36 17.73 140.45 17.73Q140.92 17.73 141.17 17.56Q141.43 17.38 141.43 17.07Q141.43 16.89 141.35 16.75Q141.27 16.59 141.03 16.45Q140.79 16.31 140.65 16.26Q140.52 16.19 140.13 16.02Q140.09 16 140.06 15.99Q140.05 15.98 140.01 15.96Q139.96 15.95 139.94 15.93Q138.38 15.23 138.38 13.92Q138.38 12.94 139.12 12.38Q139.87 11.82 140.99 11.82Q142.06 11.82 142.78 12.13L142.78 13.61Q142.08 13.19 141.03 13.19Q140.59 13.19 140.34 13.39Q140.1 13.57 140.1 13.86Q140.1 13.97 140.13 14.07Q140.17 14.17 140.26 14.27Q140.36 14.35 140.44 14.42Q140.52 14.49 140.68 14.58Q140.83 14.65 140.94 14.7Q141.06 14.76 141.25 14.84Q141.45 14.93 141.56 14.98Q142.3 15.35 142.74 15.79Q143.17 16.24 143.17 16.96ZM149.65 17.24L149.65 18.69Q148.91 19.13 147.8 19.13Q146.17 19.13 145.14 18.09Q144.14 17.05 144.14 15.47Q144.15 13.92 145.14 12.85Q146.15 11.79 147.89 11.79Q148.92 11.79 149.65 12.18L149.65 13.67Q148.95 13.22 148.06 13.22Q147.08 13.22 146.47 13.83Q145.87 14.45 145.86 15.47Q145.89 16.48 146.46 17.1Q147.05 17.71 148.04 17.71Q148.91 17.71 149.65 17.24ZM157.56 15.43Q157.56 17.04 156.65 18.08Q155.76 19.11 154.13 19.11Q152.52 19.11 151.61 18.1Q150.72 17.1 150.72 15.53Q150.72 13.9 151.65 12.85Q152.59 11.79 154.13 11.79Q155.77 11.79 156.67 12.83Q157.56 13.85 157.56 15.43ZM152.48 15.47Q152.48 16.45 152.91 17.11Q153.35 17.77 154.15 17.77Q154.97 17.77 155.39 17.12Q155.81 16.48 155.81 15.49Q155.81 14.46 155.41 13.82Q155 13.16 154.13 13.16Q153.33 13.16 152.9 13.82Q152.48 14.48 152.48 15.47ZM160.68 15.33L160.68 19L158.99 19L159 11.9L160.68 11.9L160.68 13.16Q161.17 11.85 162.48 11.85Q162.77 11.85 162.95 11.89L162.95 13.51Q162.63 13.37 162.24 13.37Q161.55 13.37 161.12 13.93Q160.68 14.49 160.68 15.33ZM165.29 15.49Q165.29 16.45 165.78 17.05Q166.27 17.66 167 17.66Q167.75 17.66 168.26 17.08Q168.76 16.49 168.76 15.39Q168.76 14.31 168.23 13.78Q167.7 13.23 167.01 13.23Q166.28 13.23 165.78 13.83Q165.29 14.42 165.29 15.49ZM170.44 9.1L170.44 19L168.76 19L168.76 17.89Q168.03 19.1 166.61 19.1Q165.21 19.1 164.38 18.03Q163.57 16.97 163.57 15.46Q163.57 13.78 164.42 12.8Q165.29 11.8 166.63 11.8Q168.02 11.8 168.76 12.99L168.76 9.1L170.44 9.1ZM59.2 28.47L59.2 36L57.55 36L57.55 28.5Q57.55 27.26 56.92 26.58Q56.3 25.88 55.14 25.88Q53.37 25.88 52.34 27.36Q51.3 28.85 51.3 31.06Q51.3 31.84 51.46 32.46Q51.68 31.84 52.27 31.48Q52.87 31.11 53.58 31.11Q54.63 31.11 55.36 31.81Q56.09 32.51 56.09 33.62Q56.09 34.73 55.38 35.45Q54.66 36.17 53.46 36.17Q52.51 36.17 51.75 35.73Q50.99 35.29 50.55 34.54Q50.11 33.8 49.87 32.92Q49.65 32.04 49.65 31.06Q49.65 29.28 50.25 27.82Q50.87 26.37 52.13 25.46Q53.4 24.55 55.14 24.55Q57.01 24.55 58.11 25.61Q59.2 26.66 59.2 28.47ZM52.56 32.78Q52.25 33.12 52.25 33.63Q52.25 34.15 52.56 34.49Q52.87 34.81 53.4 34.81Q53.93 34.81 54.24 34.49Q54.56 34.15 54.56 33.63Q54.56 33.1 54.24 32.78Q53.93 32.44 53.4 32.44Q52.87 32.44 52.56 32.78ZM67.67 31.21L70.06 31.21L70.06 32.53L67.67 32.53L67.67 32.65Q67.67 34.25 66.72 35.24Q65.76 36.22 63.93 36.22Q62.5 36.22 61.69 35.55Q60.89 34.88 60.89 33.72Q60.89 31.98 62.38 31.45L62.38 28.08L69.05 28.08L69.05 29.39L67.67 29.39L67.67 31.21ZM66.04 29.39L63.99 29.39L63.99 31.21L66.04 31.21L66.04 29.39ZM63.94 34.88Q66.04 34.88 66.04 32.65L66.04 32.53L63.89 32.53Q63.24 32.53 62.87 32.84Q62.5 33.13 62.5 33.72Q62.5 34.29 62.89 34.59Q63.29 34.88 63.94 34.88ZM82.97 28.08L82.94 36L75.87 36L75.87 35.02Q75.19 36.14 73.87 36.14Q72.75 36.14 72.04 35.43Q71.34 34.71 71.34 33.49L71.34 28.08L72.97 28.08L72.97 33.45Q72.97 34.1 73.3 34.46Q73.63 34.81 74.28 34.81Q74.92 34.81 75.24 34.45Q75.58 34.08 75.58 33.44L75.58 28.08L77.23 28.08L77.23 34.64L81.29 34.64L81.29 28.08L82.97 28.08ZM94.04 27.4Q94.04 26.19 94.86 25.49Q95.68 24.77 97.04 24.77Q98.76 24.77 99.73 25.71Q100.71 26.63 100.71 28.16L100.71 36L99.07 36L99.07 28.16Q99.07 27.19 98.54 26.65Q98.01 26.1 97.05 26.1Q96.4 26.1 96 26.44Q95.61 26.77 95.61 27.4Q95.61 27.88 95.86 28.57Q96.13 29.24 96.44 29.84Q96.76 30.44 97.01 31.25Q97.28 32.07 97.28 32.75Q97.28 34.33 96.48 35.24Q95.7 36.14 94.24 36.14Q92.95 36.14 92.2 35.37Q91.44 34.6 91.44 33.27L91.44 31.58Q91.44 30.41 91.03 29.84Q90.63 29.27 89.58 29.27Q88.14 29.27 87.25 30.15Q86.39 31.02 86.3 32.43Q86.47 31.94 86.97 31.62Q87.48 31.3 88.16 31.3Q89.14 31.3 89.79 31.95Q90.45 32.6 90.45 33.68Q90.45 34.75 89.73 35.45Q89.02 36.14 87.83 36.14Q86.47 36.14 85.66 35.19Q84.85 34.22 84.83 32.61Q84.83 30.6 86.16 29.27Q87.49 27.94 89.61 27.94Q91.27 27.94 92.15 28.87Q93.04 29.81 93.02 31.56L93.02 33.37Q93.05 34.05 93.36 34.43Q93.67 34.81 94.25 34.81Q94.97 34.81 95.32 34.24Q95.67 33.65 95.67 32.75Q95.67 31.97 95.26 31.03Q94.86 30.08 94.45 29.14Q94.04 28.2 94.04 27.4ZM88.93 33.69Q88.93 33.17 88.63 32.88Q88.32 32.57 87.81 32.57Q87.31 32.57 87 32.88Q86.71 33.17 86.71 33.69Q86.71 34.19 87 34.5Q87.31 34.8 87.81 34.8Q88.32 34.8 88.63 34.5Q88.93 34.19 88.93 33.69ZM118.47 28.16L118.47 36L116.84 36L116.84 28.16Q116.84 27.19 116.28 26.65Q115.72 26.1 114.72 26.1Q114.08 26.1 113.69 26.37Q113.31 26.62 113.31 27.14Q113.31 27.57 113.59 27.82Q113.87 28.08 114.4 28.08L114.57 28.08L114.54 36L107.47 36L107.47 35.02Q106.78 36.14 105.47 36.14Q104.35 36.14 103.63 35.43Q102.93 34.71 102.93 33.49L102.93 28.08L104.57 28.08L104.57 33.45Q104.57 34.1 104.89 34.46Q105.23 34.81 105.87 34.81Q106.52 34.81 106.84 34.45Q107.18 34.08 107.18 33.44L107.18 28.08L108.83 28.08L108.83 34.64L112.89 34.64L112.89 28.94Q111.74 28.45 111.74 27.07Q111.74 26.03 112.57 25.4Q113.39 24.77 114.71 24.77Q116.43 24.77 117.45 25.71Q118.47 26.65 118.47 28.16ZM120.24 32.46Q120.24 30.48 121.41 29.21Q122.59 27.94 124.68 27.94Q126.51 27.94 127.53 28.96Q128.55 29.98 128.54 31.77L128.54 33.37Q128.57 34.81 129.73 34.81Q131.17 34.81 131.17 32.37Q131.17 30.08 129.91 28.08L131.62 28.08Q132.8 30.08 132.8 32.37Q132.8 34.11 132 35.13Q131.2 36.14 129.72 36.14Q128.44 36.14 127.69 35.37Q126.94 34.6 126.94 33.27L126.96 31.79Q126.96 30.6 126.4 29.94Q125.84 29.27 124.65 29.27Q123.29 29.27 122.52 30.18Q121.76 31.07 121.76 32.4Q121.96 31.93 122.48 31.62Q123 31.3 123.65 31.3Q124.63 31.3 125.28 31.95Q125.94 32.6 125.94 33.68Q125.94 34.75 125.21 35.45Q124.49 36.14 123.32 36.14Q121.95 36.14 121.09 35.1Q120.24 34.07 120.24 32.46ZM122.2 33.69Q122.2 34.19 122.51 34.5Q122.81 34.8 123.32 34.8Q123.82 34.8 124.12 34.5Q124.42 34.19 124.42 33.69Q124.42 33.17 124.12 32.88Q123.82 32.57 123.32 32.57Q122.81 32.57 122.51 32.88Q122.2 33.17 122.2 33.69ZM127.41 26.09Q127.41 26.54 127.1 26.86Q126.8 27.17 126.37 27.17Q125.94 27.17 125.63 26.86Q125.32 26.54 125.32 26.09Q125.32 25.67 125.63 25.37Q125.94 25.07 126.37 25.07Q126.8 25.07 127.1 25.37Q127.41 25.68 127.41 26.09ZM144.53 32.49Q145.9 32.49 147.19 32.74Q147.31 32.19 147.31 31.63Q147.31 30.68 146.82 30.09Q146.35 29.5 145.47 29.5Q144.86 29.5 144.54 29.83Q144.23 30.15 144.23 30.71Q144.23 30.89 144.3 31.28L142.75 31.28Q142.67 30.97 142.67 30.61Q142.67 29.56 143.42 28.87Q144.18 28.17 145.4 28.17Q147.08 28.16 147.94 29.14Q148.83 30.11 148.83 31.62Q148.83 32.36 148.62 33.12Q150.02 33.61 150.83 34.43Q151.65 35.26 151.65 36.38Q151.65 37.57 150.76 38.3Q149.88 39.02 148.22 39.02Q146.42 39.02 144.63 38.09Q142.93 39.02 140.97 39.02Q139.31 39.02 138.38 38.32Q137.47 37.61 137.47 36.36Q137.47 34.28 140.1 33.23Q139.56 31.87 139.56 30.48Q139.56 27.98 141.17 26.51Q142.79 25.02 145.66 25.02Q148.94 25.02 150.51 26.79Q152.07 28.55 152.07 31.69L152.07 32.88L150.46 32.88L150.46 31.69Q150.46 26.34 145.66 26.34Q143.53 26.34 142.32 27.39Q141.1 28.44 141.1 30.48Q141.1 31.69 141.53 32.79Q142.99 32.49 144.53 32.49ZM144.53 33.8Q143.21 33.8 142.16 34.01Q143.11 35.51 144.64 36.48Q146 35.5 146.74 34.01Q145.65 33.8 144.53 33.8ZM148.25 37.69Q150.1 37.69 150.1 36.36Q150.1 35.12 148.14 34.39Q147.36 36.01 145.96 37.19Q147.2 37.69 148.25 37.69ZM140.97 37.68Q142.12 37.68 143.27 37.23Q141.67 36.04 140.71 34.42Q139.01 35.09 139.01 36.35Q139.01 37.68 140.97 37.68ZM165.37 33.14Q165.37 34.46 164.66 35.3Q163.95 36.14 162.73 36.14Q161.54 36.14 160.78 35.3Q160.03 34.45 160.03 32.96Q160.03 31.02 161.15 29.62Q160.17 29.27 158.96 29.27Q157.31 29.27 156.2 30.11Q155.11 30.93 154.97 32.23Q155.17 31.8 155.64 31.55Q156.13 31.3 156.78 31.3Q157.81 31.3 158.47 31.95Q159.14 32.6 159.14 33.68Q159.14 34.75 158.42 35.45Q157.7 36.14 156.53 36.14Q155.15 36.14 154.31 35.17Q153.49 34.21 153.49 32.65Q153.49 30.55 155 29.25Q156.53 27.94 158.99 27.94Q160.8 27.94 162.25 28.62Q163.33 27.94 164.73 27.94Q166.94 27.94 168.2 29.17Q169.46 30.4 169.46 32.44Q169.46 34.19 168.54 36L166.83 36Q167.81 34.1 167.81 32.44Q167.81 31.02 167.03 30.15Q166.24 29.27 164.73 29.27Q164.11 29.27 163.58 29.48Q165.35 30.99 165.37 33.14ZM163.81 33.12Q163.81 31.38 162.45 30.33Q161.58 31.39 161.58 33Q161.58 33.83 161.87 34.32Q162.18 34.81 162.71 34.81Q163.26 34.81 163.53 34.35Q163.81 33.87 163.81 33.12ZM155.39 33.69Q155.39 34.19 155.7 34.5Q156.02 34.8 156.51 34.8Q157.02 34.8 157.32 34.5Q157.63 34.19 157.63 33.69Q157.63 33.17 157.32 32.88Q157.02 32.57 156.51 32.57Q156.02 32.57 155.7 32.88Q155.39 33.17 155.39 33.69ZM173.87 36.14Q172.53 36.14 171.7 35.26Q170.89 34.36 170.89 32.81Q170.89 30.67 172.49 29.31Q174.1 27.94 176.66 27.94Q178.53 27.94 180.02 28.78Q181.4 27.94 183.17 27.94Q184.93 27.94 186.37 28.8Q187.79 28.08 189.58 28.08L193.3 28.08L193.3 29.39L191.9 29.39L191.9 36L190.25 36L190.25 29.39L189.64 29.39Q188.45 29.39 187.55 29.74Q188.99 31.21 188.99 33.12Q188.99 34.53 188.24 35.34Q187.48 36.14 186.33 36.14Q185.18 36.14 184.43 35.34Q183.67 34.54 183.67 33.13Q183.67 31.1 185.13 29.69Q184.2 29.27 183.15 29.27Q182.12 29.27 181.21 29.69Q182.69 31.14 182.69 33.14Q182.69 34.56 181.95 35.36Q181.21 36.14 180.05 36.14Q178.87 36.14 178.11 35.34Q177.37 34.54 177.37 33.13Q177.37 31.2 178.81 29.71Q177.83 29.27 176.63 29.27Q174.87 29.27 173.72 30.09Q172.58 30.9 172.39 32.26Q172.63 31.84 173.1 31.58Q173.58 31.3 174.18 31.3Q175.17 31.3 175.83 31.95Q176.49 32.61 176.49 33.68Q176.49 34.75 175.78 35.45Q175.06 36.14 173.87 36.14ZM185.52 34.36Q185.81 34.81 186.33 34.81Q186.85 34.81 187.13 34.36Q187.42 33.9 187.42 33.12Q187.42 31.62 186.32 30.51Q185.23 31.52 185.23 33.12Q185.23 33.91 185.52 34.36ZM180.05 34.81Q180.58 34.81 180.84 34.36Q181.12 33.91 181.12 33.14Q181.12 31.6 180.02 30.53Q178.94 31.63 178.94 33.14Q178.94 33.91 179.22 34.36Q179.5 34.81 180.05 34.81ZM172.75 33.69Q172.75 34.19 173.06 34.5Q173.37 34.8 173.86 34.8Q174.36 34.8 174.67 34.5Q174.98 34.19 174.98 33.69Q174.98 33.17 174.67 32.88Q174.36 32.57 173.86 32.57Q173.35 32.57 173.05 32.88Q172.75 33.17 172.75 33.69ZM206.21 28.08L206.18 36L206.18 38L204.56 38L204.56 36L199.11 36L199.11 35.02Q198.43 36.14 197.11 36.14Q195.99 36.14 195.28 35.43Q194.58 34.71 194.58 33.49L194.58 28.08L196.22 28.08L196.22 33.45Q196.22 34.1 196.54 34.46Q196.87 34.81 197.52 34.81Q198.16 34.81 198.48 34.45Q198.82 34.08 198.82 33.44L198.82 28.08L200.47 28.08L200.47 34.64L204.53 34.64L204.53 28.08L206.21 28.08ZM219.54 34.67L219.54 28.08L221.19 28.08L221.19 35.99L220.07 35.99L212.4 36L212.4 34.67L214.51 34.67Q215.48 34.67 216 34.22Q216.52 33.76 216.52 32.95Q216.52 32.4 216.18 32.07Q215.84 31.73 215.28 31.73Q214.65 31.73 214.33 32.12Q214.02 32.5 214.02 33.05L214.02 33.23L212.4 33.23L212.4 29.39L210.12 29.39L210.12 36L208.48 36L208.48 28.08L215.52 28.08L215.52 29.39L214.02 29.39L214.02 31.58Q214.23 31.04 214.72 30.74Q215.23 30.41 215.84 30.41Q216.84 30.41 217.45 31.02Q218.07 31.62 218.07 32.56Q218.07 34.01 216.87 34.67L219.54 34.67ZM215.89 26.09Q215.89 26.54 215.58 26.86Q215.28 27.17 214.85 27.17Q214.42 27.17 214.11 26.86Q213.8 26.54 213.8 26.09Q213.8 25.67 214.11 25.37Q214.42 25.07 214.85 25.07Q215.28 25.07 215.58 25.37Q215.89 25.68 215.89 26.09ZM228.04 29.39L225.98 29.39L225.98 31.21L228.04 31.21L228.04 29.39ZM225.94 34.88Q228.04 34.88 228.04 32.65L228.04 32.53L225.88 32.53Q225.24 32.53 224.86 32.84Q224.5 33.13 224.5 33.72Q224.5 34.29 224.89 34.59Q225.28 34.88 225.94 34.88ZM229.66 31.21L230.25 31.21Q231.65 31.21 232.43 31.88Q233.23 32.56 233.23 33.68Q233.23 34.84 232.55 35.51Q231.86 36.17 230.66 36.17Q230.26 36.17 229.86 36.11L229.86 34.8Q230.04 34.82 230.32 34.82Q231.62 34.82 231.62 33.66Q231.62 33.07 231.29 32.81Q230.95 32.53 230.24 32.53L229.66 32.53L229.66 32.65Q229.66 34.26 228.74 35.24Q227.81 36.22 225.92 36.22Q224.5 36.22 223.68 35.55Q222.89 34.88 222.89 33.72Q222.89 31.98 224.37 31.45L224.37 28.08L231.05 28.08L231.05 29.39L229.66 29.39L229.66 31.21ZM237.49 36.14Q236.12 36.14 235.26 35.1Q234.41 34.07 234.41 32.46Q234.41 30.53 235.49 29.24Q236.56 27.94 238.43 27.94Q239.45 27.94 240.19 28.4Q240.95 28.85 241.27 29.55L241.27 28.08L248.18 28.08L248.18 29.39L246.78 29.39L246.78 36L245.13 36L245.13 29.39L242.81 29.39L242.81 36L241.16 36L241.16 31.93Q241.16 30.83 240.47 30.05Q239.78 29.27 238.58 29.27Q237.31 29.27 236.62 30.16Q235.93 31.04 235.93 32.4Q236.13 31.93 236.65 31.62Q237.17 31.3 237.82 31.3Q238.8 31.3 239.45 31.95Q240.11 32.6 240.11 33.68Q240.11 34.75 239.38 35.45Q238.66 36.14 237.49 36.14ZM236.37 33.69Q236.37 34.19 236.68 34.5Q236.98 34.8 237.49 34.8Q237.99 34.8 238.29 34.5Q238.59 34.19 238.59 33.69Q238.59 33.17 238.29 32.88Q237.99 32.57 237.49 32.57Q236.98 32.57 236.68 32.88Q236.37 33.17 236.37 33.69ZM242.35 26.09Q242.35 26.54 242.04 26.86Q241.74 27.17 241.31 27.17Q240.88 27.17 240.57 26.86Q240.26 26.54 240.26 26.09Q240.26 25.67 240.57 25.37Q240.88 25.07 241.31 25.07Q241.74 25.07 242.04 25.37Q242.35 25.68 242.35 26.09ZM250.69 34.26Q251.01 34.57 251.01 35.02Q251.01 35.47 250.69 35.79Q250.38 36.11 249.93 36.11Q249.49 36.11 249.16 35.79Q248.84 35.47 248.84 35.02Q248.84 34.57 249.16 34.26Q249.49 33.94 249.93 33.94Q250.38 33.94 250.69 34.26Z" />
</svg>