<svg width="259" height="46" viewBox="0 0 259 46" fill="none" xmlns="http://www.w3.org/2000/svg">
<rect width="259" height="46" rx="5" fill="#7289DA"/>
<path d="M41.91 6.76562H19.0725C17.1475 6.76562 15.5812 8.33188 15.5812 10.2569V33.09C15.5812 35.015 17.1475 36.5812 19.0725 36.5812H38.3969L37.4956 33.4619L39.6787 35.4744L41.7394 37.3644L45.4187 40.5494V10.2613C45.4012 8.33625 43.835 6.76562 41.91 6.76562Z" fill="white"/>
<path d="M37.99 15.9313C35.5531 14.1069 33.2169 14.1594 33.2169 14.1594L32.9763 14.4306C35.8725 15.3013 37.22 16.5788 37.22 16.5788C35.4481 15.625 33.7113 15.1481 32.0925 14.96C30.8675 14.8244 29.6906 14.8594 28.6494 14.995C28.5488 14.995 28.4613 15.0125 28.3606 15.03C27.7656 15.1 26.3175 15.3013 24.4931 16.1019C23.8631 16.3731 23.4869 16.5788 23.4869 16.5788C23.4869 16.5788 24.8825 15.2313 27.9494 14.365L27.7788 14.1594C27.7788 14.1594 25.46 14.1069 23.0056 15.9313C23.0056 15.9313 20.5513 20.3456 20.5513 25.7794C20.5513 25.7794 21.9819 28.2338 25.7488 28.3519C25.7488 28.3519 26.3788 27.6038 26.8906 26.9563C24.725 26.3088 23.9069 24.9613 23.9069 24.9613C23.9069 24.9613 24.0775 25.0794 24.3838 25.25C24.4013 25.25 24.4188 25.2675 24.4538 25.285C24.5063 25.32 24.5544 25.3375 24.6069 25.3681C25.0313 25.6088 25.46 25.7925 25.8494 25.9456C26.5494 26.2344 27.385 26.4925 28.3563 26.6763C29.6338 26.9169 31.1344 27 32.7706 26.6938C33.5713 26.5406 34.3894 26.3175 35.2425 25.9631C35.8375 25.74 36.5025 25.4163 37.2025 24.9569C37.2025 24.9569 36.3494 26.335 34.1181 26.9694C34.63 27.5994 35.2425 28.3344 35.2425 28.3344C39.0094 28.2163 40.44 25.7619 40.44 25.7794C40.4444 20.3456 37.99 15.9313 37.99 15.9313ZM27.3238 24.1956C26.37 24.1956 25.5869 23.36 25.5869 22.3231C25.5869 21.2819 26.3525 20.4506 27.3238 20.4506C28.295 20.4506 29.0781 21.2863 29.0606 22.3231C29.0606 23.36 28.295 24.1956 27.3238 24.1956ZM33.5406 24.1956C32.5869 24.1956 31.8038 23.36 31.8038 22.3231C31.8038 21.2819 32.5694 20.4506 33.5406 20.4506C34.4944 20.4506 35.2775 21.2863 35.2775 22.3231C35.2819 23.36 34.5119 24.1956 33.5406 24.1956Z" fill="#7289DA"/>
<path d="M57.8677 25.264C58.1197 25.414 58.3807 25.543 58.6507 25.651C58.9267 25.753 59.2057 25.804 59.4877 25.804C60.1417 25.804 60.5737 25.606 60.7837 25.21C60.9937 24.814 61.0987 24.262 61.0987 23.554V15.706C61.3327 15.664 61.5877 15.637 61.8637 15.625C62.1457 15.607 62.3737 15.598 62.5477 15.598C62.7397 15.598 62.9677 15.607 63.2317 15.625C63.4957 15.637 63.7477 15.664 63.9877 15.706V23.284C63.9877 24.226 63.8737 25.066 63.6457 25.804C63.4237 26.542 63.0097 27.124 62.4037 27.55C61.8037 27.97 60.9397 28.18 59.8117 28.18C59.3377 28.18 58.8367 28.117 58.3087 27.991C57.7807 27.859 57.3037 27.658 56.8777 27.388C56.9317 27.028 57.0427 26.656 57.2107 26.272C57.3847 25.888 57.6037 25.552 57.8677 25.264ZM67.5128 21.844C67.5128 20.56 67.7048 19.438 68.0888 18.478C68.4788 17.518 69.0698 16.771 69.8618 16.237C70.6538 15.703 71.6558 15.436 72.8678 15.436C74.0858 15.436 75.0908 15.706 75.8828 16.246C76.6748 16.78 77.2628 17.53 77.6468 18.496C78.0308 19.456 78.2228 20.572 78.2228 21.844C78.2228 23.134 78.0278 24.262 77.6378 25.228C77.2478 26.188 76.6568 26.935 75.8648 27.469C75.0788 28.003 74.0798 28.27 72.8678 28.27C71.6438 28.27 70.6358 28 69.8438 27.46C69.0578 26.92 68.4728 26.17 68.0888 25.21C67.7048 24.244 67.5128 23.122 67.5128 21.844ZM70.5188 21.844C70.5188 22.318 70.5428 22.801 70.5908 23.293C70.6448 23.785 70.7498 24.241 70.9058 24.661C71.0678 25.081 71.3048 25.42 71.6168 25.678C71.9288 25.93 72.3458 26.056 72.8678 26.056C73.3838 26.056 73.7978 25.93 74.1098 25.678C74.4218 25.42 74.6558 25.081 74.8118 24.661C74.9738 24.241 75.0788 23.785 75.1268 23.293C75.1808 22.801 75.2078 22.318 75.2078 21.844C75.2078 21.37 75.1808 20.887 75.1268 20.395C75.0788 19.903 74.9738 19.45 74.8118 19.036C74.6558 18.622 74.4218 18.289 74.1098 18.037C73.7978 17.779 73.3838 17.65 72.8678 17.65C72.3458 17.65 71.9288 17.779 71.6168 18.037C71.3048 18.289 71.0678 18.622 70.9058 19.036C70.7498 19.45 70.6448 19.903 70.5908 20.395C70.5428 20.887 70.5188 21.37 70.5188 21.844ZM82.0571 15.706C82.2911 15.664 82.5461 15.637 82.8221 15.625C83.0981 15.607 83.3261 15.598 83.5061 15.598C83.6981 15.598 83.9261 15.607 84.1901 15.625C84.4541 15.637 84.7061 15.664 84.9461 15.706V28C84.7061 28.042 84.4541 28.069 84.1901 28.081C83.9261 28.099 83.6981 28.108 83.5061 28.108C83.3261 28.108 83.0981 28.099 82.8221 28.081C82.5461 28.069 82.2911 28.042 82.0571 28V15.706ZM93.071 21.556C92.873 21.094 92.687 20.641 92.513 20.197C92.339 19.753 92.189 19.36 92.063 19.018L91.991 19.045C92.039 19.555 92.078 20.134 92.108 20.782C92.144 21.424 92.171 22.066 92.189 22.708C92.207 23.35 92.216 23.92 92.216 24.418V28C91.982 28.042 91.751 28.069 91.523 28.081C91.295 28.099 91.091 28.108 90.911 28.108C90.737 28.108 90.518 28.099 90.254 28.081C89.996 28.069 89.756 28.042 89.534 28V15.76C89.756 15.706 90.05 15.667 90.416 15.643C90.782 15.613 91.055 15.598 91.235 15.598C91.421 15.598 91.667 15.607 91.973 15.625C92.279 15.637 92.591 15.664 92.909 15.706L95.681 22.132C95.909 22.66 96.119 23.164 96.311 23.644C96.509 24.124 96.674 24.529 96.806 24.859L96.878 24.832C96.83 24.274 96.788 23.662 96.752 22.996C96.722 22.33 96.698 21.688 96.68 21.07C96.662 20.452 96.653 19.936 96.653 19.522V17.326C96.653 16.684 96.782 16.234 97.04 15.976C97.304 15.718 97.712 15.589 98.264 15.589H99.2L99.317 15.706V27.946C99.089 28 98.789 28.039 98.417 28.063C98.051 28.093 97.772 28.108 97.58 28.108C97.394 28.108 97.148 28.099 96.842 28.081C96.536 28.069 96.227 28.042 95.915 28L93.071 21.556ZM108.902 21.844C108.902 20.56 109.094 19.438 109.478 18.478C109.868 17.518 110.459 16.771 111.251 16.237C112.043 15.703 113.045 15.436 114.257 15.436C115.475 15.436 116.48 15.706 117.272 16.246C118.064 16.78 118.652 17.53 119.036 18.496C119.42 19.456 119.612 20.572 119.612 21.844C119.612 23.134 119.417 24.262 119.027 25.228C118.637 26.188 118.046 26.935 117.254 27.469C116.468 28.003 115.469 28.27 114.257 28.27C113.033 28.27 112.025 28 111.233 27.46C110.447 26.92 109.862 26.17 109.478 25.21C109.094 24.244 108.902 23.122 108.902 21.844ZM111.908 21.844C111.908 22.318 111.932 22.801 111.98 23.293C112.034 23.785 112.139 24.241 112.295 24.661C112.457 25.081 112.694 25.42 113.006 25.678C113.318 25.93 113.735 26.056 114.257 26.056C114.773 26.056 115.187 25.93 115.499 25.678C115.811 25.42 116.045 25.081 116.201 24.661C116.363 24.241 116.468 23.785 116.516 23.293C116.57 22.801 116.597 22.318 116.597 21.844C116.597 21.37 116.57 20.887 116.516 20.395C116.468 19.903 116.363 19.45 116.201 19.036C116.045 18.622 115.811 18.289 115.499 18.037C115.187 17.779 114.773 17.65 114.257 17.65C113.735 17.65 113.318 17.779 113.006 18.037C112.694 18.289 112.457 18.622 112.295 19.036C112.139 19.45 112.034 19.903 111.98 20.395C111.932 20.887 111.908 21.37 111.908 21.844ZM132.969 23.464C132.969 24.988 132.546 26.17 131.7 27.01C130.86 27.85 129.66 28.27 128.1 28.27C126.546 28.27 125.346 27.85 124.5 27.01C123.654 26.17 123.231 24.988 123.231 23.464V15.706L123.357 15.589H124.41C124.962 15.589 125.385 15.733 125.679 16.021C125.973 16.303 126.12 16.765 126.12 17.407V23.491C126.12 24.313 126.27 24.934 126.57 25.354C126.87 25.768 127.38 25.975 128.1 25.975C128.826 25.975 129.339 25.768 129.639 25.354C129.939 24.934 130.089 24.313 130.089 23.491V15.706C130.323 15.664 130.566 15.637 130.818 15.625C131.076 15.607 131.301 15.598 131.493 15.598C131.667 15.598 131.898 15.607 132.186 15.625C132.48 15.637 132.741 15.664 132.969 15.706V23.464ZM146.159 19.513C146.159 20.089 146.048 20.602 145.826 21.052C145.604 21.496 145.325 21.868 144.989 22.168C144.653 22.462 144.314 22.675 143.972 22.807C144.308 22.927 144.587 23.134 144.809 23.428C145.037 23.722 145.22 24.067 145.358 24.463L145.898 25.984C146.102 26.566 146.399 27.01 146.789 27.316C146.603 27.556 146.333 27.757 145.979 27.919C145.625 28.081 145.256 28.162 144.872 28.162C144.356 28.162 143.981 28.024 143.747 27.748C143.513 27.466 143.3 27.049 143.108 26.497L142.46 24.616C142.358 24.304 142.199 24.04 141.983 23.824C141.767 23.602 141.419 23.491 140.939 23.491H140.192V28C139.952 28.042 139.703 28.069 139.445 28.081C139.187 28.099 138.959 28.108 138.761 28.108C138.587 28.108 138.365 28.099 138.095 28.081C137.825 28.069 137.573 28.042 137.339 28V15.796L137.465 15.67C138.233 15.652 138.971 15.637 139.679 15.625C140.393 15.607 141.092 15.598 141.776 15.598C142.61 15.598 143.357 15.736 144.017 16.012C144.683 16.288 145.205 16.714 145.583 17.29C145.967 17.866 146.159 18.607 146.159 19.513ZM140.192 17.758V21.286C140.474 21.274 140.738 21.265 140.984 21.259C141.236 21.253 141.419 21.25 141.533 21.25C141.989 21.25 142.337 21.169 142.577 21.007C142.823 20.839 142.991 20.623 143.081 20.359C143.177 20.095 143.225 19.813 143.225 19.513C143.225 19.201 143.177 18.913 143.081 18.649C142.991 18.385 142.823 18.175 142.577 18.019C142.337 17.857 141.989 17.776 141.533 17.776C141.347 17.776 141.14 17.776 140.912 17.776C140.69 17.776 140.45 17.77 140.192 17.758ZM165.95 21.844C165.95 22.546 165.899 23.224 165.797 23.878C165.701 24.526 165.509 25.132 165.221 25.696C164.933 26.26 164.501 26.764 163.925 27.208C163.649 27.424 163.316 27.598 162.926 27.73C162.542 27.862 162.146 27.958 161.738 28.018C161.33 28.078 160.958 28.108 160.622 28.108C159.848 28.108 159.095 28.099 158.363 28.081C157.637 28.069 156.881 28.054 156.095 28.036L155.969 27.91V15.796L156.095 15.67C156.869 15.646 157.622 15.628 158.354 15.616C159.092 15.604 159.848 15.598 160.622 15.598C160.958 15.598 161.33 15.631 161.738 15.697C162.146 15.757 162.545 15.853 162.935 15.985C163.325 16.117 163.655 16.291 163.925 16.507C164.495 16.951 164.924 17.455 165.212 18.019C165.5 18.577 165.695 19.18 165.797 19.828C165.899 20.476 165.95 21.148 165.95 21.844ZM162.989 21.844C162.989 21.388 162.959 20.926 162.899 20.458C162.845 19.984 162.737 19.552 162.575 19.162C162.419 18.766 162.182 18.448 161.864 18.208C161.552 17.962 161.138 17.839 160.622 17.839C160.316 17.839 160.022 17.839 159.74 17.839C159.458 17.839 159.158 17.833 158.84 17.821V25.876C159.158 25.87 159.458 25.867 159.74 25.867C160.022 25.867 160.316 25.867 160.622 25.867C161.138 25.867 161.552 25.747 161.864 25.507C162.182 25.261 162.419 24.94 162.575 24.544C162.737 24.142 162.845 23.707 162.899 23.239C162.959 22.765 162.989 22.3 162.989 21.844ZM169.828 15.706C170.062 15.664 170.317 15.637 170.593 15.625C170.869 15.607 171.097 15.598 171.277 15.598C171.469 15.598 171.697 15.607 171.961 15.625C172.225 15.637 172.477 15.664 172.717 15.706V28C172.477 28.042 172.225 28.069 171.961 28.081C171.697 28.099 171.469 28.108 171.277 28.108C171.097 28.108 170.869 28.099 170.593 28.081C170.317 28.069 170.062 28.042 169.828 28V15.706ZM176.207 26.929C176.243 26.527 176.366 26.128 176.576 25.732C176.792 25.336 177.041 25.018 177.323 24.778C177.827 25.084 178.4 25.357 179.042 25.597C179.684 25.837 180.326 25.957 180.968 25.957C181.49 25.957 181.865 25.831 182.093 25.579C182.321 25.327 182.435 25.057 182.435 24.769C182.435 24.571 182.372 24.349 182.246 24.103C182.12 23.857 181.805 23.629 181.301 23.419L179.132 22.519C178.388 22.207 177.773 21.79 177.287 21.268C176.801 20.746 176.558 20.056 176.558 19.198C176.558 18.448 176.753 17.791 177.143 17.227C177.533 16.663 178.058 16.225 178.718 15.913C179.384 15.595 180.125 15.436 180.941 15.436C181.787 15.436 182.585 15.55 183.335 15.778C184.085 16 184.694 16.231 185.162 16.471C185.138 16.885 185.039 17.284 184.865 17.668C184.697 18.046 184.472 18.364 184.19 18.622C183.734 18.406 183.2 18.208 182.588 18.028C181.976 17.842 181.427 17.749 180.941 17.749C180.425 17.749 180.056 17.866 179.834 18.1C179.618 18.334 179.51 18.571 179.51 18.811C179.51 19.039 179.585 19.243 179.735 19.423C179.891 19.603 180.167 19.777 180.563 19.945L182.777 20.854C183.647 21.214 184.316 21.703 184.784 22.321C185.258 22.939 185.495 23.635 185.495 24.409C185.495 25.135 185.318 25.789 184.964 26.371C184.616 26.953 184.091 27.415 183.389 27.757C182.687 28.099 181.811 28.27 180.761 28.27C180.035 28.27 179.261 28.156 178.439 27.928C177.617 27.694 176.873 27.361 176.207 26.929ZM195.392 20.602C195.404 20.104 195.353 19.636 195.239 19.198C195.131 18.754 194.93 18.397 194.636 18.127C194.348 17.851 193.94 17.713 193.412 17.713C192.638 17.713 192.086 18.073 191.756 18.793C191.432 19.507 191.27 20.548 191.27 21.916C191.27 23.194 191.483 24.154 191.909 24.796C192.341 25.438 192.95 25.759 193.736 25.759C194.36 25.759 194.921 25.627 195.419 25.363C195.923 25.099 196.382 24.811 196.796 24.499C197.078 24.691 197.351 24.964 197.615 25.318C197.885 25.672 198.053 26.017 198.119 26.353C197.771 26.695 197.339 27.013 196.823 27.307C196.313 27.595 195.749 27.826 195.131 28C194.513 28.18 193.871 28.27 193.205 28.27C192.263 28.27 191.471 28.087 190.829 27.721C190.193 27.349 189.686 26.857 189.308 26.245C188.93 25.627 188.657 24.943 188.489 24.193C188.327 23.437 188.246 22.672 188.246 21.898C188.246 20.392 188.483 19.162 188.957 18.208C189.437 17.254 190.076 16.552 190.874 16.102C191.672 15.652 192.551 15.427 193.511 15.427C194.441 15.427 195.251 15.592 195.941 15.922C196.637 16.252 197.174 16.699 197.552 17.263C197.936 17.827 198.128 18.463 198.128 19.171C198.128 19.729 197.981 20.134 197.687 20.386C197.399 20.632 196.997 20.755 196.481 20.755C196.271 20.755 196.079 20.74 195.905 20.71C195.737 20.68 195.566 20.644 195.392 20.602ZM200.927 21.844C200.927 20.56 201.119 19.438 201.503 18.478C201.893 17.518 202.484 16.771 203.276 16.237C204.068 15.703 205.07 15.436 206.282 15.436C207.5 15.436 208.505 15.706 209.297 16.246C210.089 16.78 210.677 17.53 211.061 18.496C211.445 19.456 211.637 20.572 211.637 21.844C211.637 23.134 211.442 24.262 211.052 25.228C210.662 26.188 210.071 26.935 209.279 27.469C208.493 28.003 207.494 28.27 206.282 28.27C205.058 28.27 204.05 28 203.258 27.46C202.472 26.92 201.887 26.17 201.503 25.21C201.119 24.244 200.927 23.122 200.927 21.844ZM203.933 21.844C203.933 22.318 203.957 22.801 204.005 23.293C204.059 23.785 204.164 24.241 204.32 24.661C204.482 25.081 204.719 25.42 205.031 25.678C205.343 25.93 205.76 26.056 206.282 26.056C206.798 26.056 207.212 25.93 207.524 25.678C207.836 25.42 208.07 25.081 208.226 24.661C208.388 24.241 208.493 23.785 208.541 23.293C208.595 22.801 208.622 22.318 208.622 21.844C208.622 21.37 208.595 20.887 208.541 20.395C208.493 19.903 208.388 19.45 208.226 19.036C208.07 18.622 207.836 18.289 207.524 18.037C207.212 17.779 206.798 17.65 206.282 17.65C205.76 17.65 205.343 17.779 205.031 18.037C204.719 18.289 204.482 18.622 204.32 19.036C204.164 19.45 204.059 19.903 204.005 20.395C203.957 20.887 203.933 21.37 203.933 21.844ZM224.256 19.513C224.256 20.089 224.145 20.602 223.923 21.052C223.701 21.496 223.422 21.868 223.086 22.168C222.75 22.462 222.411 22.675 222.069 22.807C222.405 22.927 222.684 23.134 222.906 23.428C223.134 23.722 223.317 24.067 223.455 24.463L223.995 25.984C224.199 26.566 224.496 27.01 224.886 27.316C224.7 27.556 224.43 27.757 224.076 27.919C223.722 28.081 223.353 28.162 222.969 28.162C222.453 28.162 222.078 28.024 221.844 27.748C221.61 27.466 221.397 27.049 221.205 26.497L220.557 24.616C220.455 24.304 220.296 24.04 220.08 23.824C219.864 23.602 219.516 23.491 219.036 23.491H218.289V28C218.049 28.042 217.8 28.069 217.542 28.081C217.284 28.099 217.056 28.108 216.858 28.108C216.684 28.108 216.462 28.099 216.192 28.081C215.922 28.069 215.67 28.042 215.436 28V15.796L215.562 15.67C216.33 15.652 217.068 15.637 217.776 15.625C218.49 15.607 219.189 15.598 219.873 15.598C220.707 15.598 221.454 15.736 222.114 16.012C222.78 16.288 223.302 16.714 223.68 17.29C224.064 17.866 224.256 18.607 224.256 19.513ZM218.289 17.758V21.286C218.571 21.274 218.835 21.265 219.081 21.259C219.333 21.253 219.516 21.25 219.63 21.25C220.086 21.25 220.434 21.169 220.674 21.007C220.92 20.839 221.088 20.623 221.178 20.359C221.274 20.095 221.322 19.813 221.322 19.513C221.322 19.201 221.274 18.913 221.178 18.649C221.088 18.385 220.92 18.175 220.674 18.019C220.434 17.857 220.086 17.776 219.63 17.776C219.444 17.776 219.237 17.776 219.009 17.776C218.787 17.776 218.547 17.77 218.289 17.758ZM238.291 21.844C238.291 22.546 238.24 23.224 238.138 23.878C238.042 24.526 237.85 25.132 237.562 25.696C237.274 26.26 236.842 26.764 236.266 27.208C235.99 27.424 235.657 27.598 235.267 27.73C234.883 27.862 234.487 27.958 234.079 28.018C233.671 28.078 233.299 28.108 232.963 28.108C232.189 28.108 231.436 28.099 230.704 28.081C229.978 28.069 229.222 28.054 228.436 28.036L228.31 27.91V15.796L228.436 15.67C229.21 15.646 229.963 15.628 230.695 15.616C231.433 15.604 232.189 15.598 232.963 15.598C233.299 15.598 233.671 15.631 234.079 15.697C234.487 15.757 234.886 15.853 235.276 15.985C235.666 16.117 235.996 16.291 236.266 16.507C236.836 16.951 237.265 17.455 237.553 18.019C237.841 18.577 238.036 19.18 238.138 19.828C238.24 20.476 238.291 21.148 238.291 21.844ZM235.33 21.844C235.33 21.388 235.3 20.926 235.24 20.458C235.186 19.984 235.078 19.552 234.916 19.162C234.76 18.766 234.523 18.448 234.205 18.208C233.893 17.962 233.479 17.839 232.963 17.839C232.657 17.839 232.363 17.839 232.081 17.839C231.799 17.839 231.499 17.833 231.181 17.821V25.876C231.499 25.87 231.799 25.867 232.081 25.867C232.363 25.867 232.657 25.867 232.963 25.867C233.479 25.867 233.893 25.747 234.205 25.507C234.523 25.261 234.76 24.94 234.916 24.544C235.078 24.142 235.186 23.707 235.24 23.239C235.3 22.765 235.33 22.3 235.33 21.844ZM242.394 24.238C242.292 23.08 242.184 21.925 242.07 20.773C241.956 19.621 241.899 18.457 241.899 17.281V15.724C242.157 15.646 242.481 15.595 242.871 15.571C243.267 15.547 243.66 15.55 244.05 15.58C244.446 15.604 244.773 15.652 245.031 15.724V17.317C245.031 18.469 244.965 19.621 244.833 20.773C244.707 21.925 244.599 23.08 244.509 24.238C244.323 24.292 244.137 24.328 243.951 24.346C243.765 24.358 243.603 24.364 243.465 24.364C243.339 24.364 243.174 24.358 242.97 24.346C242.766 24.328 242.574 24.292 242.394 24.238ZM243.465 25.498C243.705 25.498 243.942 25.525 244.176 25.579C244.416 25.627 244.62 25.699 244.788 25.795C244.854 25.909 244.905 26.074 244.941 26.29C244.977 26.506 244.995 26.698 244.995 26.866C244.995 27.028 244.977 27.217 244.941 27.433C244.905 27.643 244.854 27.802 244.788 27.91C244.62 28.006 244.416 28.078 244.176 28.126C243.942 28.18 243.705 28.207 243.465 28.207C243.219 28.207 242.976 28.18 242.736 28.126C242.502 28.078 242.298 28.006 242.124 27.91C242.064 27.802 242.016 27.643 241.98 27.433C241.95 27.217 241.935 27.028 241.935 26.866C241.935 26.698 241.95 26.506 241.98 26.29C242.016 26.074 242.064 25.909 242.124 25.795C242.298 25.699 242.502 25.627 242.736 25.579C242.976 25.525 243.219 25.498 243.465 25.498Z" fill="white"/>
</svg>
